<?xml version="1.0" standalone="no"?>
<!DOCTYPE svg PUBLIC "-//W3C//DTD SVG 1.1//EN" "http://www.w3.org/Graphics/SVG/1.1/DTD/svg11.dtd" >
<svg>
<metadata>
Created by FontForge 20090622 at Fri Apr 19 16:48:02 2013
 By ffonts
Typeface &#194;&#169; &#60;your company&#62;. 2004. All Rights Reserved
</metadata>
<defs>
<font id="vespa" horiz-adv-x="1139" >
  <font-face 
    font-family="vespa"
    font-weight="400"
    font-stretch="normal"
    units-per-em="2048"
    panose-1="2 0 0 0 0 0 0 0 0 0"
    ascent="1638"
    descent="-410"
    x-height="860"
    cap-height="1577"
    bbox="-582 -433 8888 1854"
    underline-thickness="150"
    underline-position="-142"
    unicode-range="U+0020-U+F005"
  />
<missing-glyph horiz-adv-x="1104" 
d="M40 0v1280h1024v-1280h-1024zM72 32h960v1216h-960v-1216z" />
    <glyph glyph-name=".notdef" horiz-adv-x="1104" 
d="M40 0v1280h1024v-1280h-1024zM72 32h960v1216h-960v-1216z" />
    <glyph glyph-name=".null" horiz-adv-x="0" 
 />
    <glyph glyph-name="nonmarkingreturn" horiz-adv-x="569" 
 />
    <glyph glyph-name="space" unicode=" " horiz-adv-x="569" 
 />
    <glyph glyph-name="space" unicode="&#xa0;" horiz-adv-x="569" 
 />
    <glyph glyph-name="exclam" unicode="!" horiz-adv-x="439" 
d="M275 1625q51 0 219 -105l37 -19q-137 -701 -243 -1103h-27l-5 5l-4 -5q-142 6 -142 19q110 1115 123 1181q19 27 42 27zM197 293q50 0 101 -96q13 -22 13 -60v-23q0 -34 -82 -96l-60 -18h-9q-94 0 -128 110v41q0 64 96 128q37 14 69 14z" />
    <glyph glyph-name="quotedbl" unicode="&#x22;" horiz-adv-x="867" 
d="M653 1648h4q55 -6 98 -35q46 -45 46 -109q0 -240 -151 -440q-86 -98 -113 -98h-3q-29 0 -29 21q95 119 95 243v45l-7 11l4 3q-17 50 -67 50q-88 53 -88 147v7q0 55 60 113q64 42 151 42zM208 1392h11q65 -11 91 -32q49 -38 49 -119v-17q0 -160 -102 -348
q-111 -154 -165 -168q-28 0 -28 25v3q91 113 91 211v59q0 61 -45 74q-36 0 -77 49q-32 49 -32 98v14q0 52 56 105q59 46 151 46z" />
    <glyph glyph-name="numbersign" unicode="#" 
 />
    <glyph glyph-name="dollar" unicode="$" 
 />
    <glyph glyph-name="percent" unicode="%" horiz-adv-x="1090" 
d="M322 896v-4l4 4q93 0 140 -124l4 -16h-4l4 -4q0 -126 -128 -216l-52 -8h-12q-96 29 -96 52q-15 13 -40 88h4l-4 4v4q0 173 176 220h4zM962 876l4 -4l20 4h24l16 -16v-16l-608 -548q-137 -127 -152 -132v-5h440q-48 91 -48 121v24q0 99 96 164q51 32 76 32h8
q108 0 148 -136v-12q0 -100 -92 -188v-5h312v-159h-1328v159h228q28 1 108 113l468 556q49 36 188 36zM270 700q0 -38 48 -52h4q57 0 76 60v8q0 64 -44 64h-40q-39 -28 -44 -68v-12zM786 308q5 -52 52 -52h12q60 16 60 52l4 16q0 60 -60 60q-55 0 -68 -76z" />
    <glyph glyph-name="ampersand" unicode="&#x26;" horiz-adv-x="1366" 
d="M582 1086h65q44 0 120 -48q43 -44 71 -120l8 -87q0 -19 -2 -39l-3 -16q-32 -91 -58 -110q-37 -46 -107 -78v-3l152 -136l52 -45l158 149h3l123 -81q-131 -142 -171 -175l154 -138h205v-159h-1352v159h250q-15 4 -46 38q-46 84 -46 97l-3 42q0 179 88 239q78 62 119 62v3
q-58 63 -58 84q-36 51 -36 116v4q21 101 72 135q100 92 200 101q15 6 42 6zM485 763l87 -78q140 43 149 91q4 8 4 26q-13 56 -55 77q-16 7 -30 7q-65 3 -132 -65q-22 -33 -23 -58zM372 317q0 -28 58 -71q80 -29 146 -29q103 0 158 71q-208 213 -216 213q-75 -21 -110 -78
q-36 -46 -36 -106zM841 188l-50 -29h98z" />
    <glyph glyph-name="quotesingle" unicode="'" horiz-adv-x="646" 
d="M493 1443l11 -5q55 -24 97 -107q2 -66 -19 -114q-125 -288 -436 -421q-7 3 -55 -16l-25 3l-4 1q-29 13 -19 35l1 4q150 74 209 210l20 44l2 25q12 29 -59 86q-52 91 -14 177l4 11q21 48 100 87q92 21 187 -20z" />
    <glyph glyph-name="parenleft" unicode="(" horiz-adv-x="596" 
d="M656 1488h8q19 0 172 -132q17 -5 24 -20v-4l-164 -92q-119 -84 -224 -196q-137 -152 -148 -244q-40 -104 -40 -164v-88q30 -175 112 -288q79 -88 104 -101h356v-159h-916v159h368v4q-160 201 -160 389l-4 80q0 68 60 288q79 185 152 276q18 51 284 288z" />
    <glyph glyph-name="parenright" unicode=")" horiz-adv-x="700" 
d="M290 1480q40 0 80 -84q181 -270 212 -476h-4l24 -144l-4 -36q0 -174 -12 -188h4q-54 -196 -68 -196v-4q-26 -71 -136 -180l-20 -12h364v-160h-916v159h300q170 57 284 253q26 32 56 176l4 64q0 202 -80 332q-56 124 -196 288l-108 100v8q3 7 208 92z" />
    <glyph glyph-name="asterisk" unicode="*" horiz-adv-x="797" 
 />
    <glyph glyph-name="plus" unicode="+" horiz-adv-x="866" 
d="M300 338l-213 -10l27 105l17 65l198 6l63 210l72 -7l116 11l-40 -112l-23 -106l200 13l-47 -79l-34 -87l-157 -8l-52 -158l-182 19zM870 159v-159h-953l-1 159h954z" />
    <glyph glyph-name="comma" unicode="," horiz-adv-x="569" 
 />
    <glyph glyph-name="hyphen" unicode="-" horiz-adv-x="866" 
d="M75 284l45 96l17 63l302 8l284 6l-47 -75l-34 -83l-157 -8zM870 159v-159h-953l-1 159h954z" />
    <glyph glyph-name="hyphen" unicode="&#xad;" horiz-adv-x="866" 
d="M75 284l45 96l17 63l302 8l284 6l-47 -75l-34 -83l-157 -8zM870 159v-159h-953l-1 159h954z" />
    <glyph glyph-name="period" unicode="." horiz-adv-x="431" 
d="M192 270q89 0 120 -89q4 -22 13 -22h128l-1 -159h-527l-1 159h144q0 72 92 107z" />
    <glyph glyph-name="slash" unicode="/" horiz-adv-x="369" 
d="M405 1349l86 32l182 119q17 -5 24 -20v-4l-224 -434l-301 -883h780v-159h-823l-33 -68l-173 -32l31 100h-157l-1 159h124h77l305 957l87 229z" />
    <glyph glyph-name="zero" unicode="0" horiz-adv-x="721" 
d="M388 836v-4l4 4q124 0 236 -140q48 -95 48 -144h-4l4 -12q0 -194 -160 -348l-28 -33h292v-159h-811l-1 159h156q-92 153 -100 253q0 188 120 304q144 120 240 120h4zM280 464v-16q0 -82 92 -104h36q128 43 128 120v40q-12 80 -36 80q-16 20 -36 20h-92q-33 0 -68 -68
q-24 -51 -24 -72z" />
    <glyph glyph-name="one" unicode="1" horiz-adv-x="544" 
d="M346 868l20 -4h148q28 0 28 -28l-271 -677h339v-159h-808v159h216q24 -3 32 41q164 390 164 408l-16 12l-68 -4q-18 7 -28 24v16l116 72l116 132z" />
    <glyph glyph-name="two" unicode="2" horiz-adv-x="625" 
d="M429 860q130 0 212 -140l12 -80h-4l4 -4v-4q-8 -91 -72 -188l-112 -88l-124 -80v-4l160 -12q12 -17 12 -32q-44 -51 -44 -64l4 -5h208v-159h-811l-1 159h44q281 105 368 265q40 69 40 104q0 43 -68 56h-8l-48 -12q-68 10 -68 48v16q1 34 40 92h-4q83 132 260 132z" />
    <glyph glyph-name="three" unicode="3" horiz-adv-x="630" 
d="M384 855l12 1l11 -1h10q161 -26 161 -143q0 -86 -72 -144v-4q0 -22 44 -64q24 -33 24 -88q0 -134 -100 -212q-37 -33 -74 -41h258v-159h-695l-1 159h136v5q-9 0 -48 40v24q88 112 104 112h16q36 -16 36 -48q20 -28 68 -28h4q64 0 84 88q-17 48 -52 48l-136 4
q-23 0 -28 104l196 52q32 29 32 68q-26 44 -72 44h-8q-21 0 -124 -48l-36 -12q-8 6 -24 96q26 34 96 92q82 48 151 52z" />
    <glyph glyph-name="four" unicode="4" horiz-adv-x="642" 
d="M677 848l4 -4v-4q-76 -190 -300 -332l-76 -68l4 -4l20 4h52q7 0 36 68l12 8h64h10q33 0 34 -8l-16 -60h76l20 -4l-48 -124h-84l-40 -161h248v-159h-684v159h240q36 52 80 161h-252q-20 0 -24 16q280 268 280 296q52 57 128 192z" />
    <glyph glyph-name="five" unicode="5" horiz-adv-x="671" 
d="M264 872q154 -24 368 -24q24 -3 24 -24l-64 -148h-236l-12 -32q97 -19 104 -28l4 4q98 -64 100 -80q44 -53 44 -160l4 -4v-4q-17 -100 -48 -116q-7 -27 -100 -88l-12 -4v-5h380v-159h-915l-1 159h148l-40 125q6 20 28 20q76 -40 92 -40h52q55 0 120 40q24 0 52 88l4 32
q-46 100 -116 100l-20 -4h-28q-48 0 -48 16l100 328z" />
    <glyph glyph-name="six" unicode="6" horiz-adv-x="738" 
d="M450 868l185 32q-21 -37 -26 -80l-11 -101q-83 -19 -148 -48q-40 -14 -81 -42q-78 -60 -100 -104l-19 -25q100 51 200 64l100 -8q88 -38 116 -96q18 -27 24 -76v-88q0 -42 -55 -96l-33 -41h156v-159h-808v159h134v5l-19 87q-15 176 41 349q65 100 120 156q38 44 93 67z
M286 280q21 -80 112 -72h16q49 12 68 48q16 24 16 36v12q12 74 -64 76h-4q-62 -7 -120 -50z" />
    <glyph glyph-name="seven" unicode="7" horiz-adv-x="625" 
d="M120 868l58 -2l37 -5l20 -3l81 -10q320 -14 320 -24l8 -8v-4q-201 -491 -204 -564v-84l8 -5h228v-159h-808v159h248q16 17 70 164q162 268 257 361h-39l-204 -23q-65 -9 -144 19q57 187 64 188z" />
    <glyph glyph-name="eight" unicode="8" horiz-adv-x="741" 
d="M367 852h68q75 -10 144 -76q44 -50 44 -104l4 -24v-16q0 -29 -52 -120q88 -54 88 -156v-40q0 -75 -85 -157h166l-1 -159h-807l-1 159h176l-20 25v0l-1 1l-5 7q-26 50 -26 108q0 131 104 204q0 7 24 16v4q-21 0 -36 132q39 119 144 176zM379 604q0 -45 64 -56h36
q36 15 36 68v4q0 59 -48 72l-12 4q-49 0 -76 -68v-24zM319 284q32 -68 84 -68q92 17 92 80q-13 92 -40 92q0 6 -40 16q-96 -21 -96 -120z" />
    <glyph glyph-name="nine" unicode="9" horiz-adv-x="715" 
d="M396 840h48q139 0 204 -152q16 -53 16 -100q0 -95 -52 -164q-39 -88 -104 -160l-109 -105h376l4 4h4l1 -163h-915l-2 159h304q31 2 129 113v4l-140 64q-92 77 -92 140q-7 0 -8 72q0 128 156 240q100 46 180 48zM360 588v-20q0 -55 84 -72h20q56 7 56 56v32q0 55 -104 60
h-4q-35 0 -52 -56z" />
    <glyph glyph-name="colon" unicode=":" horiz-adv-x="451" 
d="M246 777h12q35 0 75 -32l14 -57q-6 -62 -29 -82l-32 -20l-4 4q0 -15 -63 -19l-4 4v-4q-60 0 -83 59v12q7 82 24 82l-4 4q41 49 94 49zM469 159v-159h-551l-1 159h552zM198 474h12q34 0 75 -45l22 -70q-11 -47 -35 -66l-31 -20l-4 4q0 -15 -62 -19l-4 4v-4q-59 0 -82 58
v12q7 81 24 81l-4 4q37 61 89 61z" />
    <glyph glyph-name="semicolon" unicode=";" horiz-adv-x="569" 
 />
    <glyph glyph-name="semicolon" unicode="&#x37e;" horiz-adv-x="569" 
 />
    <glyph glyph-name="less" unicode="&#x3c;" horiz-adv-x="1196" 
 />
    <glyph glyph-name="equal" unicode="=" horiz-adv-x="866" 
d="M71 265l46 62l16 40l303 5l284 4l-47 -49l-35 -53l-156 -5zM870 159v-159h-953l-1 159h954zM123 428l46 63l17 40l303 5l284 4l-47 -48l-25 -62z" />
    <glyph glyph-name="greater" unicode="&#x3e;" horiz-adv-x="1196" 
 />
    <glyph glyph-name="question" unicode="?" horiz-adv-x="765" 
d="M265 1634q255 0 496 -177q137 -117 137 -278v-11q0 -243 -299 -415q-28 -29 -177 -86q-24 0 -96 -222q-42 -137 -56 -137q-126 20 -126 61q131 441 147 455q19 24 156 61q100 40 162 116q26 46 26 71q0 129 -117 152l-111 20q-61 -2 -71 -5q-92 -21 -213 -136h-15
l-106 430q151 101 263 101zM109 249q113 0 125 -107l4 -22q-24 -120 -107 -120q-122 0 -133 147q11 102 102 102h9z" />
    <glyph glyph-name="at" unicode="@" horiz-adv-x="1799" 
d="M882 1251v-4l4 4l80 -4h96l4 -4h4v4q190 -22 204 -32v-4h4v8q119 -33 236 -128q68 -58 80 -79l-4 -4q24 0 80 -120l8 -24l-4 -4q23 0 40 -191h-8v-4h12q-18 -228 -32 -228l4 -4v-4q-41 -109 -96 -171q-67 -79 -120 -96v-3h244v-160h-1196v-4q203 -64 428 -64h196v-8
q-16 0 -68 -48q-26 -22 -40 -84l-16 -4h-76l-4 -4h-4v4l-12 -4q-282 0 -412 48q-123 23 -304 168h-176v160h44v3q-15 24 -24 68l4 4h-8l-16 159h4l-4 4v68q0 299 280 559q121 111 216 135q58 40 252 80q82 4 100 12zM222 500v-140q0 -93 73 -201l359 2l4 11
q-137 34 -208 104q-56 73 -56 172v12q17 141 88 232v4q123 135 216 176q107 32 164 32h12l4 -4l4 4q71 0 152 -36l48 -44q48 100 72 100h116q24 -2 24 -12v-20q-101 -254 -136 -416q-16 -67 -16 -100q0 -124 24 -124q0 -11 28 -16q125 0 212 120l52 96q44 113 44 220
q0 291 -288 392q-98 32 -348 32q-174 -20 -276 -68q-167 -79 -268 -236q-11 -1 -52 -80q-48 -171 -48 -212zM690 512q0 -93 76 -144l40 -8h20l20 4v-4q61 24 152 132q20 58 20 108q0 46 -72 108l-20 4h-48q-70 0 -132 -88q-48 -48 -56 -112zM855 163v-4h84v4q-2 53 -9 53z
" />
    <glyph glyph-name="A" unicode="A" horiz-adv-x="1605" 
d="M945 1565h19q76 0 133 -36q129 -52 183 -95q80 -43 183 -161q119 -155 119 -198q45 -106 53 -155v-172q-48 -231 -58 -233l-2 -7l-96 -162q-16 -9 -138 -138l-53 -49h321l3 -158h-1343q-83 -70 -91 -70h-31q-40 0 -76 56l-19 14h-332v3q107 41 107 130l-8 25h168
q154 109 263 232q128 150 160 216q121 179 157 291q103 254 202 552q31 80 69 93q15 13 107 22zM925 1255l-2 -7l-1 -4q-56 -220 -148 -451l-4 -17q10 -27 24 -27l304 78q195 41 248 58q28 19 48 64q0 221 -112 343q-133 111 -252 146l-28 3h-8q-48 0 -48 -71l-20 -109
q-1 -2 -1 -6zM1343 759q-255 -25 -328 -54q-196 -60 -272 -100l-152 -268q-91 -104 -116 -126l-40 -48v-4h812v4q-22 9 -180 113q-8 0 -20 48q0 22 156 152q54 50 144 177l48 95l1 7l-5 4h-6h-2h-40z" />
    <glyph glyph-name="B" unicode="B" horiz-adv-x="1630" 
d="M483 1552l140 -8q39 0 71 -89l195 75l174 32q168 3 252 -114q56 -41 92 -156l8 -72v-76q0 -114 -84 -180v-8q28 -28 40 -64q74 -92 124 -228q8 -21 8 -84v-60q-27 -174 -172 -292l-49 -56l-15 -13h503l-3 -159h-1936v4q112 55 112 132l-12 23h163q38 -3 89 73
q161 151 232 420q40 91 92 348l4 166q-11 161 -56 370l8 8zM756 1228q15 -75 15 -124l-9 -104q313 71 345 128q44 31 44 96q-20 67 -72 100q-24 12 -76 12q-123 0 -252 -90zM619 332h4q210 12 310.5 53.5t166.5 114.5q75 57 75 140l4 24q-21 178 -124 172
q-344 -56 -355 -177z" />
    <glyph glyph-name="C" unicode="C" horiz-adv-x="1490" 
d="M1004 1574h125q306 0 367 -46l8 -29q-16 -25 -69 -55q-106 -120 -106 -164q-23 -71 -23 -104v-30q0 -122 -28 -122l-106 42q-185 38 -211 38h-94q-147 -9 -286 -109q-62 -43 -94 -109q-31 -52 -31 -176v-9q0 -153 86 -248q116 -81 212 -101q0 -10 152 -33h71q58 0 246 33
q63 -91 65 -193h686v-159h-2116v4q110 58 111 141l-12 14h587q-91 31 -140.5 61t-169.5 166q-90 138 -90 206q-6 0 -12 105q0 190 43 314q29 172 308 403q157 121 392 147q72 13 129 13z" />
    <glyph glyph-name="D" unicode="D" horiz-adv-x="1530" 
d="M353 1570h-108q681 -8 918 -96q127 -36 180 -76q21 0 134 -109q114 -110 114 -373l-7 -183q-27 -154 -132 -314q-105 -157 -180 -219l-65 -41h626v-159h-2265v4q118 60 116 132l-10 23h194q144 176 152 176q147 17 147 29q217 653 293 955l8 29q-130 14 -272 13z
M781 1295l-342 -876v-30q249 30 424 81q104 53 170 104q72 82 132 159q78 183 78 281v68q0 44 -55 104q-83 70 -228 115l-164 25z" />
    <glyph glyph-name="E" unicode="E" horiz-adv-x="1545" 
d="M1844 1560q16 -4 16 -20l-80 -88q-104 -118 -124 -196q-47 -84 -60 -124l-20 -12h-4l-264 -4h-8v-4l-16 4l-316 4l-28 4q0 -60 -80 -256v-4l4 -32q103 0 500 36h32q7 0 12 -24q-100 -110 -100 -212v-28l-4 -4v-4l-340 4h-164q-27 0 -44 -68l-100 -192l12 -4
q446 48 528 48q32 -9 32 -40q21 -176 84 -185h572v-159h-2136v4q112 57 112 132l-8 23h179q54 -1 164 141q89 100 189 273q138 242 196 403q52 114 52 268l-31 127q32 28 44 28q486 -7 1035 129z" />
    <glyph glyph-name="F" unicode="F" horiz-adv-x="1421" 
d="M1658 1591q21 -20 21 -46v-29q0 -38 -175 -328q0 -18 -465 -95l-83 -175l13 -4l365 46l13 -17v-8q0 -28 -125 -191q-33 -59 -54 -59q-295 -23 -295 -70q-57 -50 -179 -241q-66 -79 -74 -195q18 -21 62 -20h1001v-159h-1915v4q117 52 109 137l-8 13l-6 5h204q94 -1 137 82
q209 270 266 440q96 260 96 374q16 79 33 245q-21 146 -38 146v12l21 21h4q140 -46 341 -46h42q210 0 510 100q144 58 179 58z" />
    <glyph glyph-name="G" unicode="G" horiz-adv-x="1278" 
d="M1021 1620l12 -4q216 0 240 -55q23 -8 23 -31v-4l-74 -142q-63 -102 -99 -287q-14 -94 -31 -94l-32 -12q-35 7 -62 35q-105 55 -181 55h-44l-4 4h-3l-4 -4l-4 4v-4l-12 4q-102 0 -220 -98q-173 -163 -173 -476q42 -158 90 -236q35 -39 79 -47q62 0 94 51q12 0 47 95
l16 98l-67 63l-4 27q0 73 91 99q25 23 102 23q91 0 126 -63q0 -35 -47 -98l-126 -348v-4l15 -12h610v-159h-1518v4q111 53 111 136l-9 19h118q59 0 59 38v4q-90 299 -90 491h-4l4 20l8 122h-4q35 191 145 357q29 87 193 232q191 128 291 138q30 16 212 47v-4q16 8 44 8h19
l4 4l4 -4l20 4h31z" />
    <glyph glyph-name="H" unicode="H" horiz-adv-x="1620" 
d="M1833 1585q25 -10 25 -17q-65 -214 -157 -422l-115 -285q-47 -115 -86 -269q-68 -208 -68 -362l-8 -43l-6 -28h752v-159h-2400q138 60 154 135l-12 16l-25 8h190q37 23 63 52q165 165 193 224q55 54 102 174l-4 5l12 4l26 170h-4l8 26v140q0 115 -47 290v9h-12v4h8v4
l-106 222q0 32 42 38q76 -34 205 -34h42l162 21q34 -69 86 -324l17 -170l-5 -34l5 -51q336 106 460 153q47 36 60 94l21 102l-6 80l-37 102q34 10 171 27q49 21 85 21q22 16 115 43q8 12 94 34zM512 179l-19 -20h143h264q75 53 161 152q110 112 133 209q25 21 72 204v5
q-11 34 -43 34l-422 -162q-51 -47 -68 -94q-74 -87 -136 -204q-11 -29 -85 -124z" />
    <glyph glyph-name="I" unicode="I" horiz-adv-x="846" 
d="M1115 1577l30 -13q-178 -393 -371 -748q-128 -239 -232 -476l-39 -107q0 -72 102 -72l94 -2h269v-159h-1281v4q115 51 115 139l-8 12l-3 4h157q136 20 159 45q60 27 102 135q409 1144 425 1163q0 23 183 36z" />
    <glyph glyph-name="J" unicode="J" horiz-adv-x="1437" 
d="M1827 1560l8 -8q-39 -91 -460 -864l-108 -212l-92 -168q-26 -47 -36 -100v-8q0 -44 76 -41h340v-159h-1912q108 64 108 136l-2 6l-11 17h384q-11 17 -22 53t-21 96q0 240 24 308t56 76l340 -204l8 -12v-32q31 -124 64 -124q36 -32 100 -32q56 0 124 84q113 209 200 476
l228 620l16 16l100 -32h124q45 0 256 64q55 16 108 44z" />
    <glyph glyph-name="K" unicode="K" horiz-adv-x="1954" 
d="M988 1580q84 -195 84 -398v-48q0 -90 -26 -229h4q218 0 455 233q131 176 145 239q115 10 181 22q83 16 199 101l-30 -160q-45 -149 -67 -149q-37 -67 -89 -123q-195 -192 -262 -222q-68 -41 -161 -69l-31 -9q93 -12 119 -29t57 -55q49 -47 177 -340l44 -84h9l-4 -4v-5
l62 -92h519l1 -159h-2374v4q124 39 124 133l-9 14l-5 8h258q25 -12 82 145q57 92 84 177q53 137 79 313v22h-4l9 27v145q0 119 -49 300v9h-13v5h9v4l-110 229q0 34 44 40q79 -35 211 -35h45q177 28 233 44v-4zM700 159h663q-27 40 -57 212q-25 75 -93 119q-121 53 -225 53
q-47 -15 -66 -71z" />
    <glyph glyph-name="L" unicode="L" horiz-adv-x="1417" 
d="M1322 1574l15 -4v-124q0 -171 -45 -206q-29 -63 -184 -248q-287 -281 -601 -624l7 -7h79q301 32 301 52q47 0 263 128l15 4q18 -6 18 -23l-75 -356l12 -7h200v-159h-1602v4q106 50 106 136l-8 19h64q95 0 184 85q235 218 281 282q169 172 185 225q73 96 146 331l94 469
l11 4q91 -19 248 -19z" />
    <glyph glyph-name="M" unicode="M" horiz-adv-x="2277" 
d="M693 1610q27 -24 185 -61l133 -16l95 6h5q40 -140 122 -275q118 -154 142 -154l43 -5q40 0 142 132q78 68 196 238l37 58h11q13 0 116 -68l83 -29l74 7l25 6l-50 -344q0 -397 154 -751l132 -195h407v-159h-3268q143 88 144 125l-18 34h301q164 32 268.5 151t304.5 390
q79 115 105.5 174.5t76.5 230t50 291.5v5v21l-16 169v19zM1714 894q-70 -107 -243 -334q-75 -95 -117 -95q-222 12 -222 53l-185 344q-41 0 -48 -64l-195 -502q-53 -127 -62 -137h1088l-21 428h5l-5 5l37 280v22h-32z" />
    <glyph glyph-name="N" unicode="N" horiz-adv-x="1680" 
d="M957 1580v-8q20 -3 20 -12l-8 -16l4 -4v-4l-20 -248q23 -182 100 -348l172 -276v-4l28 4h8q43 161 364 804q13 0 28 -12l4 4h4l40 -12q276 0 404 52l65 45l49 23l15 -9l-345 -427q-163 -170 -240 -336q-116 -219 -116 -272q-72 -212 -72 -284l15 -81h513v-159h-2136v4
q112 57 112 132l-9 23h293q196 207 228 293q28 31 88 228q48 161 48 188l8 176v32q0 145 -60 288q-16 64 -40 88v8h4q157 0 352 72zM905 600l-76 -184q-15 -21 -84 -184l-49 -73h457q-80 262 -164 361q-52 80 -84 80z" />
    <glyph glyph-name="O" unicode="O" horiz-adv-x="1593" 
d="M1039 1575h76q140 0 264 -158q84 -111 94 -196q13 -23 13 -46q8 -37 36 -37q83 20 175 116q17 42 89 42q75 17 130 17l9 -13q-50 -155 -215 -292q-97 -63 -120 -76.5t-54 -23.5q-50 -6 -50 -29q-35 -203 -94 -312q-25 -83 -143 -242l-18 -42v-12q108 -113 215 -112h497
v-159h-1943v4q125 57 125 129l-15 26h301q53 -5 68 29v4l-76 137q-38 48 -63 350v29q0 459 336 730q236 137 363 137zM998 1213q0 -59 40.5 -93t165.5 -53h9q89 -25 41 75q-32 89 -103 121l-72 4q-40 0 -72 -34zM640 613q0 -169 139 -259l72 -8q163 0 309 267q53 114 59 139
l32 122q-53 4 -190 51l-4 4h-5q-49 27 -161 138q-24 29 -58 29h-14q-69 0 -107 -133q-72 -231 -72 -350z" />
    <glyph glyph-name="P" unicode="P" horiz-adv-x="1250" 
d="M1000 1602q356 0 496 -186q16 -30 28 -121h-4l4 -4q0 -83 -64 -199q-26 -49 -232 -234q-154 -130 -244 -158q-26 -28 -180 -45q-172 0 -288 53l-28 12q-28 -5 -28 -65l-96 -485l20 -11h1372v-159h-2028q87 55 96 89q10 3 16 53l-12 12l-5 5h213q26 -1 56 136
q232 751 232 789l4 41q0 194 -68 194l-40 4l-84 -8q-32 10 -32 32q0 35 240 113q198 77 440 118zM480 1104q9 -70 104 -140q48 -36 116 -36q109 0 188 116l20 80q0 53 -40 120q-91 100 -184 100h-8q-103 0 -168 -116q-28 -62 -28 -124z" />
    <glyph glyph-name="Q" unicode="Q" horiz-adv-x="1303" 
d="M926 1581h79q144 0 272 -159q87 -111 97 -197q14 -23 14 -46q16 -133 8 -203t-8 -93q-37 -204 -97 -314q-27 -83 -108 -192l189 -219l-208 2l-97 67l-58 -66q227 -2 373 -2h477v-159h-2004v4q130 58 130 138l-14 17h308q55 -4 70 29v4l-78 138q-40 49 -65 352v29
q0 460 346 732q244 138 374 138zM711 1164q-83 -64 -163 -250q-33 -179 -33 -299q0 -170 143 -259q121 -42 206 30l-85 137q60 0 115 72l115 -72l42 92q55 115 61 140l34 122l26 98q6 71 -24 171q-32 90 -106 121l-74 4q-42 0 -108 -21.5t-149 -85.5z" />
    <glyph glyph-name="R" unicode="R" horiz-adv-x="2010" 
d="M1256 1588q161 0 380 -40q189 -66 256 -148q97 -83 128 -160q24 -34 36 -144q0 -138 -48 -196q-56 -125 -284 -268l-4 4h-4v-4l4 -4q-115 -68 -208 -68q-95 -8 -276 -8l-4 4v-4q205 -248 396 -248q85 0 456 156h4q19 0 36 -52q28 -40 28 -56v-4q0 -18 -128 -72l-172 -98
q-4 -6 -48 -16v-3h372v-159h-2508v4q112 54 112 134l-9 21h325q18 12 84 173l432 952h-4l-116 -4h-8q-20 12 -20 24q12 108 28 108q131 0 288 68q117 45 228 76l4 -4q1 23 216 36h28zM972 1144v-16q0 -129 108 -240q78 -56 140 -56h68q42 0 120 44q116 108 116 224l4 36
q-28 140 -48 140q-49 90 -156 128l-60 12q-116 0 -200 -76q-92 -73 -92 -196zM516 184q8 -26 64 -25h568v3q0 35 -144 118q-164 142 -164 180l-60 100l4 4q-11 0 -36 76q-5 0 -24 56h-20q-13 -3 -104 -280z" />
    <glyph glyph-name="S" unicode="S" horiz-adv-x="1573" 
d="M1217 1597q103 0 260 -80q174 -73 190 -87l4 -9l-143 -343l-20 -10q-34 3 -45 13l-3 -3q-178 123 -208 123h-51q-82 0 -82 -83l-4 -63q0 -46 96 -183q112 -159 112 -246l10 -160q0 -67 -51 -200l-3 -6q-64 -70 -64 -93q10 -9 102 -8h299v-159h-1618v3q89 43 89 128l-8 28
h328l6 5q-138 52 -146 65l-3 14q0 54 51 166q34 106 47 203l-3 83l34 30h20q29 0 45 -33l61 -83l-3 -4v-2h3l4 2q62 -137 177 -189l106 -14q95 18 95 30q49 30 64 73q35 81 35 121v62q0 92 -68 180l-59 94l4 3q-9 0 -30 63q-13 18 -35 90l4 3q-14 12 -14 97l17 70h3l-3 3v3
l31 74h-3q57 115 122 165q118 59 248 64z" />
    <glyph glyph-name="T" unicode="T" horiz-adv-x="912" 
d="M1768 1575q20 -6 20 -27q-24 -74 -220 -532l-20 -3q-33 9 -328 174h-12q-31 -38 -672 -1026l15 -2h1181l1 -159h-1945v4q112 55 112 130l-11 25h236q39 -6 59 66l432 939l-4 4h-4l-544 -198q-24 0 -24 27q220 497 236 516l20 4z" />
    <glyph glyph-name="U" unicode="U" horiz-adv-x="1853" 
d="M1018 1602q-106 -196 -232 -468q0 -14 -94 -215q-78 -210 -78 -232l-13 -81v-18q0 -73 56 -111q65 -48 176 -48h13q123 0 241 125q111 156 171 344q35 85 164 601l8 34l4 5h9q38 -13 176 -26h47q159 0 258 43l13 -5q-202 -376 -331 -751q-107 -277 -107 -314v-13
q27 -119 90 -154l64 -17h13l129 38h4q8 -1 111 -180h482v-159h-2701v4q121 62 118 132l-9 23h541q-84 82 -139 167q-34 64 -34 168l4 69q13 159 288 794q29 54 81 215h5q38 -13 115 -13h91q249 17 249 39zM1226 168h154q-57 49 -57 64h-9z" />
    <glyph glyph-name="V" unicode="V" horiz-adv-x="885" 
d="M656 1853h3q23 -156 76 -245q114 -126 136 -132l7 -12q-18 0 -222 -181q-135 -147 -151 -219q-49 -114 -49 -143h3v-4l-11 -4l-15 -124h4l-4 -12q0 -203 34 -324q0 -40 79 -178l4 -3h4q34 238 71 370l4 3v4l-4 4q72 148 80 151v4q104 142 219 260q42 46 154 125l12 3
q45 -88 143 -177l4 -4v-4q-149 -80 -298 -207q-99 -105 -215 -332q-52 -105 -87 -219l7 -42l12 -30l11 -22h733v-159h-1371v4q106 49 106 124l-9 31h359l8 7q-33 5 -166 140l8 7h-4l-4 -4h-4l-117 208l4 4q-10 0 -64 192l-11 72q9 298 22 298q54 264 189 449q41 79 261 291
q8 0 18 15q16 15 31 15z" />
    <glyph glyph-name="W" unicode="W" horiz-adv-x="1887" 
d="M2482 1627l-197 -232q-242 -274 -271 -349q-131 -157 -298 -521l-175 -366h610l1 -159h-2307v5q130 66 131 127l-10 27h617q-117 190 -343 655q-133 315 -197 581l-5 113l14 100l146 -75l113 -32l204 -51l26 -250q76 -256 120 -368l43 -111q0 -37 70 -140
q232 410 299 465l278 -431q14 13 120 315q191 433 423 648l201 -49q198 -16 387 98zM1071 493l-115 -179l-113 -155h454z" />
    <glyph glyph-name="X" unicode="X" horiz-adv-x="1455" 
d="M347 1652q17 0 92 -119l319 -463h4l442 582h20q12 0 243 -123q53 -25 147 -40v-9l-645 -713q4 -18 239 -357l159 -251h578v-159h-2342v4q112 64 112 133l-8 22h381l450 612q0 17 -227 282q-40 57 -366 449q-8 0 -8 18q20 12 139 31zM427 159h609l-286 361h-4
q-124 -127 -319 -361z" />
    <glyph glyph-name="Y" unicode="Y" horiz-adv-x="1055" 
d="M-176 1643h5q167 -89 494 -89q36 0 79 16q-9 -213 99.5 -431.5t145.5 -278.5l175 323l157 348l168 -85l137 -46l90 -28v-5q-190 -167 -302 -364l-251 -373q-58 -143 -73 -293l4 -178h426v-159h-1394v5q148 76 147 127l-11 27h274q131 241 176 405q6 164 -520 1037z" />
    <glyph glyph-name="Z" unicode="Z" horiz-adv-x="1625" 
d="M1695 1563q20 0 31 -19q0 -31 -229 -295q-225 -261 -310 -341h-4v-8l240 27q24 -9 24 -23q-118 -150 -128 -152l-322 -46l-248 -361h4q98 0 391 66q188 84 260 147l89 63h20q15 -7 15 -28v-3q-62 -174 -105 -256q-27 -65 -27 -121v-27q18 -27 70 -27h287v-159h-1935v4
q109 53 109 136l-8 19h119q60 0 172 155l108 140l159 182h-4l-132 -15l-15 19v12q166 181 174 182h4q221 13 221 35l388 329l-4 4q-426 -24 -570 -46l-209 -70h-4l-19 19v4l120 314q36 113 70 113l19 4l256 -31l291 4l4 3v-3l11 3q334 20 617 47z" />
    <glyph glyph-name="bracketleft" unicode="[" horiz-adv-x="569" 
 />
    <glyph glyph-name="backslash" unicode="\" horiz-adv-x="856" 
d="M30 1455h8q19 0 262 -100q17 -5 24 -20v-4l179 -531q276 -628 301 -641h212v-159h-1155l-1 159h653h77l-196 471l-380 821z" />
    <glyph glyph-name="bracketright" unicode="]" horiz-adv-x="569" 
 />
    <glyph glyph-name="asciicircum" unicode="^" horiz-adv-x="961" 
 />
    <glyph glyph-name="underscore" unicode="_" horiz-adv-x="963" 
d="M585 572q128 -12 128 -40v-8q-48 -208 -56 -212l-24 -8q-456 68 -472 80q-20 13 -20 32v8q9 31 116 56q292 92 328 92zM1065 159v-159h-1212v159h1212z" />
    <glyph glyph-name="grave" unicode="`" horiz-adv-x="682" 
 />
    <glyph glyph-name="a" unicode="a" horiz-adv-x="1002" 
d="M806 930h112l28 -8v-21q-98 -257 -136 -427h-4l-12 -120q0 -127 36 -127l16 -4l36 4h24q8 0 56 -63l16 -5h64v-159h-1211v159h339l8 5q0 46 -56 71q-76 87 -76 217l-277 -97l-4 4v123q3 9 329 144l40 65v4q56 58 56 67l4 -5h4q0 19 140 116q110 32 140 32h32
q171 0 208 -66l16 -12q33 77 72 103zM342 492q0 -73 40 -112q24 -40 84 -40h24q94 36 168 148l12 92q0 63 -88 112h-56q-59 0 -104 -60q-80 -79 -80 -140zM514 159h80v1l-8 40z" />
    <glyph glyph-name="b" unicode="b" horiz-adv-x="1127" 
d="M613 1351q49 3 25 -28l-159 -492l134 30q100 3 200 -34l147 -87q84 -109 53 -276l-34 -116q-86 -148 -166 -172q-22 -13 -43 -17h366v-159h-1436v158q392 172 392 214q15 17 64 188l195 716q127 44 192 56zM377 371q14 -68 51 -94q33 -21 64 -27q39 0 88 4q33 12 91 46
l63 100q48 152 -150 200l-104 -26q-67 -37 -73 -85q-30 -68 -30 -118zM33 159h122h39l-16 25q-11 1 -17 72z" />
    <glyph glyph-name="c" unicode="c" horiz-adv-x="894" 
d="M554 884h12h4h4q64 -2 104 -14l10 -3l9 -3q72 -31 141 -100v-12l-88 -84l-9 -10q-53 34 -147 34q-71 -8 -120 -48q-64 -63 -64 -124v-12q0 -76 88 -136q67 -24 88 -24h12q90 7 190 79l143 73l182 100l75 -144l-148 -72l-416 -212l-30 -8v-5h488v-159h-1212v159h357
q-30 27 -65 69q-76 82 -76 212l-294 -112l-4 4v120q3 8 342 156l44 64v4q100 111 204 172q115 36 176 36z" />
    <glyph glyph-name="d" unicode="d" horiz-adv-x="1076" 
d="M1000 1320q20 -6 20 -28q-189 -715 -189 -755v-28q2 -109 73 -149q6 -8 100 -28l8 -24q-39 -135 -55 -145l-28 -12l-112 -4q-161 70 -129 101l-24 8q-125 -78 -125 -88l-39 -8l788 -1v-159h-1406v159h394v1q-29 0 -72 10t-124 98q-44 67 -44 124h4l-4 4v28l4 4v4l-4 4h4
l-4 32l-360 -168l-33 140l401 160l36 96q37 82 203 172q67 32 184 32q84 0 188 -48q16 4 16 28q126 395 137 412zM244 533q0 -132 115 -168l92 -15q120 0 175 145q0 130 -99 168l-130 15q-105 -40 -153 -122v-23z" />
    <glyph glyph-name="e" unicode="e" horiz-adv-x="883" 
d="M432 892q202 0 336 -128q-9 -25 -156 -216l-212 -284v-4l40 -4q58 0 200 76q80 37 140 136q128 161 128 172h4v-80q-108 -187 -232 -316q-113 -80 -136 -80v-5h276v-159h-820v159h223q20 1 33 25l-116 68q-88 68 -88 128l-352 -297l-100 96l443 366q16 46 45 95
q101 188 232 232q27 20 112 20zM228 404q14 -64 52 -96q45 -28 60 -28l172 236v4q-43 44 -116 44q-121 0 -140 -48q-28 -23 -28 -112z" />
    <glyph glyph-name="f" unicode="f" horiz-adv-x="886" 
d="M550 668l12 -8h4q226 132 252 172q44 31 64 112v16q0 61 -84 88h-16q-99 0 -128 -120q-60 -133 -104 -260zM846 1340h32q95 0 136 -52q19 0 68 -96l16 -68l-4 -4l4 -16q0 -94 -52 -220h-4l-4 4h-4v-4l8 -8q-70 -99 -80 -104l-4 4h-4v-4l8 -8l-80 -68l-4 4h-4v-4l4 -4
q-247 -163 -384 -240q-49 -36 -68 -100q-24 -57 -24 -71q-11 -22 -1 -28q51 -12 626 256l-9 -130l-451 -196l-105 -24h515l1 -159h-684q-8 -3 -52 -123q-89 -47 -276 -112h-8l-8 8v8l92 219h-624v159h336h190h169l105 241l-519 -182l-51 72l641 277q226 541 333 657
q53 62 120 88q51 28 104 28z" />
    <glyph glyph-name="g" unicode="g" horiz-adv-x="980" 
d="M806 876h116l16 4l16 -4l-208 -644l8 -19l164 78l176 69q21 -78 48 -116q-172 -74 -184 -85h84v-159h-360q-16 -72 -96 -249q-45 -64 -90 -86q-155 -84 -297 -90l-158 -8q-82 0 -157 17q-90 10 -90 98q0 69 28 105q47 62 304 159l116 50v4h-412v159h380v4
q-115 66 -140 135q-24 54 -24 128l-378 -126l-68 100l494 189q25 49 40 62v4q105 113 204 167q115 35 176 35h12l4 -4l4 4q71 0 152 -35l48 -43q48 97 72 97zM365 520q0 -93 76 -144l40 -8h20l20 4v-4q134 80 160 156l12 76q0 73 -88 120h-52q-70 0 -136 -84
q-44 -52 -52 -116zM185 -252v-16q3 -32 56 -17q100 22 179 103q53 90 61 146q-268 -110 -288 -192z" />
    <glyph glyph-name="h" unicode="h" horiz-adv-x="1235" 
d="M735 1448h68q149 0 240 -92q12 -15 24 -80q0 -76 -72 -224q-48 -76 -132 -164l-56 -40l157 28q97 -5 139 -7l53 -22l47 -47l22 -65q12 -35 5 -103q1 -90 -81 -232l-142 -241h336v-159h-1540v159q300 0 297 0q107 276 125 313l-477 -302l-48 130q554 370 599 408
q70 175 148 436q33 130 100 220q96 84 188 84zM571 860q154 86 224 224q37 65 56 120q-13 52 -68 52h-20q-46 0 -92 -88zM415 228l-20 -64l5 -5h350q53 71 153 263l47 113l-15 65q-48 56 -196 56q-59 -3 -128 -40q-136 -96 -136 -176z" />
    <glyph glyph-name="i" unicode="i" horiz-adv-x="499" 
d="M393 1192h12q35 0 64 -60l12 -68q-12 -68 -36 -88l-32 -20l-4 4q0 -16 -64 -20l-4 4v-4q-61 0 -84 60v12q7 84 24 84l-4 4q62 92 116 92zM385 880q28 -8 28 -24q-164 -477 -176 -544l-8 -64l8 -89h316v-159h-659v159h136l-1 5q-12 21 -12 40q0 62 44 148l48 124h-4
q-414 -176 -436 -176v132q0 10 384 140q85 30 112 92l64 196q0 13 156 20z" />
    <glyph glyph-name="j" unicode="j" horiz-adv-x="642" 
d="M534 1192h12q35 0 64 -60l12 -68q-16 -84 -40 -84q0 -11 -28 -24l-4 4q0 -14 -52 -20q-78 0 -96 52l-4 20q0 56 24 88h-4q65 92 116 92zM518 880q22 0 36 -20l-180 -560l463 247l37 -117l-534 -271h438v-159h-482l-2 -4q-55 -162 -148 -225q-50 -24 -92 -24
q-181 -12 -226 126l1 51l6 24l40 52h-323v159h504l118 65l76 219h-16q-11 -14 -559 -218v121q473 188 607 250q28 65 88 264q0 12 148 20zM45 0l-70 -51q-15 -62 21 -70q80 0 112 53l28 68h-91z" />
    <glyph glyph-name="k" unicode="k" horiz-adv-x="1239" 
d="M733 1362q21 -9 23 -16v-4l-167 -518h3q156 84 184 90t71 10v3q127 -11 167 -54q92 -83 92 -190v-30q0 -44 -17 -95q-46 -106 -131 -163l-69 -39h-3l-59 -23l-3 3l-60 -4l-47 9q94 -83 110.5 -89t51.5 -6q52 -18 121 54l105 -77v-3q-79 -55 -101 -61h474v-159h-1595v159
h209l117 306q-260 -176 -330 -203l-81 115l463 277l75 209l-4 3q13 0 20 46l125 388q0 10 184 46zM470 512l206 -38q49 0 101 46q13 0 30 69q0 52 -21.5 70.5t-53.5 25t-112 -39.5q-123 -71 -127 -77zM401 332l-64 -173h382q-104 33 -292 160z" />
    <glyph glyph-name="l" unicode="l" horiz-adv-x="850" 
d="M542 1344h12q22 0 68 -48l88 4h32l128 28q36 -20 36 -56v-16q0 -25 -144 -336l-252 -568v-16q0 -39 52 -48q32 0 268 124q132 68 212 106q13 5 83 -118q-84 -61 -191 -112l-192 -96l-20 -24v-9h688v-159h-1716v159h492v13l4 36q-41 87 -48 88l-393 -143l-49 100l454 219
l68 108q276 594 288 636l-16 100q25 28 48 28z" />
    <glyph glyph-name="m" unicode="m" horiz-adv-x="1444" 
d="M870 960q68 -19 68 -60l12 -80l-4 -56v-88l8 -8l276 228q19 12 72 12q46 0 76 -64h-4l4 -4v-360q0 -167 -64 -256q-16 -32 -49 -65h358l-1 -159h-1883l-1 159h312q84 343 132 473q-93 -72 -104 -72l-12 -4q-13 1 -52 80l-31 52q0 26 183 224q0 21 88 44h12q115 0 148 -80
q10 -176 28 -176l80 -32q32 0 168 148l156 140zM790 159h209q67 171 67 213q-8 64 -40 64q-89 0 -236 -277zM394 159h165q39 148 39 185v36q-16 0 -16 8q-105 0 -168 -180z" />
    <glyph glyph-name="n" unicode="n" horiz-adv-x="1073" 
d="M393 892h4q20 -10 20 -32v-32h104l60 28q54 20 120 28l4 -4h4l4 4q116 0 236 -80q72 -87 72 -172q-6 -180 -16 -197q-18 -43 -24 -51q-50 -79 -144 -160l-73 -65h429v-159h-1540v159h300l48 129v4q-219 -92 -236 -92l-16 16q6 148 16 148l328 148l148 372l4 4h4zM240 159
h231q130 141 138 141l88 108l24 64v8q0 96 -96 128l-68 8q-58 0 -160 -72q-54 -72 -157 -385z" />
    <glyph glyph-name="o" unicode="o" 
d="M600 875q159 -19 231 -45.5t129 -81.5q62 -63 100 -172q19 -131 -28 -220q-55 -126 -160 -197h325l-1 -159h-1415v159h343l-48 41q-23 37 -38 83l-4 43l4 74l-261 -125l4 149q14 0 275 124q44 93 94 158.5t190 129.5q97 32 260 39zM312 422v-30q30 -102 48 -110t83 -22
h31q108 0 148 16t71 64l7 101q-34 144 -196 159q-139 -23 -165.5 -80.5t-26.5 -97.5z" />
    <glyph glyph-name="p" unicode="p" horiz-adv-x="929" 
d="M391 907l4 -4v-4l-16 -53l4 4h4l4 -4q56 21 140 21q96 -6 184 -60q148 -90 148 -293v-8q0 -166 -122 -249t-184 -98h414v-159h-876q-7 0 -28 -55l-255 -81l-8 9l48 127h-96v159h156q12 8 99 251h-4l-251 -57v124q0 10 327 121l112 277q0 11 184 32h12zM275 520v-44
q0 -56 96 -88l56 -4q88 16 120 44q48 32 48 100q-12 120 -180 120q-62 -9 -108 -44q-31 -52 -32 -84zM175 228l-19 -69h178q-39 7 -159 69z" />
    <glyph glyph-name="q" unicode="q" horiz-adv-x="1081" 
d="M613 900q184 -53 229 -67q0 -297 11 -297l296 -176l-28 -124l-240 104v-4l17 -177h231v-159h-137q-51 0 -46 -28l35 -188l-16 -8q-165 84 -215 124l-13 72q-12 28 -36 28h-772v159h469q-69 11 -111 41l-54 40q-69 70 -124 156q-35 62 -48 136v52q31 156 84 196
q42 65 188 104q21 8 92 8h8q62 0 160 -48v4l4 -4h8v4l-4 48zM329 540q0 -82 148 -140l28 -4v4l4 -4h28q104 13 112 116q0 85 -60 120q-49 32 -112 32h-40q-108 -22 -108 -124zM597 173l-85 -14h184l-11 41z" />
    <glyph glyph-name="r" unicode="r" horiz-adv-x="1046" 
d="M833 846q68 -1 92.5 -13.5t51.5 -32.5q44 -53 44 -100q8 -58 -20 -100q-31 -65 -100 -100q-61 -34 -139 -33q-96 5 -176 57q-32 24 -48 24q-54 0 -118 -48q-40 -100 -98 -270q134 -74 123 -71h769v-159h-1384v156h171q40 81 80 216l20 66l-350 -136v148q31 20 428 198
q71 214 87 220l168 -24q45 0 52 -68q17 -20 24 -20l191 65z" />
    <glyph glyph-name="s" unicode="s" horiz-adv-x="537" 
d="M224 948q208 -148 252 -308q12 -78 12 -108v-12q0 -173 -108 -256l-96 -48l-4 -44v-4l5 -9h359v-159h-944v159h373l-1 9q-84 51 -124 92q182 231 200 240l92 -44q100 44 100 168q0 75 -88 140l-4 4l-194 -268q-119 -151 -166 -196q-96 -78 -188 -124v116l100 62
q72 48 166 209z" />
    <glyph glyph-name="t" unicode="t" horiz-adv-x="676" 
d="M568 1400l193 13l5 -25l-74 -212h20l20 5q39 -8 39 -20v-5q0 -123 -25 -123l-19 -5h-89l-208 -618l-2 -110q2 -112 44 -141h358v-159h-1079l-1 159h435q-21 55 -26 192q14 125 34 163l-391 -79v138l459 127q41 84 135 318h-69q-20 8 -20 34v109l25 5h88l80 200
q26 34 68 34z" />
    <glyph glyph-name="u" unicode="u" horiz-adv-x="1112" 
d="M245 892q168 -40 232 -68l12 -24q-105 -286 -120 -348v-12q0 -41 48 -92q40 -16 68 -16h48q50 10 92 80q20 24 136 408q19 40 40 40l216 -72l8 -12q0 -18 -132 -308l-8 -24v-20q15 -31 60 -44q39 0 108 56l4 4l133 85l-1 -196l-117 -92l-11 -6l-4 -3l-85 -69h162v-159
h-1281v159h253q-40 61 -61 117l4 4q-12 0 -20 72q-8 0 -8 32h-4l-164 -52v148l240 100l112 296zM689 220q0 -14 -41 -61h97q-10 61 -32 61h-24z" />
    <glyph glyph-name="v" unicode="v" horiz-adv-x="810" 
d="M670 926q97 0 116 -101v-29l-4 -54l20 -5h20q49 0 176 38l32 -84q-190 -62 -240 -62l-64 4q-27 -102 -32 -109q-44 -99 -128 -222q-120 -107 -212 -139v-4h676v-159h-1232v159h232v4l-11 37l-1 14q0 105 88 239l92 196h-4q-176 -179 -372 -419h-4l-20 17v88
q49 47 180 206l108 129q8 13 220 214q38 38 56 38h16q31 0 49.5 -27.5l22.5 -33.5t8 -18.5t4 -58.5q0 -53 -92 -202q-81 -148 -112 -226v-29q0 -50 60 -50q61 13 232 176q53 76 112 192q-63 25 -84 71l-4 13v55q2 62 8 67v4q17 71 88 71zM658 760q0 -21 28 -40q12 0 12 44
q0 15 -20 24q-20 -6 -20 -28z" />
    <glyph glyph-name="w" unicode="w" horiz-adv-x="1469" 
d="M1203 964h8q86 0 104 -68l8 -48l-4 -60h24l4 -4h4l4 4v-4l4 4h24q28 0 120 28l8 -8q-42 -100 -80 -100q-50 -24 -104 -24h-20l-20 4q20 -100 36 -300q0 -155 -104 -220v-9h420v-159h-1664v159h252q-39 61 -53.5 91t-22.5 66t-8 68h-4l-339 -123v148l415 171l104 280
l24 36q176 -40 184 -48v-24l-120 -256q-24 -85 -24 -132q10 -148 72 -148l44 -12q76 0 108 48q60 68 60 156q24 63 24 344q6 17 20 24h4q18 0 212 -60l12 -16v-4l-83 -168q-51 -137 -51 -217q4 -117 54 -131q31 -13 56 -12h8q124 0 232 272q12 33 20 176q16 19 -36 44
q-28 47 -28 76v12l4 4l-4 4v4q3 60 12 60l-4 4v4q13 64 84 64zM1195 844q0 -25 32 -40q8 16 8 44q0 15 -20 24q-20 -6 -20 -28z" />
    <glyph glyph-name="x" unicode="x" horiz-adv-x="1096" 
d="M328 913q23 -13 80 -131l129 -161h8l221 293q16 0 207 -114l-319 -335l259 -306h440v-159h-1580v159h364l29 29l7 12l-5 14l-11 12l-20 12l-464 214l60 84l485 -218l36 1l29 28l126 137l-325 353q62 8 244 76zM533 348l-189 -189h365q-132 150 -176 189z" />
    <glyph glyph-name="y" unicode="y" horiz-adv-x="1301" 
d="M215 860h8v-4l88 4h112q65 0 84 -58q120 -336 152 -403l40 -4q33 15 144 169q167 229 200 263q0 7 280 33q40 -23 40 -54v-20q0 -26 -136 -169l-68 -82l-312 -366l4 -10h632v-159h-784l-340 -316l-24 -13h-8v4l-28 -4l-228 -4q-24 0 -24 58v74q0 37 92 37q192 20 192 49
l60 103l-4 12h-607l-20 4l-1 155h133q-21 19 -56 75v9q0 27 76 57q3 9 371 214q-40 148 -96 292v29zM-92 159h476q8 0 11 17l-56 164z" />
    <glyph glyph-name="z" unicode="z" horiz-adv-x="680" 
d="M338 900h44l156 -20l136 8q20 -24 20 -36l-412 -432q79 0 148 -32l116 36q20 -10 20 -32l-172 -233h320v-159h-956v159h137q19 0 63 53l412 420h-164l-396 -444h-52v84q138 142 552 608z" />
    <glyph glyph-name="braceleft" unicode="{" horiz-adv-x="432" 
d="M103 159h381v-159h-484v4q112 49 112 125z" />
    <glyph glyph-name="bar" unicode="|" horiz-adv-x="532" 
 />
    <glyph glyph-name="braceright" unicode="}" horiz-adv-x="519" 
d="M206 159q-2 -109 114 -155v-4h-483l-2 159h371z" />
    <glyph glyph-name="asciitilde" unicode="~" horiz-adv-x="1196" 
 />
    <glyph glyph-name="Adieresis" unicode="&#xc4;" horiz-adv-x="1784" 
d="M1116 1243l-1 -7l-1 -3q-47 -201 -123 -412l-3 -15q7 -25 20 -25l251 72q161 36 205 52q24 17 40 58q0 201 -92 314q-110 101 -209 133l-23 3h-7q-40 0 -40 -65l-16 -100q0 -1 -1 -5zM1478 749q-228 -25 -293 -54q-174 -59 -242 -98l-136 -264q-81 -120 -133 -175h726
l-168 115q-7 0 -18 48q0 20 139 149q48 49 128 174l43 93l1 7l-5 4l-4 1h-2h-36zM815 1847h12q47 0 65 -58q8 -20 8 -37q0 -47 -73 -88q-12 -7 -24 -7h-15q-36 0 -60 47q-8 0 -10 48q0 47 57 87q19 8 40 8zM1544 1847h29q33 0 76 -53q11 -23 11 -47v-5q0 -58 -58 -77l-42 -8
q-47 0 -92 77q-8 13 -8 26v8q0 48 50 71q0 8 34 8zM1104 1570h17q70 0 123 -36q117 -53 167 -97q73 -42 168 -162q108 -156 108 -201q42 -106 48 -155v-175q-44 -234 -53 -235l-1 -7l-89 -163q-13 -10 -118 -139l-54 -42h302l2 -158h-1227q-76 -71 -84 -71h-28q-36 0 -69 55
l-17 16h-304v3q88 32 97 130l-7 25h153q132 101 232 226q117 152 146 217q111 182 144 295q93 257 184 557q28 82 63 95q14 12 97 22z" />
    <glyph glyph-name="Aring" unicode="&#xc5;" horiz-adv-x="1421" 
d="M1299 1844h2h4h103l13 -8v-108v-228v-16v-76v-316v-16v-16v-68v-31v-32v-81v-4v-4v-44v-71v-25l1 -51l1 -29l-2 -38l1 -35v-47l-1 -51l2 -108l2 -113q4 -102 -220 -148l-56 -4l-40 4v-4l-44 8l-4 -4l-20 4h-20l-76 4q-130 0 -208 -88q-63 88 -148 88h-40l-280 -16l-12 4
l-4 -4q-79 0 -156 60q-84 86 -84 208l-2 160v1331q3 14 18 13h104h4h4h1152h4h2zM140 200q61 -67 205 -60l204 16q160 -26 160 -52q8 0 8 -12l4 -4h4q83 64 172 64h40l20 4l16 -4l136 -4q203 0 235 67q20 10 20 73v71l-1 231v43v38l-1 29l-3 119l1 220l1 37l-3 11l-1 172
l1 24l-1 45v416l-4 4h-4q-36 -36 -380 -480l-810 -1027zM257 1648v-12q0 -17 24 -52l4 -424v-16v-68v-60l1 -103l3 -129q-32 -50 -32 -76h4l176 4v4l-40 64l-4 92v180l-2 32l-2 31l-1 36l1 29q0 28 83 28h33h152q135 0 204 116q24 53 24 88h-4l4 4v4q0 158 -136 216
q-16 8 -44 8l-42 2h-29h-24h-27l-106 2l-11 -2l-21 2h-188zM401 1612h4h33h43h100q188 0 188 -196q0 -90 -84 -152q-41 -24 -104 -24l-164 4l-16 -4q-8 34 -8 276v9v11zM1213 432q56 -142 56 -160l-4 -4h-8q-11 0 -52 28l-48 -32l-4 4v4q29 160 52 160h8zM1085 428
q20 -35 20 -124v-24q-4 -12 -24 -12l-8 12v64l-8 8q-11 0 -20 -36h-12q-11 0 -20 36h-8q-8 -19 -12 -84l-4 -4h-20l-4 16l4 92l-4 4v4q7 44 20 44h12l36 -36q33 40 52 40zM693 420q12 0 24 -72l28 -80q-4 -12 -24 -12l-32 32l-52 -32l-8 8q11 58 52 156h12zM837 420
q51 0 72 -32v-20l-8 -8h-4q-30 20 -44 20q-32 -9 -32 -28q0 -41 28 -60q12 0 36 16q13 -4 16 -16q-17 -36 -48 -36q-68 15 -68 60v24q0 53 52 80zM1201 344v-20h8l8 8l-4 12h-12zM685 332v-12l8 -8l4 4v8l-8 8h-4z" />
    <glyph glyph-name="Ccedilla" unicode="&#xc7;" horiz-adv-x="1479" 
d="M736 1732l708 -412q15 -12 28 -12v-896q-22 0 -172 -95l-536 -317l-132 64l-404 216l-228 120v892q11 0 80 48q557 341 652 392h4zM100 1227v-677v-50v27v-45v-22q11 -12 368 -208l290 -152l542 324l76 45l1 763q-31 28 -93 64q-484 296 -532 312l-12 4q-19 0 -184 -104z
M744 1440h8q0 -30 36 -88q1 -32 284 -180q135 -74 196 -132q32 -41 32 -84v-24l4 -4v-4l-4 -4h4l-4 -4v-32q0 -94 -148 -176l-66 -8h-30l-31 12q-84 34 -193 92l-4 4h-24l4 -180v-44l-8 -8h-96v232h-12q-15 -2 -132 -68q-78 -56 -152 -56q-48 3 -124 48q-80 77 -80 168
q0 140 152 216l336 208q49 65 52 116zM300 912q0 -67 84 -120l48 -8q26 0 220 124q48 18 48 48l-4 24l4 4l-4 20v20l4 20h-4l4 4l-4 20v24l4 20h-4l4 12v31l-4 25v8q0 8 -12 8l-356 -216q-28 -19 -28 -68zM804 1196v-260l260 -140h24q81 0 112 96v12q0 68 -44 96l-344 196
h-8zM388 500h68q31 0 36 -16v-20q0 -16 -60 -16q0 -12 20 -12v-16h-64v16q20 0 20 20v16q0 11 -20 12v16zM500 500h64v-16q-20 0 -20 -24t16 -24l4 -4v-4h4q0 8 12 8l44 64h16q40 -64 52 -64v-16h-60v16h12v8h-40v-8h12v-16h-44l-4 4l-4 -4h-64v16q20 0 20 20v16
q0 11 -20 12v16zM732 500h4l44 -4l16 4v-32h-16q0 20 -28 20q-25 0 -28 -32q8 -24 32 -24l12 4v8l-16 4v12h60v-8q-16 -10 -16 -32h-12l-8 8l-24 -8h-20q-36 5 -36 36v8q5 36 36 36zM856 500h4l44 -4l16 4v-32h-8q-21 20 -32 20q-32 -5 -32 -28q0 -28 40 -28l4 4v8
q-12 0 -12 8v8h56v-8q-16 -12 -16 -32h-12l-8 8l-24 -8h-20q-36 5 -36 36v8q5 36 36 36zM948 500h64v-16q-20 0 -20 -8v-32q0 -8 20 -8v-16h-64v16q16 0 16 8v32q0 8 -16 8v16zM1064 500h32q44 -8 44 -40v-4q0 -40 -60 -40q-60 5 -60 44q0 32 44 40zM436 484v-20h16l8 8v4
l-8 8h-16zM1052 468v-16q10 -20 32 -20q17 6 24 20v16l-16 16h-24zM616 460h16l-4 12z" />
    <glyph glyph-name="Eacute" unicode="&#xc9;" horiz-adv-x="1477" 
d="M764 1611l28 1h28q176 0 360 -108l124 -88q133 -147 174 -231q44 -87 51 -126q15 -35 36 -137q3 -22 3 -38v-24q0 -80 -16 -196l-2 -15q-10 -64 -34 -133l-72 -140q-162 -248 -440 -340q-107 -36 -224 -36q-175 8 -333 76q-80 34 -230 172q-123 152 -141 197
q-65 113 -76 267v160q0 140 76 284q42 94 152 228l104 84q173 109 328 132zM92 808l4 -4h20q8 0 24 144q29 161 140 296q50 62 112 108q180 132 388 132q333 0 540 -300q108 -171 108 -372v-40l12 -12h12l8 8v56q0 262 -188 476q-123 116 -172 132q-154 84 -304 84h-9h-8h-7
q-193 0 -380 -124q-180 -125 -256 -340q-44 -110 -44 -244zM484 1296q0 -15 120 -56q211 -105 376 -156q17 0 64 40l20 4q76 2 136 -32q5 -9 42 -25l6 -11q0 -15 -72 -80h-4l-44 20h-28q-1 -11 -216 -224l-48 -52q0 -8 -60 -60l-68 -72q-228 -232 -236 -232l-4 4l160 316
q74 126 144 276v12q0 7 -132 136q0 8 -168 180q-88 -34 -180 -196q-64 -130 -64 -252q0 -245 152 -412q108 -111 200 -140q108 -40 192 -40q228 0 396 160q168 172 168 428q0 235 -204 432l-48 36q-140 92 -316 92q-131 0 -284 -92v-4zM1120 1084v0v0v1v-1v0zM1174 1085v0v0
v0v0v0zM1136 1053l19 -18l15 -10l21 13l-2 16l-28 19zM52 612l8 -20l22 2l22 10l12 -4v-16l-28 -36q0 -10 28 -16v4l4 -4h4l24 4l8 -20l-44 -36q8 -18 16 -20q17 0 56 36q72 49 72 56q-9 8 -48 8q-44 9 -44 20l44 72v8l-4 4h-4q-23 -12 -140 -36zM1316 560l24 -8l16 16h16
q81 -36 100 -36l8 24v12q-108 37 -108 52q0 28 -24 28q-6 -1 -32 -88zM1304 536l-36 -60v-20l8 -8h4l20 16l104 -60h4l20 24q0 17 -104 64l-4 4v4l4 24zM148 424q0 -23 44 -72h4l20 16l-20 32l-5 13q9 15 28 17l5 -2q25 -28 36 -28l8 12l-16 24l-7 15l11 13l14 4
q16 -11 30 -32h8l8 8q0 17 -40 64h-12zM1224 416v-16l112 -92h4q20 12 20 28l-116 88h-4zM280 312h-8l-24 20q-18 -8 -20 -16q0 -23 36 -44h16q56 0 56 92l4 4h12l24 -12l8 16q-20 36 -56 36q-32 0 -32 -80zM1176 348l8 -32h-4l8 -48l-4 -12h-16l-76 28v-12l60 -116l4 -4h12
l8 8v16q-12 15 -12 28v4q0 8 12 8l44 -20l4 4v16l-4 40l16 8l32 -28q17 6 24 20q0 7 -108 100zM376 248v-4q0 -9 -20 -12l-24 16h-4l-16 -16q11 -40 48 -40h4q52 0 52 92l12 12l32 -8q8 0 8 12q-23 40 -56 40q-34 0 -36 -92zM496 288q-43 -64 -76 -140l64 -40l16 12l6 11
q-42 24 -44 29q8 24 21 26l33 -18l12 12v8l-33 25q8 27 19 31l42 -20l8 12v8q-26 25 -68 44zM1024 256v-12l12 -40q-10 -24 -36 -24h-8q-17 52 -24 52q-22 0 -28 -20q50 -135 56 -136l28 8v4l-16 60q15 12 28 12h12q12 0 24 -48l4 -4h8l20 16q-40 122 -56 140h-16zM553 91
l-1 -5l24 -6q12 0 16 29l20 -4q9 -45 44 -45v8q0 13 -12 28v16q40 33 40 56v20q-29 48 -80 48h-8q-7 0 -43 -145zM808 132q0 -71 84 -80q48 4 44 23q-10 21 -21 17l-27 -4q-44 9 -44 44v8q0 40 60 48l4 4v16l-12 12q-88 -11 -88 -76v-12zM712 172q0 -27 32 -68l4 -12
q0 -14 -48 -24v-16l20 -4h20q38 0 44 48l-36 72q0 15 36 20v12l-28 8h-4q-40 -5 -40 -36zM628 204q24 -8 24 -32q-13 -28 -29 -24l-15 8v20q0 22 20 28z" />
    <glyph glyph-name="Ntilde" unicode="&#xd1;" horiz-adv-x="2257" 
d="M1148 1720h44q256 0 472 -128l96 -60q105 24 244 40l44 4l60 4l128 -4q-161 -176 -168 -176l-148 -8l-12 -4v-12q114 -142 160 -360q16 -83 16 -128q-6 -220 -24 -220l4 -4v-4q-48 -167 -128 -284q-121 -164 -272 -256l-88 -44q-106 -44 -220 -64l-60 -8h-72
q-124 0 -328 68q-87 35 -192 104q-72 49 -184 176l-16 12q-171 -52 -280 -52h-20l-76 20q-128 64 -128 104v4l68 -4q118 0 220 88q92 84 92 100q-40 118 -40 240q0 292 196 556l84 84q173 148 364 192q37 12 164 24zM456 852h-4q19 -128 28 -128q327 340 344 340
q84 72 144 112q19 24 148 104l216 116q127 56 244 88l32 8v4q-16 30 -192 88q-92 24 -152 28l-54 3l-82 -3q-92 -3 -272 -80q-80 -44 -152 -104q-248 -230 -248 -576zM1344 1104q104 44 212 44l44 2q98 2 184 -90q44 -67 44 -128v-12q0 -90 -92 -248l-36 -48
q-73 -107 -192 -184q-156 -91 -224 -96q0 -8 -88 -20l-128 -4q-42 5 -136 52q-68 58 -68 68v8h4l68 -12h64q134 0 264 148l108 112q88 89 88 160v20q0 79 -124 112l-68 4q-72 0 -160 -112l-296 -304q-40 -53 -192 -148l-12 -12q112 -133 172 -164q129 -94 304 -128l40 -8
l61 -5l23 1h12l100 4l28 4l20 4q128 32 197 67l39 21l104 80q109 96 160 184q104 183 104 348v92q0 28 -8 28l4 4v4q-28 171 -96 284q-49 84 -96 120q-43 0 -228 -88l-92 -56q-111 -83 -112 -100v-8z" />
    <glyph glyph-name="Odieresis" unicode="&#xd6;" horiz-adv-x="1593" 
d="M928 1512h68q125 0 236 -152q75 -106 84 -188q12 -22 12 -44q7 -36 32 -36q74 20 156 112q15 40 80 40q67 16 116 16l8 -12q-45 -149 -192 -280q-87 -61 -107.5 -74t-48.5 -22q-44 -6 -44 -28q-32 -195 -84 -300q-23 -79 -128 -232l-16 -40v-12q96 -100 192 -100l31 -1
h412l1 -159h-1736v4q112 55 112 132l-12 23h267q48 -3 61 21v4l-68 132q-34 46 -56 336v28q0 440 300 700q211 132 324 132zM892 1164q0 -56 36 -88.5t148 -51.5h8q79 -24 36 72q-28 86 -92 116l-64 4q-36 0 -64 -32zM572 588q0 -162 124 -248l64 -8q146 0 276 256
q48 110 53 134l29 117q-48 4 -170 49l-4 4h-4q-44 26 -144 132q-21 28 -52 28h-12q-62 0 -96 -128q-64 -221 -64 -336zM496 1731h15q57 0 79 -71q10 -24 10 -45q0 -57 -89 -107q-15 -8 -29 -8h-18q-44 0 -73 57q-10 0 -12 58q0 57 69 106q23 10 48 10zM1196 1831h15
q57 0 79 -71q10 -24 10 -45q0 -57 -89 -107q-15 -8 -29 -8h-18q-44 0 -73 57q-10 0 -12 58q0 57 69 106q23 10 48 10z" />
    <glyph glyph-name="Udieresis" unicode="&#xdc;" horiz-adv-x="1815" 
d="M980 1602q-106 -196 -232 -468q0 -14 -94 -215q-78 -210 -78 -232l-13 -81v-18q0 -73 56 -111q65 -48 176 -48h13q123 0 241 125q111 156 171 344q35 85 164 601l8 34l4 5h9q38 -13 176 -26h47q159 0 258 43l13 -5q-202 -376 -331 -751q-107 -277 -107 -314v-13
q27 -119 90 -154l64 -17h13l129 38h4q8 -1 111 -181h481l1 -158h-2701v4q121 62 118 132l-9 22h541q-84 83 -139 168q-34 64 -34 168l4 69q13 159 288 794q29 54 81 215h5q38 -13 115 -13h91q249 17 249 39zM1188 168h154q-57 49 -57 64h-9zM811 1854h15q57 0 79 -71
q10 -24 10 -45q0 -57 -89 -107q-15 -8 -29 -8h-18q-44 0 -73 57q-10 0 -12 58q0 57 69 106q23 10 48 10zM1596 1831h15q57 0 79 -71q10 -24 10 -45q0 -57 -89 -107q-15 -8 -29 -8h-18q-44 0 -73 57q-10 0 -12 58q0 57 69 106q23 10 48 10z" />
    <glyph glyph-name="aacute" unicode="&#xe1;" horiz-adv-x="4237" 
d="M288 1572q15 0 32 -76q27 -72 144 -152q8 0 8 -12l-56 -64q-144 -148 -148 -204q-12 -19 -24 -108v-120q12 -115 108 -256q114 -140 140 -140l4 4q-8 44 -8 136v20q19 241 72 376l68 152q53 89 88 128h16q65 -76 104 -92v-8q0 -19 -72 -88q-127 -145 -168 -336
q-12 -25 -16 -72q-16 -54 -20 -144l4 -12h4q192 196 192 208l-4 12q0 138 140 228q72 32 116 32h20q65 0 132 -36q26 -17 36 -32q-161 -309 -172 -348h16q51 5 112 64l280 460l4 4h4q144 0 248 -136q4 -24 20 -24q108 67 108 108q24 144 40 144l52 12h16l12 -12v-12l-4 -20
l4 -4h4q33 57 120 84h64q56 0 132 -76l20 -48h20q52 24 52 76q36 97 132 140l48 12l29 3l23 1q65 -5 144 -60l8 24v24q0 64 32 64l84 24h8l12 -12l-32 -336q0 -40 32 -60h4q23 0 52 28h12l32 -48q25 -20 48 -20q37 0 256 60v12h-8l-28 -4l-8 16l40 76q22 52 72 52
q20 -7 20 -20l-24 -336l12 -8l108 32v8q-48 16 -48 32q15 60 44 60q18 -13 92 -20q40 0 76 52l4 16v12q-12 40 -84 40q-46 -4 -80 -16h-4l-20 4v4l8 140v4q0 36 72 36l120 36h4l20 -4v-24l4 -16q0 -36 -64 -36l-80 -24q-12 -10 -12 -24v-12l4 -4v-4l52 12h72q96 -22 96 -92
q0 -52 -52 -124l4 -4q75 16 148 40v4q-68 61 -68 156v8q0 161 124 212l28 4h16q102 0 144 -120l16 -8l120 28l8 -12q11 -57 -43 -70q-81 -18 -95 -26q-6 -67 -38 -124v-8l108 23l5 -11q3 -80 -37 -80l-588 -132q-311 -80 -352 -84l-12 16q0 68 44 68q0 6 36 8q16 0 16 40
q6 0 12 92l4 4l-4 12h-16q-284 -80 -640 -160q-71 -20 -88 -21q-21 -10 -112 -27q-149 -40 -188 -44l-160 -44q-192 -48 -214 -58q-21 -189 -30 -190q-62 -37 -144 -68h-4l-8 12q0 26 36 188l8 27l-20 -6q-57 -15 -256 -73l-188 -56q-30 -12 -75 -24l-117 -36
q-163 -64 -272 -96q-360 -128 -496 -196q-37 -22 -164 -72l-8 8v4l56 112q62 163 76 180q95 30 200 56v4q-2 7 -144 88q-104 86 -196 208q-93 150 -112 300l-4 40v12q0 318 288 560zM3852 1108q0 -72 48 -96h40q64 34 64 148q-12 80 -60 80h-20q-62 0 -72 -132zM2504 1116
v-68q22 -64 100 -64q82 0 108 128v20q-18 96 -96 96q-96 -27 -96 -76q-16 -18 -16 -36zM1936 956v-20q0 -50 72 -72h20q53 0 112 96q16 45 16 80q0 34 -48 64l-32 12q-71 0 -124 -100zM2156 772v-4l200 48l136 32v8q-70 15 -132 100l-24 64q-51 0 -56 -76q0 -53 -96 -152
q-28 -10 -28 -20zM1192 544l4 -4l200 48q68 12 68 20q-92 33 -92 72v16q70 120 76 120h16q59 -48 92 -48q68 15 68 68v16q-24 76 -80 108q-34 20 -48 20h-8q-39 -44 -144 -220q-80 -135 -152 -216zM2660 888h8l92 20q0 20 -32 40zM1660 660l4 -4v-4q84 12 84 52l32 152
q-48 -11 -48 -48q0 -82 -72 -148zM876 696q13 -96 64 -96l104 204l-28 16h-44q-39 0 -88 -72zM1876 708l4 -4h8l92 20v4l-68 36l-16 20h-4q-12 0 -16 -76zM596 400l4 -4h12l332 80l14 3l2 9q-72 0 -168 116h-8z" />
    <glyph glyph-name="agrave" unicode="&#xe0;" horiz-adv-x="4883" 
d="M412 1712q12 0 28 -40l76 -100l80 -80v-4q-8 -17 -124 -100l-84 -104q-100 -177 -100 -216q-29 -102 -16 -240q24 -176 92 -304l60 -92h12q14 12 24 128q12 32 28 148q6 6 20 92q44 156 104 272q132 211 200 224h4l132 -120q0 -21 -44 -44q-176 -186 -204 -264
q-53 -88 -148 -396l8 -8h4q82 111 128 188v56q0 56 52 148q62 75 140 104l48 12h64q52 0 168 -56v-8l-124 -364v-8l8 -8h4q65 22 108 92q32 73 140 420q12 32 24 32q93 0 188 -40q83 -56 108 -116h12q80 104 80 180v48q0 28 44 28q11 10 40 12l12 -8l-4 -20v-24l8 -8h8
q34 71 100 108l56 16h36q45 0 136 -48q53 -57 76 -112l4 -4q13 0 84 116q16 57 140 144l76 16h40q94 0 172 -72h4l8 8v52q0 56 36 56l64 12l12 -12v-124q-12 -50 -24 -352q7 -20 24 -20q27 11 60 40h4q13 0 52 -36q27 -17 92 -24q168 24 168 44q0 36 16 104q179 56 276 76
l36 16l12 -12h4l-24 -96q-168 -42 -208 -64v-12l-4 -68l16 -4q33 16 64 16q180 0 208 -116l4 -36v-8q0 -93 -76 -180v-4l8 -8l252 68v8q-89 67 -92 100q-52 78 -52 172q0 149 116 264q101 52 156 52q136 0 220 -136q24 -60 24 -136q0 -134 -80 -232v-8h8q154 44 176 44l4 -4
v-8q-43 -120 -76 -120l-360 -104q-20 -1 -20 -12q5 -10 72 -40l8 -12v-4q-72 -115 -80 -116h-8q-34 28 -64 28h-24q-80 -21 -80 -88q0 -59 88 -88h24q81 0 156 88l12 84q26 70 108 124l60 16h40q49 0 116 -44l8 -16l-80 -116h-8q-37 32 -68 32h-16q-59 0 -76 -80v-8
q15 -84 108 -84q73 0 160 84q22 14 88 204q10 12 24 12h32l8 -8v-28h4q60 44 120 44q42 0 72 -56h20q45 44 104 44h12q58 0 80 -64v-28l-84 -260l-4 -4h-72l-8 8v8l56 180v4q-4 48 -40 48h-4q-89 0 -140 -220l-8 -24l-4 -4h-80l-4 20q60 151 60 196q0 40 -48 44
q-79 0 -132 -220q-7 0 -8 -28l-8 -8l-48 4h-8l-4 -4l-16 8l4 28l-4 4h-4q-59 -39 -128 -44h-16q-70 9 -100 32l-48 52h-16q-90 -76 -164 -76h-36q-89 0 -144 88q-24 43 -24 88q7 71 52 128v4l-8 8l-532 -152l-4 4q4 76 20 144l164 44v12q-79 30 -104 76q0 19 52 84h4
q69 -68 148 -68q128 26 128 124l4 24q0 69 -104 92h-40q-47 0 -136 -48l-4 4v4l4 44q0 10 -16 12q-692 -208 -1132 -304q-223 -56 -248 -68l-4 -4v-4l4 -76q0 -29 -76 -36l-96 -24q-16 2 -16 36l8 56h-4l-16 4q-87 -36 -280 -72l-624 -172q-487 -128 -636 -160l-4 4v4
q35 188 60 188l232 52v24q-210 104 -328 408q-52 157 -52 248l4 36l-4 28q20 188 72 308q84 160 140 232q135 147 172 160q0 7 28 20zM2468 1064v-16q3 -51 36 -100q50 -28 72 -28q55 8 92 48q28 33 40 100q-12 70 -40 104q-44 44 -80 44h-8q-70 0 -104 -96zM3804 928v-72
q33 -144 128 -144q87 0 140 144l8 32v76q-15 73 -48 96q-23 28 -80 28q-112 0 -148 -160zM1812 920v-48q0 -42 56 -104l44 -16h28q56 0 100 88l8 48v12q0 81 -44 116q0 21 -72 36q-91 0 -120 -132zM2256 976v-76q-25 -103 -72 -156q-24 -47 -60 -56l-8 -12v-12h16
q49 3 188 40l144 36v8l-76 44q-104 77 -104 184l-12 12h-4zM1144 440v-8l12 -4l196 48v8q0 6 -68 32l-4 16l72 204l4 4h4l44 -12h20q56 0 80 80v16q0 61 -84 116h-16q-10 0 -36 -88l-92 -256q-42 -106 -108 -140q-24 -9 -24 -16zM1528 536v-16h8l132 36l28 300l-4 4h-4
q-40 -14 -40 -108q0 -82 -64 -172zM2644 788v-12h8v-4q21 12 120 36l4 4v4l-52 44zM848 644q0 -58 64 -92h8q17 0 40 92l20 44v4q0 24 -32 24v4q-100 -13 -100 -76zM1824 648l-4 -32l4 -16h8q20 0 72 20v8l-72 20h-8zM724 560q-36 -63 -108 -156q-64 -89 -64 -104l4 -4h8
l188 44l228 52v8q0 5 -60 20q-113 44 -160 112q-19 28 -36 28z" />
    <glyph glyph-name="acircumflex" unicode="&#xe2;" horiz-adv-x="3334" 
d="M348 1592q6 0 20 -88q17 -70 96 -148q13 0 48 -36q-177 -115 -232 -280q-36 -86 -36 -164v-32q0 -250 216 -428l20 -12q8 20 8 72v12l-4 4l4 4v4q0 334 232 688l36 36h12l60 -68q52 -36 52 -44q-78 -55 -164 -168q-126 -188 -156 -416v-64h8l192 180l16 8q0 210 204 264
l44 8l4 -4h4l12 4q99 0 212 -72v-4l-212 -344v-8h8v-4q96 20 144 68q77 93 264 368q58 80 68 80q84 -19 188 -112l56 -80h4q140 82 140 128q28 123 40 132l84 16l4 -4v-12l-16 -48v-8h8q77 76 164 88h12q116 0 160 -96q8 0 8 -36q8 0 8 -12l4 -4h8q80 49 80 84
q74 144 240 144q78 0 156 -76q8 0 24 100q0 21 136 32v-8h4l-68 -364q12 -48 40 -48q41 0 48 32h8q71 -56 164 -56q42 -51 84 -60v-8q-545 -108 -1060 -224l-340 -76q-23 -152 -32 -152q-33 -8 -164 -68h-12v4q0 20 48 176l-4 4h-4l-544 -116l-1028 -224l-144 -40v4l-24 -12
h-8v4q0 7 80 56q102 90 124 196q0 28 12 28l244 44v12q-236 88 -364 312q-88 165 -88 348q0 178 116 372q87 124 196 192zM2604 904q0 -72 68 -100l32 -8h8q89 0 136 120l8 32v28q0 71 -96 104q-104 0 -144 -116zM2012 824v-16q0 -92 100 -92q63 16 100 68q35 55 40 96
q0 81 -48 104l-44 12q-51 -8 -108 -60q-40 -65 -40 -112zM1552 900l-144 -200q-103 -153 -168 -224l8 -8l244 40l4 4v4q-78 36 -92 56v8l104 144h4q47 -60 88 -60h24q45 0 68 68v4q0 94 -124 160zM2264 644l4 -4h4l308 52v4l-56 32l-52 72q-20 47 -28 88l-4 4
q-60 -31 -60 -60q-18 -87 -80 -152zM2804 740v-4l4 -4v-4q76 10 76 20l-36 44zM1708 556q0 -12 16 -12q27 15 80 20q20 38 64 208v4h-12q-72 -44 -72 -72q0 -80 -76 -148zM876 644q0 -78 68 -124h12q21 13 100 152q36 39 36 60q-35 32 -84 32q-89 0 -128 -108zM1960 672
l-12 -76l4 -4h12l58 8l20 3l6 1v12q-72 30 -72 56h-16zM1716 644v0v1v-1l-1 1h-2zM1500 608v1v0v0v0v0v0v-1zM588 368v-12h4l372 64l4 4l-21 4q-87 42 -147 140h-4l-144 -136zM3200 532q104 -19 104 -112v-52q-4 -46 -60 -140q-63 -76 -160 -76q-54 0 -100 60l-12 64
q0 76 84 188q64 64 124 64h16zM3036 312v-32q34 -72 76 -72h16q81 0 116 156v16q-10 104 -88 104q-62 0 -108 -108q-11 -17 -12 -64zM2880 464h12v-8q-33 -72 -52 -72l-56 -4h-40q-26 0 -44 -48l4 -4h4l64 12q100 -10 100 -76v-4q0 -95 -128 -148q-34 -12 -72 -12
q-55 0 -96 48v4q19 22 56 40h12q0 -32 36 -52h24q60 0 88 72l4 44q0 32 -64 44l-96 -28h-8v4l32 72q28 64 40 64q180 33 180 52zM2528 368l16 -4v-4q-71 -148 -124 -292h-16l-72 -12v8h-4q65 99 88 156l-4 4h-4q-19 -12 -72 -12v8q0 6 60 40q79 59 104 104zM2216 136l8 -8
q-22 -76 -28 -76l-268 -48v4l-24 -8v8q27 21 112 48z" />
    <glyph glyph-name="adieresis" unicode="&#xe4;" horiz-adv-x="1002" 
d="M806 930h112l28 -8v-21q-98 -257 -136 -427h-4l-12 -120q0 -127 36 -127l16 -4l36 4h24q8 0 56 -63l17 -5h63v-159h-1211l-1 159h341l7 5q0 46 -56 71q-76 87 -76 217l-211 -69l-4 4v123q3 9 263 116l40 65v4l56 67q8 14 148 111q110 32 140 32h32q171 0 208 -66l16 -12
q33 77 72 103zM342 492q0 -73 40 -112q24 -40 84 -40h24q94 36 168 148l12 92q0 63 -88 112h-56q-59 0 -104 -60q-80 -79 -80 -140zM514 156h80v4l-8 40zM252 1231h15q57 0 79 -71q10 -24 10 -45q0 -57 -89 -107q-15 -8 -29 -8h-18q-44 0 -73 57q-10 0 -12 58q0 57 69 106
q23 10 48 10zM725 1275h14q52 0 72 -64q9 -23 9 -42q0 -52 -81 -98q-14 -8 -27 -8h-17q-40 0 -67 53q-8 0 -11 53q0 53 64 97q21 9 44 9z" />
    <glyph glyph-name="atilde" unicode="&#xe3;" horiz-adv-x="4000" 
d="M148 1200q12 0 20 -64q40 -56 72 -56l8 -24q-64 -24 -104 -120q-4 -39 -16 -52v-28q0 -90 8 -132q33 -98 48 -104l64 -76l68 -40v108l3 45l5 34l12 57l28 100l60 136q10 4 24 48q21 40 36 48h4l48 -96q-118 -202 -132.5 -261.5t-27.5 -122.5l-4 -4v-28l8 -8h8l122 115
l-2 29v32q0 25 40 88q40 64 124 76q38 0 100 -32q16 -2 16 -12v-20q-132 -207 -132 -224v-8h4q83 0 112 56q13 0 40 72q96 176 96 192q7 6 12 52l12 8q61 -27 124 -120l12 -24q10 0 52 48q12 0 20 20l4 4q28 15 28 40q0 20 8 20l-4 12l4 12l-4 4q7 0 12 20l48 12q8 -8 8 -36
q87 72 96 69l25 1l27 -2q0 -12 16 -12q43 -30 60 -80h12q72 65 72 88q59 80 140 80h28q19 0 44 -28l12 -4q8 40 32 40q0 9 36 16q11 0 20 -20q-8 0 -12 -40l-24 -156q16 -20 64 -20q21 24 44 24q0 -6 28 -20h28q57 0 76 16q77 -15 80 -28v-4l-92 -28l-112 -36l-144 -40
l-148 -48h-4l-308 -100l-108 -32q0 -6 -32 -16q0 -56 -36 -56q-7 -13 -48 -28v-4q-11 3 -20 20l-4 28l-236 -68l-24 -8l-103 -36l-133 -40l-108 -36l-48 -12l-160 -52l-120 -40l-76 -32h-8v16q50 51 76 140l128 28l32 8l8 12v8l-120 48q-102 67 -152 160q-32 61 -44 132
l-4 48v28l8 60q7 32 16 60l16 44l24 48q24 53 84 108zM1596 996l-8 -28q18 -72 76 -80q33 0 76 52l16 76q-9 49 -44 72l-40 4q-19 -5 -60 -52zM1236 876l8 -32l44 -40h20q52 9 52 24q19 18 36 76q0 68 -56 92h-12q-55 0 -92 -120zM1508 936q-40 -29 -40 -72l-4 -24
q-64 -80 -88 -80v-12l220 64l4 4q0 14 -32 24q0 12 -12 12q-25 29 -44 84h-4zM1724 856h4q37 0 68 16v16l-20 20h-4q-18 -9 -48 -52zM760 580h4l112 28q24 0 24 12v8q-12 43 -12 84q8 8 52 12q38 24 60 80v4q-11 59 -36 80h-4q-29 -29 -92 -160q-41 -87 -108 -148zM996 652
v-8h4l92 24q32 0 32 24q6 56 12 80l16 56q0 8 -12 8q-76 -52 -76 -80q-21 -57 -68 -104zM564 728v-20q0 -58 28 -76h4q37 40 52 84l48 68v8q0 12 -40 12q-38 -5 -68 -28zM1216 784l-12 -64h4l-4 -4v-4l4 -12l108 28v4q0 12 -52 12l-44 40h-4zM1864 788l1899 -1l37 -4
q30 -11 80 -39l24 -16q64 -69 64 -136v-48q-45 -116 -82 -135q-52 -36 -123 -48l-1975 -1q-88 2 -159 40q-55 48 -77 136l-5 39l5 37q21 71 56 102.5t80 53.5l16 4zM2320 740q-340 -1 -340 -28q-22 0 -80 -72q-52 -73 -96 -120l-32 -8l-20 4l-12 -16v-4l32 -32h16
q74 0 112 68q64 72 88 72l12 -20q-9 -68 -60 -68q-24 0 -24 -12v-12q0 -28 32 -28h20q25 0 72 36q52 67 52 112q-19 36 -44 36l-12 -4v4l-44 -8l-4 4v4q0 41 104 56h32h104l208 4l8 -8v-16q-15 0 -56 -40q-52 0 -52 -32l16 -8v-20q-75 -123 -112 -144v-4l-4 4h-4
q-24 -2 -24 -12v-8q4 -12 24 -12h24q33 0 84 48q25 26 56 80l52 68l32 8l8 -12v-16l-60 -92l-24 -36q-24 -24 -48 -28l-4 -4v-4q0 -14 36 -24l68 32q10 1 36 48l68 100q14 26 32 32h8l16 -16v-4l-4 -4v-4h4l-60 -100l4 -12h32h24q40 39 68 108q12 20 36 20h8v-24
q-56 -83 -56 -96l12 -4q77 0 92 68q44 61 56 68v4h8l8 -8v-16q-28 -40 -44 -80q13 -36 44 -36h16l56 16q0 10 32 16l16 -20h24l28 -4q0 7 52 20q0 -16 20 -28l24 4l48 20q0 16 8 16l-12 20v12l48 76h4q1 -20 12 -20l12 8l8 -8v-12l-56 -76l-8 -28l8 -8q72 0 92 60
q20 45 44 68q16 -4 16 -24l-36 -68q0 -30 36 -40q40 0 72 40v8q0 8 -24 16v12q44 69 44 80q-5 17 -20 24h-32l-40 -20l-32 24h-20l-56 -20l-12 -12h-4q-8 0 -8 20h-40q-29 0 -32 -12q-10 8 -76 12q-64 -25 -64 -32q-16 -9 -64 -76l-24 -8h-8v8h-4q6 25 36 80v8q-6 36 -32 36
l-68 -16h-12l-12 8h-40q-21 0 -36 -12h-20l-56 12l-16 -4q-28 3 -28 12q15 40 107 40h153h112h68h176h40h88h48h168h28h76l8 -8h24q35 0 48 36q-12 12 -88 12h-40h-108h-36h-76h-20h-76h-96h-20h-64h-40h-24h-24h-8h-188h-112h-28h-244h-104h-40zM2570 700l10 -4
q-35 -48 -64 -48l-16 -4l-8 24q15 4 40 28zM2084 532v-36q15 -26 32 -32l48 4q98 24 132 80l20 48v16q0 35 -72 40l-84 -28q-63 -53 -76 -92zM3440 600h24v-16q-10 -36 -48 -92l12 -12h40q23 12 80 104l16 12h8l8 -8v-16l-36 -60v-20q8 -16 20 -16q78 0 104 40v8
q0 10 -32 16v4q44 55 44 72v12l-28 20l-68 -16h-20l-40 16q-62 -15 -80 -28zM520 616q-43 -48 -92 -80l-64 -64v-4q21 0 44 8l52 16l100 28l20 4q32 10 52 12l8 16q-38 6 -108 64h-12zM3072 604h20l8 -8h-4l4 -4q-13 -60 -60 -60h-4q-12 4 -12 24zM2212 600h28v-20
q0 -36 -56 -68h-8l-16 16v8q10 31 52 64z" />
    <glyph glyph-name="aring" unicode="&#xe5;" horiz-adv-x="8902" 
d="M16 1748h8856q0 -16 16 -16v-1716q-16 0 -16 -16h-8856q0 16 -16 16v1716q16 0 16 16zM140 1584v-108v-1192v-108h8532v1408h-8532zM292 1464h8252l12 -12v-1144l-12 -12h-8252q-24 0 -24 24v1120q0 24 24 24zM7212 960v-8l-4 -124q14 -23 32 -120q0 -24 148 -164
q126 -64 268 -76l128 -8q310 0 400 88q48 20 148 132q52 105 52 156l8 76q-23 165 -76 232l-164 132l-272 72l-108 4l-24 -4l-28 4l-180 -32q-1 -6 -64 -28q-171 -79 -232 -216q-18 -27 -32 -116zM5052 952v-8q0 -205 80 -296q84 -128 156 -128q0 -18 196 -48l84 -4
q136 0 284 68h8q17 0 60 -44l76 -4h88q32 0 32 28l12 120v40q35 64 76 64q72 13 72 40q-6 144 -24 144l-68 4l-264 4l-260 -8l-12 -16v-116q0 -31 20 -40h52q80 -16 80 -52q0 -28 -96 -64l-52 -16h-8l-72 24q0 8 -60 20q-108 84 -108 144q-16 55 -16 100v8q4 77 68 156
q82 80 176 80l12 4v4l28 -4h16l16 4q105 -24 140 -44q50 -23 92 -112l16 -16h144q20 9 20 40v20l-4 44l16 56l-4 88q0 16 -8 16l4 20v20q-9 20 -40 20l-108 -4q-32 -52 -64.5 -52t-147.5 48l-112 24l-124 8q-36 0 -96 -12t-140 -56q-114 -48 -196 -180q-40 -105 -40 -136z
M3696 968v-36l-8 -64l20 -112q65 -143 148 -208l64 -28l140 -52h104l56 -8l124 8q0 16 68 28q0 14 96 40h8q44 -56 60 -56l124 4h44q10 0 28 68l-4 40q0 128 40 128q12 10 104 32q16 32 16 52v44q0 68 -32 68q-144 8 -332 8l-244 -4q-32 -11 -32 -20l4 -136q0 -16 120 -24
q24 -17 32 -44q-17 -26 -68 -56q0 -11 -60 -16h-20q-96 0 -160 64q-96 37 -96 204l-4 48q60 152 112 179.5t156 40.5h32l124 -36q74 -34 116 -124q14 -20 56 -20l120 4q16 18 16 80v108l-4 120q-16 12 -44 12l-60 -4l-44 4l-44 -44l-28 -8q-58 24 -124 32q0 17 -116 28
q-31 16 -64 16h-128l-112 -28q-161 -68 -188 -124q-72 -41 -108 -180zM6436 1232q0 -104 36 -104q112 -12 112 -84l8 -36l-8 -148l4 -84q-9 -112 -108 -112q-52 -4 -52 -40l4 -112q0 -16 16 -24l236 -8l308 4q56 0 56 40v104q0 36 -64 36q-55 0 -92 72l4 76v20l-8 76l8 60
l-4 56q21 80 56 80q0 11 100 28l8 12v40l8 84q0 44 -44 44h-144l-380 4q-60 0 -60 -68v-16zM732 1284h-240q-12 -168 12 -168q152 0 152 -116l-8 -44l4 -56l-4 -60l4 -92q-22 -96 -96 -96l-84 -28q0 -148 32 -148h600l16 20v108q0 26 -28 40h-52q-96 0 -96 120q6 20 28 20
h172l44 -8h36q200 19 246 77t46 167v44q0 65 -76 164q-55 43 -112 52q0 8 -48 12l-184 4zM2356 604q0 -136 32 -136h428q60 0 60 44l-4 116q-15 11 -88 28q-32 27 -32 48q1 21 16 32l28 -4h292q28 0 28 -28q-20 -60 -112 -60l-16 -44v-92q0 -22 20 -32h56q35 -3 36 -12
l500 12q16 17 16 40l8 88q0 48 -68 48q-63 29 -100 76q-40 62 -80 156q-66 73 -116 196q-27 30 -84 148q-36 64 -84 64q-220 4 -220 -24l-212 -360q-73 -126 -120 -184q-46 -53 -124 -80q-56 -6 -56 -36zM1644 1284l-16 -24l-4 -64q0 -80 44 -80q108 -11 108 -108l4 -16
l-8 -32l4 -144v-36q0 -122 -108 -136h-24q-24 -10 -24 -32v-56q0 -80 24 -80l80 -8l112 4h88l100 -4l40 4l160 -4q14 0 20 44v12l-4 20l8 8v36q0 60 -60 60q-64 16 -88 52q-20 41 -20 76l4 112l-4 24l8 32v12l-4 16l4 16v24l-4 16q0 46 88 88h48q8 0 24 32v100q0 31 -16 36
l-148 4h-272h-4zM7756 1192q201 0 260 -100q26 -7 68 -148l-4 -20v-12q0 -153 -100 -236q-99 -48 -128 -48h-92q-83 0 -180 84q-22 23 -64 180v48q0 28 56 148q87 84 120 84q0 12 64 20zM964 1112h120q92 0 108 -40l8 -36q-16 -80 -68 -80h-40l-4 -4l-4 4h-12l-96 -4
q-31 0 -36 52q4 108 24 108zM2940 1024q49 -100 76 -132q-2 -12 -32 -12h-116l-12 12q30 27 64 112z" />
    <glyph glyph-name="ccedilla" unicode="&#xe7;" horiz-adv-x="1447" 
d="M1411 1847q15 -3 15 -23v-1584q-2 -125 -242 -160h-16l-220 8q-139 0 -208 -84l-4 -4h-4q-46 92 -180 92l-256 -20q-193 0 -252 132q-32 64 -44 126v1505l3 8l8 4h1400zM132 196q60 -56 196 -56q93 0 216 16q172 -24 172 -68h12q68 64 192 64l180 -4q182 -4 224 44
q37 39 37 65l-1 1439l-4 52h-8l-472 -596zM260 1652l-4 -4v-16q0 -14 24 -52l8 -788q-32 -61 -32 -80v-4h84l88 4l4 -4l8 8q-44 60 -44 76l-4 84v280l-4 24q0 28 104 28h36l76 -4q280 0 280 232q0 138 -140 204l-60 8h-116h-268zM400 1612l40 -4l128 4q149 0 188 -104
l12 -72q0 -133 -108 -184l-68 -12l-168 4h-24v4l-4 304zM492 436h12q56 0 56 -44v-8q0 -41 -60 -48h-16v-64h-20v160zM592 436h20v-164h-20v164zM688 436h24l56 -164h-24q-11 52 -20 52h-56l-12 -52h-20v4zM868 436l40 -4l-4 -20l-36 8q-68 -8 -68 -68t72 -64l20 4v48h-32
v16h52v-76l-52 -8q-80 0 -80 88q0 52 72 76h16zM1024 436l40 -4l-4 -20l-36 8q-68 -8 -68 -68t72 -64l20 4v48h-32v16h52v-76l-52 -8q-80 0 -80 88q0 52 72 76h16zM1104 436h20v-164h-20v164zM1224 436q63 0 72 -80v-4q-11 -80 -76 -80q-72 10 -72 80v4q11 80 76 80z
M484 420v-68h20q36 0 36 32v16q-10 20 -32 20h-24zM1168 352q9 -64 52 -64h4q45 0 52 68q-9 64 -52 64h-4q-45 0 -52 -68zM696 416l-20 -76h48q-22 76 -28 76z" />
    <glyph glyph-name="eacute" unicode="&#xe9;" horiz-adv-x="2253" 
d="M16 1620h2204q24 0 24 -24v-8v-96v-12v-12v-40v-52v-36v-12v-8v-8v-8v-4v-92v-292v-8v-32v-8l-1 -860l-11 -8h-2208q-21 0 -20 12v344v4v1248zM36 1580v-1140h1652h8h4h44h128h8h288h44v1140l-8 8h-2160zM982 1508h82h4v4l4 -4h200l4 -20v-276q0 -24 -24 -36h-112l-12 -8
h-8l-12 8h-80q-47 0 -56 24v300zM1004 1204v-4l20 -4h92v-8h12l12 8h104l12 12v216v36v20h-4zM1012 1472l8 -12v-36q0 -87 -8 -128h40l-4 20v56l8 8h28q29 0 52 32v28q-15 32 -52 32h-4v-4q28 0 32 -52q-12 -28 -36 -28h-24v76l4 4v4h-44zM624 1468q49 -113 104 -176v-12
q-98 -32 -156 -128q-52 -88 -52 -216q0 -83 44 -204h8q24 186 84 288q67 108 164 160q49 -56 60 -56v-12l-84 -64q-116 -115 -160 -256v-8q7 0 68 68q17 26 32 80q48 80 112 80h16q63 0 112 -52v-4l-88 -184v-4h32q25 0 104 176l52 92h4q68 0 140 -96h8q0 8 36 40
q11 76 24 76h24l10 -2l-2 -14v-8h4q55 36 88 40h16q50 0 100 -76l4 -20q20 0 84 84q53 36 84 36q58 0 104 -48h8q7 56 36 56h24l8 -8l-48 -228l12 -12h4l28 8q36 -39 76 -44l28 -40l-228 -24q-392 -44 -468 -64q0 -58 -24 -68l-60 -24h-4l-8 8l12 72q-357 -56 -804 -152
q-81 -20 -112 -20l-4 4v8q29 112 40 112l204 40v4q-148 181 -148 380v4q0 252 248 408zM1076 1256h40l-4 -4v-8l16 12l4 -4l20 4h8v-8h4v8h40l-4 -4v-4l4 -4v-4h-36l-4 4l-4 -4h-60l4 4v8h-4q0 -12 -20 -12h-4l4 4v4l-4 4v4zM1212 1256h12l8 -8l-8 -8h-12l-8 8zM1648 936
q6 -64 56 -64q54 0 64 88q-7 64 -52 64q-68 -10 -68 -88zM1312 888q0 -60 68 -60q56 18 56 84q0 72 -60 72q-46 0 -64 -56v-40zM980 744v-4l56 4v8q-12 0 -12 12q21 58 52 96l32 -8q48 4 48 44q0 44 -52 76q-10 -1 -88 -168zM1472 792l152 12q-72 46 -72 100v16h-4
q-8 0 -28 -72zM1232 884v-12q0 -58 -40 -104v-4h4q36 0 36 76q12 30 12 56zM808 852v-12q0 -22 28 -44q40 60 40 84l-24 8h-4q-40 -5 -40 -36zM1752 816h32v8l-12 12zM728 812q0 -8 -104 -112v-12l208 32q-59 41 -96 92h-8zM1296 788v-4l8 -8h4l8 8q-12 0 -12 12zM392 340
q0 -46 76 -80l4 -4v-12l-24 -20l-40 16h-4l-8 -4v-12q0 -44 44 -44h16q88 0 88 60v12q0 31 -76 72l-4 4v16l8 8h16q18 0 44 -24v8v44q0 15 -56 24h-16q-54 0 -68 -64zM596 392v-72v-108v-4v-24l4 -4h156v24v4v16h-76q-7 0 -12 20q5 28 12 28h72v44h-72l-8 8v28l8 8h68h7
l1 20l-1 20h-151zM812 400l-4 -20v-124v-24v-4v-20v-8v-12l12 -12h20q43 -1 44 12v76l8 8q34 0 68 -92l12 -4h48h4h7q-17 54 -55 108v4q24 14 24 48v8q0 56 -120 56h-68zM1040 400l-4 -4l96 -216l16 -4q43 -5 60 32l68 192h-56q-14 -12 -44 -104l-12 -4l-48 104l-4 4h-4h-48
h-20zM1316 392v-204l8 -8h68v212l-8 8h-60zM1436 284q0 -44 36 -80q30 -32 96 -32q40 0 64 20v48h-4l-44 -16h-12q-60 13 -60 60v12q0 43 60 52l60 -16v56q-38 12 -68 12h-4q-97 0 -124 -96v-20zM1692 400v-104v-20v-4v-44v-48h152l8 8v28l-8 8h-72l-8 8v28l8 8h68l8 8v32
l-8 8h-68l-8 8v24q4 12 8 12h32h8h4l36 2v14v4v4l-1 16h-3h-156zM892 368h16q7 0 24 -28q0 -28 -32 -40l-16 12v48zM36 140v-96v-12h1612h564v108h-155h-101h-4h-92h-8h-60h-288h-17h-39h-4h-4h-8h-8h-18h-6h-18h-34h-20h-12h-9h-14h-85h-42h-30h-27h-33h-8h-24h-1008z" />
    <glyph glyph-name="egrave" unicode="&#xe8;" horiz-adv-x="1759" 
d="M876 1736q214 -12 278 -36q71 -23 230 -115q142 -106 244 -255q18 -15 56 -114q44 -109 66 -261l3 -25l3 -66q-16 -281 -156 -492l-105 -119q-125 -111 -199 -145q-109 -65 -287 -99l-93 -9h-68q-98 0 -284 60q-124 40 -296 184q-121 127 -196 296q-72 165 -68 308v35
l1 87q2 151 95 322q33 71 148 184q140 130 244 168q207 92 384 92zM783 1718l-83 -14q-69 -12 -200 -67q-128 -52 -280 -204l-65 -76q-110 -164 -128 -307q-9 -8 -12 -198q-3 -272 220 -552q40 -53 173 -148q143 -92 303 -122q70 -15 117 -18l50 -1q257 1 490 153
q144 103 249 264l43 80q80 196 80 376v8q-15 161 -36 224l-57 164l-9 15l-23 35q-13 11 -88 107l-85 86q-81 67 -222 137q-56 24 -91 35q-119 24 -266 29zM856 1700q84 0 252 -36q158 -59 227 -107q47 -25 173 -149q96 -130 96 -140q53 -98 73 -180q18 -69 35 -208
q-5 -101 -20 -192q-33 -116 -84 -216q-51 -99 -180 -224q-152 -143 -420 -196l-92 -12q-337 0 -576 196q-300 268 -300 636q0 231 136 460q58 71 152 168q184 151 448 192zM80 868q14 -208 40 -208h1516q21 17 32 184v44q1 245 -176 476q-134 146 -212 180
q-195 112 -404 112h-24q-163 0 -380 -108q-221 -144 -300 -316q-92 -175 -92 -364zM772 1572h200l12 -12v-200l-4 -4v-4l4 -4l-16 -12h-68q-20 -1 -20 -8l-32 8h-80l-4 20v156l-4 44zM788 1544v-144h8l8 8v36l4 20l-4 24v44l4 4v4l-4 4h-16zM840 1544v-4l20 -24v-12
q0 -19 -28 -36h8q40 0 40 48q-12 28 -36 28h-4zM784 1352v-4h180l8 8v188h-4zM472 1452q16 -71 68 -124v-8q0 -7 -48 -20q-58 -27 -116 -92q-64 -85 -64 -152v-56q12 -109 36 -124q83 250 240 340h20q0 -14 44 -64q0 -7 -60 -28q-126 -77 -192 -236h4q92 74 92 116
q49 68 120 68q54 0 96 -44l-92 -156l4 -4h4q51 0 120 136l44 72h4q82 -23 112 -80l12 -16q48 27 48 72l4 4q0 12 8 12h36q0 -12 8 -12q27 17 64 20q68 0 96 -72l4 -24h4q87 84 128 84l28 4q37 -5 84 -44h4q8 44 32 44h24q12 0 12 -16q-44 -105 -64 -180q12 -16 44 -16
q20 -36 48 -36l24 4q8 0 24 -28q15 -12 28 -12h24v-4l-8 -8h-108l-4 -4l-4 4l-60 -4l-488 -8q-8 -9 -8 -28q0 -32 -40 -32l-44 -20h-16v4l20 64v8l-56 -4l-4 4l-28 -4h-4l-628 -16v-4l-12 4v4q41 35 48 72h100l8 8q-92 130 -92 252v24q0 210 248 352zM808 1008
q-93 -184 -140 -184l-4 -4v-8h80v12l-16 4v4q0 15 44 80l4 4h4l28 -4q44 18 44 44q0 44 -40 52h-4zM1284 932q13 -44 44 -44h8q52 0 52 68v8q-17 32 -44 32h-8q-41 0 -52 -64zM996 932v-8q7 -40 40 -40h24q36 13 36 68q0 12 -16 24q0 10 -36 16q-41 0 -48 -60zM544 932v-16
l20 -24h4q6 0 36 52v8q-4 12 -24 12h-12q-24 -10 -24 -32zM840 816v-4h36q25 0 32 44l24 76h-8q-11 0 -28 -60zM1096 816v-4h156v8q-48 34 -48 92v20h-4q-12 0 -60 -84zM392 820v-8h184v4q0 6 -44 28q-40 49 -40 64h-8zM972 836l-4 -4v-12l8 -8h28v4q-10 13 -32 20z
M1348 820v-4l4 -4v-4l28 4h20v4q-6 16 -28 16zM312 560v-4q0 -36 72 -64q16 -17 16 -32q-10 -32 -40 -32h-4q0 8 -12 8q-8 24 -20 24q-18 -8 -20 -16q0 -41 68 -48h4q60 20 60 64v8q0 44 -88 80l-4 4v16q7 16 28 16l24 -16q18 8 20 16v4q-16 28 -56 28q-48 -13 -48 -56z
M468 608l4 -4v-32l-4 -168l12 -8h116l8 8v16l-8 8h-88q-12 4 -12 24v20l4 20h64l8 8v16l-20 4h-52v8h-4l4 28v28l12 4l24 -4l4 4h4l16 -4h4l4 4l4 -4h20l12 12v12l-8 8h-116zM644 612v-208l8 -8h16l4 12l-4 12l4 44v24l20 4q13 0 44 -88l12 -8h16l8 8l-32 84v12q21 0 36 52
q0 52 -72 64l-16 -4h-8l-24 4zM800 608q48 -212 64 -212h12q28 0 28 48q16 35 44 164v4l-12 4q-22 0 -32 -68l-24 -84h-12q-35 152 -48 152h-4zM1072 604v-8l12 -12l64 4l8 -8l-80 -172v-4l8 -8h112l8 8v16l-8 8h-20l-44 -4l-12 8l84 176l-4 4h-76l-36 4zM996 612l-4 -160
v-48l8 -8h16l8 8v180l4 16l-4 12h-28zM1256 612v-140l-4 -64l4 -12h24l8 8v180l4 20l-12 8h-24zM1336 520v-16l-4 -4l4 -4v-28q0 -60 48 -72h8q60 7 60 60v100q-13 56 -52 56h-12q-52 0 -52 -92zM1396 588q26 0 32 -36v-88q0 -40 -32 -40q-36 0 -36 40v88q5 36 36 36z
M680 584h28q27 0 36 -28q-5 -36 -36 -36h-28l-12 8l4 4v44zM284 344q133 -134 232 -176q181 -84 340 -84h20q339 0 584 256v4h-1176z" />
    <glyph glyph-name="ecircumflex" unicode="&#xea;" horiz-adv-x="2441" 
d="M2200 1712l4 -4h4l-8 -52l-68 4q-23 0 -60 -20v-24q0 -45 144 -64q68 -25 68 -88v-12q0 -24 -16 -72v-8h8l32 16l4 -4l4 24l-4 12q0 20 36 20q8 -16 20 -16l20 8l16 -20l-264 -140l-372 -200q-291 -155 -552 -308q-41 -29 -216 -124l-4 -16l8 -48q-4 -15 -40 -44l-24 -28
h-8v88h-12l-276 -168l-192 -116q-60 -32 -196 -124l-64 -35l-13 -5l-3 4l29 79l-5 53q109 54 120 68l-96 28l-112 80q-112 124 -112 276q0 136 84 236q28 -67 80 -88l20 -8q-76 -94 -76 -196v-4l4 -48q24 -86 52 -124q52 -65 84 -82.5t52 -17.5l8 8q-20 65 -28 160v40v8
l4 44q20 115 60 192q10 31 24 40q21 -44 64 -44v-4q-71 -61 -112 -244l-4 -52v-28q9 -99 28 -124l84 140q-16 28 -16 76q0 39 36 76q32 40 84 40q80 -6 84 -32q-20 -52 -48 -188l4 -4h4l4 4q49 0 96 224l32 108h8q95 0 124 -52l4 -4l12 -8q45 60 64 100v24l-4 4q5 48 24 48
h8l4 -32h8q0 51 92 88h20l36 -16q22 -17 48 -52h4q25 17 52 124q32 54 100 76l20 4h8q39 -11 52 -24l8 16l-4 44q0 10 36 24q14 -204 24 -204q4 -12 24 -12q36 7 36 44q17 -16 32 -16q66 0 192 76q52 21 56 32q0 8 -24 8q-55 25 -80 76q-16 40 -24 100q0 118 108 216
q68 44 128 44v-92l4 -4l-4 -12h-20l-4 -4h-4v4q-59 0 -108 -88q-13 -23 -20 -92q0 -78 76 -108l4 4l4 -4h8q21 0 24 12v68q0 8 -12 8l-24 -8v32q4 11 56 32l16 12h4v-116l4 -28l40 12v24l-4 4q5 24 36 24q12 -20 24 -20q47 22 88 52l-8 8h-44q-21 0 -24 12v84l84 -8l4 4v-4
l36 12l4 -4q0 7 44 32q24 30 24 44q0 48 -80 56q-100 29 -100 80v28q0 47 88 80zM1264 996q16 -56 52 -56h24q35 0 52 48l4 36q0 72 -56 76q-76 -13 -76 -92v-12zM968 844q11 -68 32 -69q8 -11 36 -11h16q45 39 48 80h-4l4 4v4q-9 88 -64 88q-58 0 -68 -80v-16zM1165 891
l-1 -27q-13 -55 -32 -84v-4l16 4l144 80v8q-57 0 -92 72h-4zM868 740l8 -40l-16 -72l4 -4h4l56 32l4 12l-4 36v40v4v52l-4 4v4q-17 -5 -52 -68zM640 516l4 -4q90 39 128 72q-48 5 -64 16l24 84l36 -8q48 10 48 48q0 46 -68 76h-16q-13 0 -48 -164q-21 -73 -44 -120z
M1728 744q141 0 260 -100q116 -125 116 -272l-4 -72q-26 -107 -84 -168q-63 -81 -160 -112q-39 -16 -72 -16h-52h-8h-28q-121 0 -248 140q-57 86 -72 160l-4 32h4l-4 4v32l4 64q26 119 108 204q98 86 208 100zM980 736q3 -44 12 -44l47 30l-11 2zM1560 648
q-104 -86 -135 -179l-13 -69v-32l4 -40h16l8 12v36l4 68q44 128 136 188q70 44 156 44q165 0 272 -168l12 -20l12 8v12q-54 94 -112 132q-57 40 -116 52l-28 4l-64 4q-96 -14 -143 -48zM452 584q10 -80 72 -80h4q28 105 28 128l-32 12q-48 0 -72 -60zM1484 376
q0 -152 140 -232q65 -28 80 -28h8h32l66 8l39 16l33 20l30 24l31 33l19 34l18 37l9 36l3 44q0 99 -76 184q-81 76 -196 76q-121 -23 -168 -84q-68 -86 -68 -168zM1612 576h4l104 -44l116 -40q19 24 40 24q36 0 76 -36q-4 -24 -12 -24l-48 4l-184 -184q-86 -100 -104 -100
l-4 4v4l128 256v8q-107 111 -116 128zM448 504l-52 -80q-20 -33 -20 -48v-4h8l144 76l24 16l-72 12zM1916 488v-12l8 -8h12l-4 20h-16zM2036 376v-24l8 -8h12l8 8v12l-16 16zM1996 264l12 -8l12 8l48 -12l4 16l-49 21l3 18l-13 3zM1404 276v-4l8 -8l20 4l-12 -20l3 -9l21 -7
l-12 -16l8 -12l54 40l-5 10l-33 6l16 28l-7 12zM1968 212l13 -12l11 12l38 -26l12 19l-38 27q0 24 1 18l-13 6zM1496 232l-52 -40v-4l28 -32h4l7 10l-11 14l5 5l14 -10l9 9l-11 16l7 8l20 -16h4l8 8l-24 32h-8zM1959 200l-6 -12l52 -37l11 13l-48 36h-9zM1512 164l4 -24
l-4 -4q-16 4 -16 16l-12 -12v-4q10 -20 32 -20h4q12 4 12 24v28h4l12 -8h8v12l-16 16h-12q-16 -8 -16 -24zM1928 172v-36l-4 -4l-24 4h-12v-4l32 -56h8v8h4l-12 28v4l28 -12l7 7l-7 29l24 -20h4l8 8v4q-40 40 -56 40zM1548 132q1 -20 8 -20l-4 -12h-4l-12 12l-12 -4v-4
q11 -24 28 -24q20 6 20 28l-4 28h4l12 -8l8 8v4l-16 16h-4q-24 0 -24 -24zM1600 132l-24 -68v-4l36 -12l7 12l-19 8v12l25 -6l5 15l-18 7l4 12l20 -4l4 4v8q0 10 -32 16h-8zM1860 120l4 -20l-24 -8l-4 16l-11 -3l-5 -5q16 -60 24 -60l15 8l-7 24l24 8l12 -20h8l8 8l-31 58z
M1636 56h4l-4 -4v-12l8 -8h4q8 0 8 16l4 4h4q10 -28 16 -28h4l4 4h4l-8 24q16 7 16 28l-4 4v4h4q0 13 -36 24q-15 0 -28 -56zM1760 84v-24q0 -29 27 -36q33 4 33 16l-8 12l-16 -8q-16 6 -16 12v16l12 12l12 -4l4 4v12l-8 8h-8h-8q-17 -4 -24 -20zM1712 80v-16q0 -8 24 -16
v-12h-24l-4 -12l12 -8h12q24 0 24 20q-4 28 -24 28v12h8l4 -4h4l4 12l-4 12h-20zM1668 88h12v-20h-8l-12 12z" />
    <glyph glyph-name="edieresis" unicode="&#xeb;" horiz-adv-x="7787" 
d="M6620 1472h148l40 -4v4l4 -4h4q115 0 208 -28h4l16 4l196 -64q0 -12 52 -32l24 -16q41 -33 76 -88q10 0 40 -52l24 -80l4 -416q0 -56 36 -56q32 11 40 28q8 208 52 208q144 0 144 -36l-4 -180l-4 -12l4 -4q0 -165 -92 -220q-51 -53 -144 -68q-52 -28 -144 -28h-40
q-169 21 -220 60l-40 36q-9 0 -68 64l-4 4h-4q-197 -132 -280 -132q0 -7 -56 -20l-24 4l-100 -4q-133 8 -200 36q-112 56 -168 124q-44 120 -44 168l4 12l-4 4v4q23 118 84 188q2 12 168 84q0 5 72 16q12 10 12 20h-4q-167 0 -236 104q-20 42 -20 96q0 117 172 212
q97 40 272 64zM2404 1464q53 -4 72 -12v4l4 -4h60l124 -36q18 0 112 -64q64 -46 100 -96q8 0 36 -40l60 -96q6 0 24 -72q8 0 20 -80l-4 -120q-10 -20 -32 -20h-760q-26 0 -36 -20v-16q26 -92 56 -92q19 -20 100 -60l124 -16v4l4 -4h4q131 0 240 116q23 32 48 32h164
q56 0 68 -24q0 -35 -68 -144l-128 -116q-159 -84 -200 -84q0 -21 -220 -36l-4 4l-40 -4h-16q-142 0 -284 36q0 8 -80 24q-33 32 -96 56q-61 48 -64 68l-52 52q0 11 -32 52q-52 133 -52 204v16l-4 4l4 4v4l-4 20l4 20l-4 16q10 25 20 104l44 128l-4 4h-4q-30 -16 -96 -20
q-44 -16 -104 -60q-39 -10 -236 -332l-144 -220q-95 -148 -116 -148l-300 -4l-72 48l-420 664l-72 44l-56 20v-4l-4 4h-36q-52 0 -52 32v8v184h4l-4 4v4q0 23 40 32l828 4q44 -7 44 -20l-4 -200h4q0 -43 -76 -48q-60 -30 -60 -64v-24l144 -216l20 -16h12q44 22 140 208
q4 79 -64 116q-52 4 -52 24l-12 212q21 28 382.5 28t361.5 -28v-40l8 -156h16q17 7 108 104l152 88q132 40 168 40l48 12zM3676 1448q304 -3 304 -12l4 4h4q17 -20 208 -20h108q40 0 48 -36l-20 -296q-16 -24 -48 -24h-84l-24 4l-16 -4q-21 0 -44 48h-8q0 12 -32 32
q-30 40 -80 64q0 10 -156 36l-52 4q-160 -15 -160 -72q27 -44 96 -44q68 -20 224 -48l140 -40l160 -60q12 0 12 -12q92 -74 92 -80q36 -58 36 -108l-4 -4v-4l4 -4v-4l-4 -64v-16q-6 -59 -48 -124l-104 -100q0 -8 -76 -32q-62 -48 -112 -48l-100 -24l-96 -4l-4 4l-76 -8
l-76 8h-52l-144 20l-180 4v4l-4 -4l-28 4h-128q-22 0 -32 20v280q0 36 32 36l188 -4h28q9 0 48 -68q87 -39 112 -60q36 -20 144 -40q180 8 196 52l8 16q0 56 -84 56l-320 48h-32l-88 24q0 8 -40 12q-36 0 -104 84q-51 39 -80 144l4 4q-6 58 -12 60q19 156 40 156
q0 28 124 148l108 48q54 28 280 44zM5468 1440q121 0 272 -56q51 -22 112 -80l20 -12v4q8 0 28 -36q12 -1 72 -96q44 -63 64 -200l8 -88q0 -56 -48 -192q-30 -33 -48 -84q-76 -94 -104 -108q-156 -124 -332 -124l-72 -4q-122 20 -192 68q-68 36 -68 44h-16l-16 -12l4 -4
l-4 -20v-40q7 -26 52 -64q74 -32 132 -32l4 4h4q40 0 40 -40l4 -204q0 -52 -64 -52l-812 -8l-16 -4q-44 0 -44 64l4 232l20 16h28q128 15 128 52q28 40 28 68l8 532q0 135 -96 156q-37 16 -56 16l-40 -4q-27 8 -32 24v232q0 23 52 32l4 -4l592 4q40 0 40 -48l8 -36h8l116 60
q109 44 208 44zM1716 924l8 -24q-2 -36 -8 -36l24 -100v-20q18 0 64 -92l40 -44q0 -13 44 -32q0 -15 36 -28q0 -20 52 -28q53 -32 204 -52l100 -12l16 4l76 -4h36l144 16q131 45 180 76q116 79 116 124v8h-4l-24 8q-46 0 -92 -52q-84 -77 -200 -92l-52 -8l-60 4h-44
q-15 0 -144 56q-33 16 -60 72q-88 80 -88 184q-7 0 -8 20v8q0 36 32 36l800 -4q36 13 36 32q0 63 -48 140l-28 48q-61 133 -236 204q-61 20 -128 28l-12 4v4l-4 -4h-4l-44 8l-4 -4h-4l-20 4l-12 -4l-24 4l-236 -20q-19 -14 -80 -24q-64 -28 -112 -40q-22 -39 -72 -56
q-69 -57 -100 -132q-36 -36 -56 -180zM6272 1184q29 -68 44 -72q9 -10 104 -24q120 13 120 112q-32 43 -32 56q0 37 212 72l28 -4h96q69 0 160 -60q52 -65 52 -112l4 -40q0 -44 -68 -120q-82 -56 -164 -56q-27 -12 -76 -12l-12 4l-264 -28q-189 -38 -224 -92
q-44 -19 -68 -84q-8 0 -12 -60q0 -71 60 -132l68 -52q52 -28 92 -28v-8h8q50 -12 164 -16q179 0 312 104l108 92h8l68 -92q0 -7 36 -36q45 -44 88 -44q0 -8 52 -20l4 4l96 -12q138 0 256 68q40 33 40 108l-4 16h-16q-33 -84 -124 -84q-36 0 -100 44q-28 61 -28 96l4 28l-4 4
v4q8 55 8 140h4l-4 4v32l4 12l-4 20v104q0 137 -76 216q-47 30 -72 56q-31 23 -140 44l-32 16q-174 16 -210 22l-178 2h-44l-152 -20l-108 -32q-84 -53 -84 -140zM3216 1100v-24q0 -124 56 -180q0 -31 84 -48q0 -17 160 -40l356 -60q41 -27 76 -36q0 -8 28 -36l8 -64l-4 -4
v-4l4 -4v-4q0 -54 -108 -84q-51 -44 -160 -44h-64q-127 20 -188 64q-58 23 -92 72q0 18 -32 24h-36l-48 8q-40 -11 -40 -40v-80q0 -32 32 -32h88q40 -1 40 -8l20 4q141 -24 252 -28v-4l4 4h4l140 -8h12l108 8h44q158 30 196 68q81 32 104 84q44 84 44 136q-14 76 -24 76
q-31 80 -72 80q-66 40 -180 68q-73 32 -140 32q-22 20 -208 52q-144 41 -144 92l-4 4v4q0 102 76 136l80 36l68 12q217 -17 264 -52q88 -48 100 -48q63 -72 88 -72h12q28 0 28 56l4 100l-24 8h-56l-20 4l-20 -4q-152 4 -152 20l-4 -4q-121 8 -144 16h-52l-112 4l-224 -28
l-96 -44q-64 -19 -96 -84q-20 -36 -36 -104zM1200 1344l-4 4l-20 -4h-80q-36 0 -44 -48v-20q0 -18 72 -48q0 -12 12 -12l32 -40q12 -26 12 -56v-40q-6 -69 -88 -196q-10 0 -12 -16l-152 -188q-38 86 -124 192q-33 74 -68 116l-36 88l-4 36q0 97 104 152q16 80 -12 80h-656
v-4l-4 4h-4q-44 -8 -44 -40q0 -56 84 -56l84 -44q0 -11 44 -44q19 -45 48 -80q350 -584 388 -584l220 -4q62 0 125.5 105.5l214.5 350.5l136 208q29 52 176 104q9 11 12 40l-4 12l4 4v4q-5 32 -16 32q-48 -2 -48 -8l-4 4h-100l-4 -4l-4 4h-20l-32 -4l-64 8zM5044 1124l-12 4
v44l4 20l-4 24v76q0 34 -32 40h-4l-432 -8l-12 -12h-4l-4 -68q0 -13 52 -24q63 -19 132 -112q5 -24 12 -24l4 -616q0 -149 -60 -180q-61 -56 -96 -56q-56 0 -56 -56l-4 -20q7 -36 32 -36l36 -12l636 4q56 0 56 44l4 36q0 28 -64 28l-80 36l-44 40q-44 63 -44 108v236l36 32
q-68 103 -68 240v40q46 172 72 172q71 92 180 92q150 -10 160 -44q120 -77 120 -144q16 0 20 -108l-4 -100q-33 -107 -76 -148q-109 -80 -208 -80h-36l-96 24h-4l-8 -8v-8q1 -18 72 -48q52 -38 96 -48q0 -16 140 -40h68q110 0 232 72q112 95 152 184q19 30 44 144v44l4 36
l-8 32l4 16q-36 117 -88 176q-68 91 -160 124q-82 48 -212 48l-20 4q-99 -8 -196 -44q-40 -28 -112 -60l-108 -112zM2348 1308q144 -16 144 -40q62 -32 76 -64q27 0 56 -112l12 -76q-548 -28 -548 4h-4q0 90 84 180q63 92 128 92q3 9 52 16zM6496 1000l4 -4l280 28l24 -4
l116 24q56 40 56 92q0 62 -72 88l-164 12q-103 -10 -112 -32q-16 0 -16 -60q0 -38 -52 -104zM2196 1112q0 -28 40 -28h264q31 0 40 20q-61 84 -76 84q-16 31 -100 32q-96 4 -156 -76zM5112 944l4 -36l-8 -44q23 -68 56 -108q0 -28 108 -64h28q118 0 164 92q40 40 40 120h-4
l4 4q0 88 -88 180q-41 28 -100 28q-75 0 -156 -56q-14 -34 -36 -64zM7036 976h16l12 -12v-12q-4 -174 -40 -224q-106 -156 -272 -156h-44q-128 30 -128 76q-10 11 -12 40v32q0 51 52 108q63 45 188 72zM6660 732v-28q12 0 12 -16q43 -20 60 -20h68q38 0 136 64q44 64 44 96
v20l-8 12l-192 -52q-120 -26 -120 -76z" />
    <glyph glyph-name="iacute" unicode="&#xed;" horiz-adv-x="4131" 
d="M381 1556h8l40 -100q33 -58 116 -128l-64 -68q-148 -178 -148 -388q0 -247 184 -440q20 -20 32 -20v24l-4 4v4h4l-4 4v4l-4 88q0 296 180 536q76 89 116 124v4h8q10 0 32 -80l4 -12q28 -39 28 -56q-67 -55 -112 -124q-152 -224 -152 -476q14 0 220 192v16q0 84 76 176
q78 78 180 92v-4l4 4h28l4 -4h4l4 4v-4l4 4h4q93 -13 160 -68l8 -24l-88 -140l-124 -196v-4l16 -8v4l12 -4q45 0 72 56l216 264l132 156q141 0 224 -140q0 -13 20 -32l-4 -4v-4l4 -12q21 0 96 52q56 187 68 192l24 8v-4l64 16l16 -4v-24h4q76 44 140 44q72 -9 120 -56
q40 -46 48 -92l4 -4h4q44 21 44 36l28 52q41 63 104 88l60 20v-4l4 4h52l4 -4h4v4q71 -11 124 -56h4q15 84 48 84l60 4l4 -4v-4l-76 -376q0 -23 28 -28l48 8q0 -36 72 -36l184 24l4 -4l68 12h12l4 20v12l-12 4l-24 -4h-8q0 17 72 100q13 28 36 28h8l28 -12l-36 -320l28 -8v4
l4 -4h40l4 4l4 -4h8q7 0 16 52q27 60 164 164q21 24 28 48q-5 52 -40 52q-25 0 -76 -44q-36 9 -36 20q35 80 144 80h4q84 -24 84 -84v-12q0 -39 -44 -84q-10 -17 -100 -72q-59 -54 -60 -64v-4h4l128 24v-4l4 4h12l8 -8v-36h4q112 13 112 24q-28 12 -40 32q0 33 48 48h4
q0 -26 64 -40q63 0 84 80v20q0 52 -52 52h-4q-33 -2 -72 -24h-8l-12 8q12 29 32 144q0 16 152 32q0 8 24 8l4 -4v-4q-5 -64 -28 -64q-112 0 -112 -36v-20h4l48 4l12 -4l12 4q42 0 84 -56l8 -24h-4l4 -12q0 -56 -40 -96v-8l88 8v-8q-30 -84 -44 -84l-92 -12v4l-204 -28l-4 4
h-4l-20 -8v4l-140 -20v4l-472 -76l-8 24l4 4v44l76 20l4 -4h4l68 20l4 12h-4l8 16l-4 4l8 76h-16l-156 -28v4q-13 -8 -160 -20l-4 -4v4q-831 -120 -1012 -152q-31 -176 -52 -176l-116 -12l-8 12l40 152l-4 4q-510 -88 -916 -200q-415 -112 -748 -228h-8l-8 8q16 44 120 220
q20 64 60 64q35 0 188 32v16q-14 0 -68 52q-204 150 -276 312q-56 151 -56 208l-4 16v52l-4 4l4 12l-4 4q0 135 84 308q48 96 144 184zM2561 852v-8q0 -93 92 -120l4 4h16l4 -4q69 0 108 84h-8v4q24 19 24 72q0 60 -68 104l-44 12q-81 0 -124 -104zM2149 956q-3 -8 -52 -24
q-62 -57 -72 -88q-20 -39 -20 -64v-32q0 -73 104 -92q40 4 40 12l4 -4h4q69 39 100 116q11 0 16 56v28q-24 92 -124 92zM1281 460l12 -8q19 8 180 24l4 4h4v4q-40 34 -40 52l108 132q0 -13 60 -32h28q24 0 64 48q0 28 8 28q0 76 -92 132h-24q-135 -151 -312 -376v-8z
M965 644q8 -66 28 -96q32 -28 44 -28l140 224l4 12q0 24 -72 32q-83 -21 -120 -72zM2273 600l4 -4v-4l260 36v4q-84 77 -84 108q-7 0 -12 44l-4 4h-16q-52 -23 -52 -32q-35 -95 -96 -156zM1741 528l8 -8l80 16l8 16h-4l28 80v4h-4q12 21 12 40v4h-4q-44 0 -64 -72
q-14 -31 -60 -80zM1965 556v-4q48 2 48 8l4 -4h4l16 4v8q-29 9 -56 32h-4q-12 0 -12 -44zM725 380l4 -4v-4l252 40v4q-80 78 -88 112h-4q-126 -106 -164 -148z" />
    <glyph glyph-name="igrave" unicode="&#xec;" horiz-adv-x="5371" 
d="M233 1448q15 0 20 -60q9 0 20 -64q11 0 16 -28h-4q28 -65 44 -80q0 -27 32 -56l94 -93l-34 -28q-42 -49 -60 -87q-32 -49 -36 -76q-24 0 -36 -176v-32q22 -196 40 -196q0 -18 60 -128l40 -52v8l-8 60l4 4l-4 20v4l-4 80q3 32 8 32l-4 4v4l20 116l36 84l60 104l24 36
q122 130 188 160q28 27 56 36q18 -7 28 -24l-4 -4q27 -64 76 -116q0 -9 24 -32l4 -4v-4q0 -23 -36 -28q-77 -29 -140 -76q-87 -56 -164 -172q-61 -99 -88 -212l-4 -4v-4l4 -4q-8 -56 -20 -56v-4h4q393 168 432 196q0 107 65.5 167t105.5 76t121 29v-4l4 4h28q55 -12 128 -48
l40 -24l28 -32l20 -32l-24 -28l-244 -156l-20 -20v-4q44 -56 104 -56h4q76 0 276 172l356 272l60 44q33 0 60.5 -59t39.5 -169h16l244 104q37 112 44 112q133 60 240 60h28q157 -14 172 -40q27 -15 48 -40q18 -64 28 -64l196 76l48 28q9 43 48 76q81 72 220 72l28 -4l12 4
q96 -12 152 -44q26 -20 52 -20q22 0 44 44l144 4q16 -4 16 -24l-32 -68q0 -17 -16 -32l-12 -48v-32q26 -28 72 -28l52 20q31 -12 60 -56l40 -12l236 28l28 8l4 -4q116 15 116 28q31 23 84 92v4q0 8 -24 12l-4 -4h-4q-32 0 -116 52q-48 53 -55.5 79t-8 71t26.5 105.5t61.5 87
t107.5 45.5l76 16h24q128 -27 164 -108l20 -48h-4l8 -56q-27 -140 -44 -140q-10 -53 -120 -180h-8v-12q392 44 392 56q-99 52 -119.5 109.5t-20.5 86.5v64q0 78 63 159q67 61 129 61q0 6 56 12q107 -19 164 -80l29 -60l11 -68l-4 -32q0 -35 -20 -104q-7 0 -24 -44l-48 -48
l-42 -33l-12 -8l174 29l4 -4q0 -55 -24 -68l-2864 -444l-12 -44h4q0 -36 -48 -36l-128 -24q-20 6 -20 28l12 44h-8l-2087 -326l-121 -18l61 64l43 80l242 33q-105 127 -122 127q0 24 -72 96l-68 132q-28 46 -69 200l-15 188l8 92q12 80 76 276q68 111 120 156l4 4h4z
M4505 1108q0 -51 72 -68q64 20 64 72q-4 48 -40 48q-3 12 -28 20q-68 -19 -68 -72zM5009 1112v-40q23 -44 72 -44q30 0 60 40l-4 4l4 20v20q-36 44 -76 44q-28 0 -56 -44zM3329 808q10 -64 64 -64q58 0 68 64v16q-27 52 -68 52q-34 0 -64 -56v-12zM2489 684q23 -40 84 -40
q40 25 40 40l8 32q-29 56 -64 56h-12q-56 -20 -56 -72v-16zM2801 552v-4h4l128 20v-4l316 44l-68 44q-56 63 -56 96h4q-9 24 -16 24l-136 -52q-96 -32 -96 -60q0 -51 -80 -108zM3537 652h20q68 5 68 16v4l-28 40l-4 4h-4zM2973 712h8v-16l-8 8v8zM1997 444v-8q174 28 280 36
q40 148 40 184q-18 0 -60 -24q-189 -70 -216 -92q0 -25 -44 -96zM1489 388q2 -20 28 -20q20 8 204 28l12 -4l8 12q-21 7 -36 40v4q0 47 44 60q27 10 48 56l8 32v4l-12 20h-8q-16 0 -36 -24zM1097 488l12 -4l24 16l88 64q-4 11 -44 20q-80 0 -80 -96zM2501 556l-24 -48l4 -4
h16q72 5 72 16q-3 16 -68 36zM605 254v-4l12 -12l416 62v8q-24 0 -88 80q0 16 -16 24h-12q-12 -13 -208 -104q-79 -37 -104 -54z" />
    <glyph glyph-name="icircumflex" unicode="&#xee;" horiz-adv-x="569" 
 />
    <glyph glyph-name="idieresis" unicode="&#xef;" horiz-adv-x="569" 
 />
    <glyph glyph-name="ntilde" unicode="&#xf1;" 
 />
    <glyph glyph-name="oacute" unicode="&#xf3;" 
 />
    <glyph glyph-name="ograve" unicode="&#xf2;" 
 />
    <glyph glyph-name="ocircumflex" unicode="&#xf4;" 
 />
    <glyph glyph-name="odieresis" unicode="&#xf6;" 
d="M576 868q183 -12 276 -44q51 -21 108 -76q62 -63 100 -172q0 -119 -28 -208h-4v-4l4 -4v-4q-46 -70 -136 -172l-25 -25h325v-159h-1415v159h343l-48 41q-23 37 -38 83l-4 43l4 74l-261 -125l4 149q14 0 275 124q44 93 52 96v4q117 157 232 188q97 32 236 32zM324 444v-24
q27 -80 60 -80q0 -13 60 -24h28q99 0 144 17q29 8 57 46l7 80q-32 113 -180 125q-156 -32 -163 -84q-13 -25 -13 -56zM342 1215h14q57 0 79 -71q10 -24 10 -45q0 -57 -89 -107q-14 -8 -29 -8h-18q-44 0 -73 57q-10 0 -12 58q0 58 69 106q23 10 49 10zM817 1259h15
q57 0 79 -71q10 -24 10 -45q0 -57 -89 -107q-15 -8 -29 -8h-18q-44 0 -73 57q-10 0 -12 58q0 57 69 106q23 10 48 10z" />
    <glyph glyph-name="otilde" unicode="&#xf5;" 
d="M572 868q183 -12 276 -44q51 -21 108 -76q62 -63 100 -172q0 -119 -28 -208h-4v-4l4 -4v-4q-46 -70 -136 -172l-25 -25h325v-159h-1414l-1 159h343l-48 41q-23 37 -38 83l-11 72l6 86l23 107q44 93 52 96v4q117 157 232 188q97 32 236 32zM320 444v-24q27 -80 60 -80
q0 -13 60 -24h28q99 0 144 17q29 8 57 46l7 80q-32 113 -180 125q-156 -32 -163 -84q-13 -25 -13 -56zM338 1215h14q57 0 79 -71q10 -24 10 -45q0 -57 -89 -107q-14 -8 -29 -8h-18q-44 0 -73 57q-10 0 -12 58q0 58 69 106q23 10 49 10zM813 1259h15q57 0 79 -71
q10 -24 10 -45q0 -57 -89 -107q-15 -8 -29 -8h-18q-44 0 -73 57q-10 0 -12 58q0 57 69 106q23 10 48 10z" />
    <glyph glyph-name="uacute" unicode="&#xfa;" horiz-adv-x="1002" 
d="M806 930h112l28 -8v-21q-98 -257 -136 -427h-4l-12 -120q0 -127 36 -127l16 -4l36 4h24q8 0 56 -63l17 -5h63v-159h-1211l-1 159h341l7 5q0 46 -56 71q-76 87 -83 244l31 121l64 91v4l56 67q8 14 148 111q110 32 140 32h32q171 0 208 -66l16 -12q33 77 72 103zM342 492
q0 -73 40 -112q24 -40 84 -40h24q94 36 168 148l12 92q0 63 -88 112h-56q-59 0 -104 -60q-80 -79 -80 -140zM514 156h80v4l-8 40zM252 1231h15q57 0 79 -71q10 -24 10 -45q0 -57 -89 -107q-15 -8 -29 -8h-18q-44 0 -73 57q-10 0 -12 58q0 57 69 106q23 10 48 10zM725 1275
h14q52 0 72 -64q9 -23 9 -42q0 -52 -81 -98q-14 -8 -27 -8h-17q-40 0 -67 53q-8 0 -11 53q0 53 64 97q21 9 44 9z" />
    <glyph glyph-name="ugrave" unicode="&#xf9;" horiz-adv-x="1094" 
d="M245 892q168 -40 232 -68l12 -24q-105 -286 -120 -348v-12q0 -41 48 -92q40 -16 68 -16h48q50 10 92 80q20 24 136 408q19 40 40 40l216 -72l8 -12q0 -18 -132 -308l-8 -24l-14 -22q-6 -122 74 -42l112 -152l-84 -69h161v-159h-1280l-1 159h252v1q-39 60 -60 116l4 4
q-12 0 -20 72q-8 0 64 228l112 296zM689 220q0 -14 -42 -61h90l8 1q-10 60 -32 60h-24zM490 1254h14q52 0 72 -65q9 -22 9 -41q0 -52 -81 -98q-14 -8 -27 -8h-17q-40 0 -67 53q-9 0 -11 53q0 53 64 97q21 9 44 9zM905 1200h13q53 0 73 -65q9 -22 9 -41q0 -53 -82 -98
q-13 -8 -27 -8h-16q-40 0 -67 52q-9 0 -11 54q0 52 63 97q21 9 45 9z" />
    <glyph glyph-name="ucircumflex" unicode="&#xfb;" horiz-adv-x="1094" 
d="M245 892q168 -40 232 -68l12 -24q-105 -286 -120 -348v-12q0 -41 48 -92q40 -16 68 -16h48q50 10 92 80q20 24 136 408q19 40 40 40l216 -72l8 -12q0 -18 -132 -308l-8 -24v-20q15 -31 60 -44q39 0 108 56l4 4l133 85l-1 -196l-117 -92l-11 -6l-4 -3l-84 -69h161v-159
h-1280l-1 159h252v1q-39 60 -60 116l4 4q-12 0 -20 72q-8 0 -8 32h-4l76 196l112 296zM689 220q0 -14 -42 -61h90l8 1q-10 60 -32 60h-24zM490 1254h14q52 0 72 -65q9 -22 9 -41q0 -52 -81 -98q-14 -8 -27 -8h-17q-40 0 -67 53q-9 0 -11 53q0 53 64 97q21 9 44 9zM905 1200
h13q53 0 73 -65q9 -22 9 -41q0 -53 -82 -98q-13 -8 -27 -8h-16q-40 0 -67 52q-9 0 -11 54q0 52 63 97q21 9 45 9z" />
    <glyph glyph-name="udieresis" unicode="&#xfc;" horiz-adv-x="1094" 
d="M245 892q168 -40 232 -68l12 -24q-105 -286 -120 -348v-12q0 -41 48 -92q40 -16 68 -16h48q50 10 92 80q20 24 136 408q19 40 40 40l216 -72l8 -12q0 -18 -132 -308l-8 -24v-20q15 -31 60 -44q39 0 108 56l4 4l133 85l-1 -196l-117 -92l-11 -6l-4 -3l-84 -69h161v-159
h-1280l-1 159h252v1q-39 60 -60 116l4 4q-12 0 -20 72q-8 0 -8 32h-4l-163 -52v148l239 100l112 296zM689 220q0 -14 -42 -61h90l8 1q-10 60 -32 60h-24zM490 1254h14q52 0 72 -65q9 -22 9 -41q0 -52 -81 -98q-14 -8 -27 -8h-17q-40 0 -67 53q-9 0 -11 53q0 53 64 97
q21 9 44 9zM905 1200h13q53 0 73 -65q9 -22 9 -41q0 -53 -82 -98q-13 -8 -27 -8h-16q-40 0 -67 52q-9 0 -11 54q0 52 63 97q21 9 45 9z" />
    <glyph glyph-name="dagger" unicode="&#x2020;" 
 />
    <glyph glyph-name="degree" unicode="&#xb0;" horiz-adv-x="819" 
 />
    <glyph glyph-name="cent" unicode="&#xa2;" 
 />
    <glyph glyph-name="sterling" unicode="&#xa3;" 
 />
    <glyph glyph-name="section" unicode="&#xa7;" 
 />
    <glyph glyph-name="bullet" unicode="&#x2022;" horiz-adv-x="717" 
 />
    <glyph glyph-name="paragraph" unicode="&#xb6;" horiz-adv-x="1100" 
 />
    <glyph glyph-name="germandbls" unicode="&#xdf;" horiz-adv-x="1251" 
 />
    <glyph glyph-name="registered" unicode="&#xae;" horiz-adv-x="1509" 
 />
    <glyph glyph-name="copyright" unicode="&#xa9;" horiz-adv-x="1509" 
 />
    <glyph glyph-name="trademark" unicode="&#x2122;" horiz-adv-x="969" 
d="M806 930h112l28 -8v-21q-98 -257 -136 -427h-4l-12 -120q0 -127 36 -127l16 -4l36 4h24q8 0 56 -63l16 -4h64v-160h-1212v160h340l4 4h4q0 46 -56 71q-76 87 -76 217l5 48l14 61l29 65l40 65v4q56 58 56 67l4 -5h4q0 19 140 116q110 32 140 32h32q171 0 208 -66l16 -12
q33 77 72 103zM342 492q0 -73 40 -112q24 -40 84 -40h24q94 36 168 148l12 92q0 63 -88 112h-56q-59 0 -104 -60q-80 -79 -80 -140zM514 156h80v4l-8 40z" />
    <glyph glyph-name="acute" unicode="&#xb4;" horiz-adv-x="841" 
d="M432 892q202 0 336 -128q-9 -25 -156 -216l-212 -284v-4l40 -4q58 0 200 76l260 140l53 -119l-253 -119q-133 -70 -156 -70v-4h276v-40l-4 -20l4 -4l-4 -4l4 -4l-4 -4l4 -4l-4 -4l4 -4l-4 -4l4 -4l-4 -4l4 -4l-4 -4l4 -4l-4 -4l4 -4l-4 -4l4 -4l-4 -4l4 -4l-4 -4l4 -4
l-4 -4l4 -4l-4 -4l4 -4h-820v160h224q19 0 32 24l-116 68q-88 68 -88 128l-352 -297l-100 96l443 366q16 46 45 95q101 188 232 232q27 20 112 20zM228 404q14 -64 52 -96q45 -28 60 -28l172 236v4q-43 44 -116 44q-121 0 -140 -48q-28 -23 -28 -112z" />
    <glyph glyph-name="dieresis" unicode="&#xa8;" horiz-adv-x="906" 
d="M566 884h12h4h4q64 -2 104 -14l10 -3l9 -3q72 -31 141 -100v-12l-88 -84l-9 -10q-53 34 -147 34q-71 -8 -120 -48q-64 -63 -64 -124v-12q0 -76 88 -136q67 -24 88 -24h12q90 7 215 69l103 49l190 84l36 -77l22 -49l-116 -55l-424 -197l-30 -8v-4h488v-160h-1212v160h358
q-31 26 -66 68q-76 82 -76 212l2 60l17 41l25 67l44 64v4q100 111 204 172q115 36 176 36z" />
    <glyph glyph-name="notequal" unicode="&#x2260;" horiz-adv-x="1147" 
d="M1016 1320q20 -6 20 -28q-189 -715 -189 -755v-28q2 -109 73 -149q6 -8 100 -28l8 -24q-39 -135 -55 -145l-28 -12l-112 -4q-161 70 -129 101l-24 8q-125 -78 -125 -88l-39 -8l788 -1v-159h-1406v159h394v1q-29 0 -72 10t-124 98q-44 67 -53 137v105l17 90l36 96
q37 82 203 172q67 32 184 32q84 0 188 -48q16 4 16 28q126 395 137 412zM260 533q0 -132 115 -168l92 -15q120 0 175 145q0 130 -126 183h-103q-105 -40 -153 -122v-23z" />
    <glyph glyph-name="AE" unicode="&#xc6;" horiz-adv-x="846" 
d="M432 892q202 0 336 -128q-9 -25 -156 -216l-212 -284v-4l40 -4q58 0 200 76q80 37 419 318l41 -122q-177 -150 -376 -281q-157 -83 -180 -83v-4h276v-40l-4 -20l4 -4l-4 -4l4 -4l-4 -4l4 -4l-4 -4l4 -4l-4 -4l4 -4l-4 -4l4 -4l-4 -4l4 -4l-4 -4l4 -4l-4 -4l4 -4l-4 -4
l4 -4l-4 -4l4 -4l-4 -4l4 -4l-4 -4l4 -4h-820v160h224q19 0 32 24l-116 68q-88 68 -88 128l-352 -297l-100 96l443 366q16 46 45 95q101 188 232 232q27 20 112 20zM228 404q14 -64 52 -96q45 -28 60 -28l172 236v4q-43 44 -116 44q-121 0 -140 -48q-28 -23 -28 -112z" />
    <glyph glyph-name="Oslash" unicode="&#xd8;" horiz-adv-x="856" 
d="M432 892q202 0 336 -128q-9 -25 -156 -216l-212 -284v-4l40 -4q58 0 193 69l467 275l51 -83l-451 -281q-133 -72 -156 -72v-4h276v-40l-4 -20l4 -4l-4 -4l4 -4l-4 -4l4 -4l-4 -4l4 -4l-4 -4l4 -4l-4 -4l4 -4l-4 -4l4 -4l-4 -4l4 -4l-4 -4l4 -4l-4 -4l4 -4l-4 -4l4 -4
l-4 -4l4 -4l-4 -4l4 -4h-820v160h224q19 0 32 24l-116 68q-88 68 -88 224h-4q11 115 40 164q101 188 232 232q27 20 112 20zM228 404q14 -64 52 -96q45 -28 60 -28l172 236v4q-43 44 -116 44q-121 0 -140 -48q-28 -23 -28 -112z" />
    <glyph glyph-name="infinity" unicode="&#x221e;" horiz-adv-x="980" 
d="M806 876h116l16 4l16 -4l-208 -644l8 -19l164 78l176 69q21 -78 48 -116q-172 -74 -184 -85v-4h84v-155h-360q-16 -72 -96 -249q-45 -64 -90 -86q-155 -84 -297 -90l-158 -8q-82 0 -157 17q-90 10 -90 98q0 69 28 105q47 62 304 159l116 50v4h-412v155h380v8
q-115 66 -140 135q-24 54 -24 128v41l16 55l32 67q25 49 40 62v4q105 113 204 167q115 35 176 35h12l4 -4l4 4q71 0 152 -35l48 -43q48 97 72 97zM365 520q0 -93 76 -144l40 -8h20l20 4v-4q134 80 160 156l12 76q0 73 -88 120h-52q-70 0 -136 -84q-44 -52 -52 -116z
M185 -252v-16q3 -32 56 -17q100 22 179 103q53 90 61 146q-268 -110 -288 -192z" />
    <glyph glyph-name="plusminus" unicode="&#xb1;" horiz-adv-x="1176" 
d="M676 1448h68q149 0 240 -92q12 -15 24 -80q0 -76 -72 -224q-48 -76 -132 -164l-56 -40l157 28q97 -5 139 -7l53 -22l47 -47l22 -65q12 -35 5 -103q1 -90 -81 -232l-142 -240h336v-160h-1540v156q300 3 300 8q104 271 128 352l68 192q70 175 148 436q33 130 100 220
q96 84 188 84zM512 860q154 86 224 224q37 65 56 120q-13 52 -68 52h-20q-46 0 -92 -88zM352 228h4l-20 -64l4 -4h351q53 70 153 262l47 113l-15 65q-48 56 -196 56q-59 -3 -128 -40q-136 -96 -136 -176z" />
    <glyph glyph-name="lessequal" unicode="&#x2264;" horiz-adv-x="508" 
d="M393 1192h12q35 0 64 -60l12 -68q-12 -68 -36 -88l-32 -20l-4 4q0 -16 -64 -20l-4 4v-4q-61 0 -84 60v12q7 84 24 84l-4 4q62 92 116 92zM385 880q28 -8 28 -24q-164 -477 -176 -544l-8 -64l8 -88h315l1 -160h-660v152l8 8h128v4q-12 21 -12 40q0 62 44 148l48 124h-4
l60 188l64 196q0 13 156 20z" />
    <glyph glyph-name="greaterequal" unicode="&#x2265;" horiz-adv-x="501" 
d="M393 1192h12q35 0 64 -60l12 -68q-12 -68 -36 -88l-32 -20l-4 4q0 -16 -64 -20l-4 4v-4q-61 0 -84 60v12q7 84 24 84l-4 4q62 92 116 92zM385 880q28 -8 28 -24q-164 -477 -176 -544l8 -12l355 179l45 -79l-408 -240h315l1 -160h-660v152l8 8h128v4q-12 21 -12 40
q0 62 44 148l48 124h-4l60 188l64 196q0 13 156 20z" />
    <glyph glyph-name="yen" unicode="&#xa5;" horiz-adv-x="1127" 
d="M309 371q15 -68 52 -94q32 -21 63 -27q39 0 88 4q33 12 92 46l63 100q47 152 -150 200l-104 -26q-68 -37 -73 -85q-31 -68 -31 -118zM545 1351q50 3 26 -28l-159 -492l133 30q100 3 200 -34l148 -87q83 -109 52 -276l-33 -116q-86 -148 -167 -172q-21 -13 -43 -17h364
l3 -159h-1369l-4 160l270 -1h122h38l-57 41q-60 100 19 360l195 716q127 44 193 56z" />
    <glyph glyph-name="mu" unicode="&#xb5;" horiz-adv-x="850" 
d="M542 1344h12q22 0 68 -48l88 4h32l128 28q36 -20 36 -56v-16q0 -25 -144 -336l-252 -568v-16q0 -39 52 -48q32 0 268 124q132 68 130 63q62 -13 88 -131q-7 -5 -114 -56l-192 -96l-20 -24v-12h688v-156h-1716v156h492v16l4 36q-41 87 -48 88l9 166l71 118
q276 594 288 636l-16 100q25 28 48 28z" />
    <glyph glyph-name="partialdiff" unicode="&#x2202;" horiz-adv-x="1444" 
d="M870 960q68 -19 68 -60l12 -80l-4 -56v-88l8 -8l276 228q19 12 72 12q46 0 76 -64h-4l4 -4v-360q0 -167 -64 -256q-16 -32 -52 -68h360v-156h-1884v156h312q84 346 132 476q-93 -72 -104 -72l-12 -4q-13 1 -52 80l-32 52q0 26 184 224q0 21 88 44h12q115 0 148 -80
q10 -176 28 -176l80 -32q32 0 168 148l156 140zM790 160v-4h208q68 174 68 216q-8 64 -40 64q-89 0 -236 -276zM394 156h164q40 151 40 188v36q-16 0 -16 8q-105 0 -168 -180z" />
    <glyph glyph-name="summation" unicode="&#x2211;" horiz-adv-x="985" 
d="M393 892h4q20 -10 20 -32v-32h104l60 28q54 20 120 28l4 -4h4l4 4q116 0 236 -80q72 -87 72 -172q-6 -188 -24 -188l4 -4v-4q-14 -44 -24 -44l4 -4v-4q-50 -79 -144 -160l-72 -64h428v-160h-1540v156l300 4l48 128v4l92 220l148 372l4 4h4zM241 160h232q128 140 136 140
l88 108l24 64v8q0 96 -96 128l-68 8q-58 0 -160 -72q-54 -72 -156 -384z" />
    <glyph glyph-name="product" unicode="&#x220f;" 
d="M576 868q183 -12 276 -44q51 -21 108 -76q62 -63 100 -172q0 -119 -28 -216v-4q-46 -70 -136 -172l-28 -28h328v-156h-1416v156h268v4q-16 25 -30 85l-3 27l1 50l8 94l32 132q44 93 52 96v4q117 157 232 188q97 32 236 32zM324 444v-24q27 -80 60 -80q0 -13 60 -24h28
q99 0 112 24q29 11 48 60l16 56q0 116 -152 116q-115 -8 -143.5 -52.5t-28.5 -75.5z" />
    <glyph glyph-name="integral" unicode="&#x222b;" horiz-adv-x="929" 
d="M391 907l4 -4v-4l-16 -53l4 4h4l4 -4q56 21 140 21q96 -6 184 -60q148 -90 148 -293v-8q0 -166 -236 -321h-4h-3q-1 -11 -65 -20v-4h416v-161h-876q-7 0 -28 -55l-256 -81l-8 9l48 127h-96v161h156q12 6 100 249h-4l76 188l112 277q0 11 184 32h12zM275 520v-44
q0 -56 96 -88l56 -4q88 16 120 44q48 32 48 100q-12 120 -180 120q-62 -9 -108 -44q-31 -52 -32 -84zM175 228l-20 -72h184v4q-44 6 -48 14l-8 2z" />
    <glyph glyph-name="ordfeminine" unicode="&#xaa;" horiz-adv-x="1046" 
d="M832 846q68 -1 92.5 -13.5t51.5 -32.5q44 -53 44 -100q8 -58 -20 -100q-31 -65 -100 -100q-61 -34 -139 -33q-96 5 -176 57q-32 24 -48 24q-54 0 -118 -48q-40 -100 -98 -270q134 -74 123 -74h769v-156h-1384v156h171q40 81 71 175l55 169l52 148q71 233 90 225l165 -29
q45 0 52 -68q17 -20 24 -20l191 65z" />
    <glyph glyph-name="ordmasculine" unicode="&#xba;" horiz-adv-x="537" 
d="M224 892q183 -111 244 -272q20 -58 20 -88v-12q0 -173 -108 -256l-96 -48l-4 -44v-4l4 -4v-4l4 4h276l80 -4v-160h-944v156l8 8h352l4 -4h4l4 4v4q-84 51 -124 92q182 231 200 240l92 -44q100 44 100 168q0 75 -88 140l-26 10l-98 -135l-62 61z" />
    <glyph glyph-name="Omega" unicode="&#x2126;" horiz-adv-x="676" 
d="M568 1400l193 13l5 -25l-74 -212h20l20 5q39 -8 39 -20v-5q0 -123 -25 -123l-19 -5h-89l-208 -618l-2 -110q2 -112 43 -143h357l2 -157h-1080l2 158h432q-20 56 -25 193q14 125 34 163l68 186q41 84 135 318h-69q-20 8 -20 34v109l25 5h88l80 200q26 34 68 34z" />
    <glyph glyph-name="ae" unicode="&#xe6;" horiz-adv-x="1094" 
d="M245 892q168 -40 232 -68l12 -24q-105 -286 -120 -348v-12q0 -41 48 -92q40 -16 68 -16h48q50 10 92 80q20 24 136 408q19 40 40 40l216 -72l8 -12q0 -18 -132 -308l-8 -24v-20q15 -31 60 -44q39 0 108 56l4 4l133 85l-1 -196l-117 -92l-11 -6l-4 -3l-88 -72h164l1 -156
h-1281v156h252v4q-39 60 -60 116l4 4q-12 0 -20 72q-8 0 -8 32h-4l76 196l112 296zM689 220q0 -14 -44 -64h92l4 4h4q-10 60 -32 60h-24z" />
    <glyph glyph-name="oslash" unicode="&#xf8;" horiz-adv-x="810" 
d="M670 926q97 0 116 -101v-29l-4 -54l20 -5h20q49 0 176 38l32 -84q-190 -62 -240 -62l-64 4q-27 -102 -36 -109h4q-44 -99 -128 -222q-120 -107 -212 -139v-4h676v-159h-1232v159h232v4l-12 38h4l-4 13q0 105 176 435l112 235q38 38 56 38h16q31 0 64 -50l-4 -5q8 0 8 -12
q8 0 8 -21h-8v-4q16 0 16 -34v-4h-4l4 -4v-4q0 -53 -92 -202q-81 -148 -112 -226v-29q0 -50 60 -50q61 13 232 176q53 76 112 192q-63 25 -80 67l-4 4l4 5v8h-8v42l4 4l-4 4v5q2 62 8 62h4l-4 5v4q17 71 88 71zM658 760q0 -21 28 -40q12 0 12 44q0 15 -20 24q-20 -6 -20 -28
z" />
    <glyph glyph-name="questiondown" unicode="&#xbf;" horiz-adv-x="886" 
d="M550 668l12 -8h4q226 132 252 172q44 31 64 112v16q0 61 -84 88h-16q-99 0 -128 -120q-60 -133 -104 -260zM846 1340h32q95 0 136 -52q19 0 68 -96l16 -68l-4 -4l4 -16q0 -94 -52 -220h-4l-4 4h-4v-4l8 -8q-70 -99 -80 -104l-4 4h-4v-4l8 -8l-80 -68l-4 4h-4v-4l4 -4
q-247 -163 -384 -240q-49 -36 -68 -100l-69 -194l620 1l1 -159h-684q-8 -3 -52 -123q-89 -47 -276 -112h-8l-8 8v8l92 219h-624v159h336h190h169l105 241l-519 -182l-51 72l641 277q226 541 333 657q53 62 120 88q51 28 104 28z" />
    <glyph glyph-name="exclamdown" unicode="&#xa1;" horiz-adv-x="886" 
d="M550 668l12 -8h4q226 132 252 172q44 31 64 112v16q0 61 -84 88h-16q-99 0 -128 -120q-60 -133 -104 -260zM846 1340h32q95 0 136 -52q19 0 68 -96l16 -68l-4 -4l4 -16q0 -94 -52 -220h-4l-4 4h-4v-4l8 -8q-70 -99 -80 -104l-4 4h-4v-4l8 -8l-80 -68l-4 4h-4v-4l4 -4
q-247 -163 -384 -240q-49 -36 -68 -100l-69 -194l620 1l1 -159h-684q-8 -3 -52 -123q-89 -47 -276 -112h-8l-8 8v8l92 219h-624v159h336h190h169l105 241l71 167q226 541 333 657q53 62 120 88q51 28 104 28z" />
    <glyph glyph-name="logicalnot" unicode="&#xac;" horiz-adv-x="1301" 
d="M-92 156h476q9 0 12 20l-56 164l-56 174q-40 148 -96 292v29l28 25h8v-4l88 4h112q65 0 84 -58q120 -336 152 -403l40 -4q33 15 144 169q167 229 200 263q0 7 280 33q40 -23 40 -54v-20q0 -26 -136 -169l-68 -82l-312 -366v-9h636v-160h-784l-340 -316l-24 -13h-8v4
l-28 -4l-228 -4q-24 0 -24 58v74q0 37 92 37q192 20 192 49l60 103l-4 12h-608h-22l2 156h21h127z" />
    <glyph glyph-name="radical" unicode="&#x221a;" horiz-adv-x="680" 
d="M338 900h44l156 -20l136 8q20 -24 20 -36l-412 -432q79 0 148 -32l116 36q20 -10 20 -32l-172 -232v-4h320v-156h-956v156l20 4l20 -4h96q20 0 64 56l412 420h-164l-69 -1q-160 -96 173 249z" />
    <glyph glyph-name="florin" unicode="&#x192;" horiz-adv-x="821" 
d="M481 948q208 -148 252 -308q12 -78 12 -108v-12q0 -173 -108 -256l-96 -48l-4 -44v-4l4 -4v-4l4 4h276l80 -4v-160h-944v156l8 8h352l4 -4h4l4 4v4q-84 51 -124 92q182 231 200 240l92 -44q100 44 100 168q0 75 -88 140l-4 4l-194 -268q-119 -151 -166 -196
q-136 -127 -228 -173v116l140 111q72 48 166 209z" />
    <glyph glyph-name="approxequal" unicode="&#x2248;" horiz-adv-x="1239" 
d="M648 1362q21 -9 23 -16v-4l-167 -518h3q156 84 184 90t71 10v3q127 -11 167 -54q92 -83 92 -190v-30q0 -44 -17 -95q-46 -106 -131 -163l-69 -39h-3l-59 -23l-3 3l-60 -4l-47 9q94 -83 110.5 -89t51.5 -6q52 -18 121 54l105 -77v-3q-79 -55 -101 -61h474v-159h-1595v159
h209l108 309l61 186l75 209l-4 3q13 0 20 46l125 388q0 10 184 46zM385 512l206 -38q49 0 101 46q13 0 30 69q0 52 -21.5 70.5t-53.5 25t-112 -39.5q-123 -71 -127 -77zM316 332l-64 -173h382q-104 33 -292 160z" />
    <glyph glyph-name="Delta" unicode="&#x2206;" horiz-adv-x="1469" 
d="M1203 964h8q86 0 104 -68l8 -48l-4 -60h24l4 -4h4l4 4v-4l4 4h24q28 0 120 28l8 -8q-42 -100 -80 -100q-50 -24 -104 -24h-20l-20 4q20 -100 36 -300q0 -155 -104 -220v-8l20 -4h400v-156h-1664v156h252v4q-39 60 -53.5 90t-22.5 66t6 84l58 180l104 280l24 36
q176 -40 184 -48v-24l-120 -256q-24 -85 -24 -132q10 -148 72 -148l44 -12q76 0 108 48q60 68 60 156q24 63 24 344q6 17 20 24h4q18 0 212 -60l12 -16v-4l-83 -168q-51 -137 -51 -217q4 -117 54 -131q31 -13 56 -12h8q124 0 232 272q12 33 20 176q16 19 -36 44
q-28 47 -28 76v12l4 4l-4 4v4q3 60 12 60l-4 4v4q13 64 84 64zM1195 844q0 -25 32 -40q8 16 8 44q0 15 -20 24q-20 -6 -20 -28z" />
    <glyph glyph-name="guillemotleft" unicode="&#xab;" 
 />
    <glyph glyph-name="guillemotright" unicode="&#xbb;" 
 />
    <glyph glyph-name="ellipsis" unicode="&#x2026;" horiz-adv-x="924" 
d="M477 892q202 0 336 -128q-9 -25 -156 -216l-212 -284v-4l40 -4q58 0 200 76q80 37 140 136q128 161 128 172h4v-80q-108 -187 -232 -316q-113 -80 -136 -80v-6h276v-38l-4 -20l4 -4l-4 -4l4 -4l-4 -4l4 -4l-4 -4l4 -4l-4 -4l4 -4l-4 -4l4 -4l-4 -4l4 -4l-4 -4l4 -4l-4 -4
l4 -4l-4 -4l4 -4l-4 -4l4 -4l-4 -4l4 -4l-4 -4l4 -4h-820v158h223q20 2 33 26l-116 68q-88 68 -103 194l6 99q16 46 45 95q101 188 232 232q27 20 112 20zM273 404q14 -64 52 -96q45 -28 60 -28l172 236v4q-43 44 -116 44q-121 0 -140 -48q-28 -23 -28 -112z" />
    <glyph glyph-name="Agrave" unicode="&#xc0;" horiz-adv-x="1469" 
d="M1204 964h8q85 0 104 -68l8 -48l-4 -60h24l4 -4h4l4 4v-4l4 4h24q27 0 120 28l8 -8q-42 -100 -80 -100q-51 -24 -104 -24h-20l-20 4q20 -100 36 -300q0 -155 -104 -220v-8l20 -4h400v-156h-1664v156h252v4q-39 60 -54 90t-22.5 66t-7.5 68h-4l-457 -128l-50 126l583 198
l104 280l24 36q176 -40 184 -48v-24l-120 -256q-24 -85 -24 -132q10 -148 72 -148l44 -12q75 0 108 48q60 68 60 156q24 63 24 344q5 17 20 24h4q18 0 212 -60l12 -16v-4l-83 -168q-51 -137 -51 -217q3 -117 54 -131q31 -13 56 -12h8q124 0 232 272q12 33 20 176
q16 19 -36 44q-28 47 -28 76v12l4 4l-4 4v4q3 60 12 60l-4 4v4q13 64 84 64zM1196 844q0 -25 32 -40q8 16 8 44q0 15 -20 24q-20 -6 -20 -28z" />
    <glyph glyph-name="Atilde" unicode="&#xc3;" horiz-adv-x="680" 
d="M338 900h44l156 -20l136 8q20 -24 20 -36l-412 -432q79 0 160 -44l58 24l400 161l34 -78l-417 -183l-123 -142v-2h320v-156h-956v156l20 4l20 -4h96q20 0 64 56l412 420h-164l-396 -444h-52v84q138 142 552 608z" />
    <glyph glyph-name="Otilde" unicode="&#xd5;" horiz-adv-x="680" 
d="M338 900h44l156 -20l136 8q20 -24 20 -36l-412 -432q79 0 160 -44l58 24l400 161l34 -78l-417 -183l-123 -142v-2h320v-156h-956v156l20 4l20 -4h96q20 0 64 56l412 420h-164l-90 -32l-52 15l120 125l126 140z" />
    <glyph glyph-name="OE" unicode="&#x152;" horiz-adv-x="1204" 
d="M245 892q168 -40 232 -68l12 -24q-105 -286 -120 -348v-12q0 -41 48 -92q40 -16 68 -16h48q50 10 92 80q20 24 136 408q19 40 40 40l216 -72l8 -12q0 -18 -132 -308l-8 -24v-20q15 -31 60 -44q39 0 108 56l4 4l484 296l-1 -196l-571 -384h164l1 -156h-1281v156h252v4
q-39 60 -53.5 90t-22.5 66t-12 68l76 196l112 296zM689 220q0 -14 -44 -64h92l4 4h4q-10 60 -32 60h-24z" />
    <glyph glyph-name="oe" unicode="&#x153;" horiz-adv-x="1235" 
d="M735 1448h68q149 0 240 -92q12 -15 24 -80q0 -76 -72 -224q-48 -76 -132 -164l-56 -40l157 28q97 -5 139 -7l53 -22l47 -47l22 -65q12 -35 5 -103q1 -90 -81 -232l-142 -241h336v-159h-1540v159q300 0 297 0q107 276 125 313l-477 -228l-48 130q554 296 599 334
q70 175 148 436q33 130 100 220q96 84 188 84zM571 860q154 86 224 224q37 65 56 120q-13 52 -68 52h-20q-46 0 -92 -88zM415 228l-20 -64l5 -5h350q53 71 153 263l47 113l-15 65q-48 56 -196 56q-59 -3 -128 -40q-136 -96 -136 -176z" />
    <glyph glyph-name="endash" unicode="&#x2013;" horiz-adv-x="813" 
d="M889 159v-159h-969v159h969z" />
    <glyph glyph-name="emdash" unicode="&#x2014;" horiz-adv-x="337" 
d="M425 159v-159h-498v159h498z" />
    <glyph glyph-name="quotedblleft" unicode="&#x201c;" horiz-adv-x="686" 
d="M474 1648h4q55 -6 98 -35q46 -45 46 -109q0 -240 -151 -440q-86 -98 -113 -98h-3q-29 0 -29 21q95 119 95 243v45l-7 11l4 3q-17 50 -67 50q-88 53 -88 147v7q0 55 60 113q64 42 151 42zM29 1392h11q65 -11 91 -32q49 -38 49 -119v-17q0 -160 -102 -348
q-110 -154 -164 -168q-28 0 -28 25v3q91 113 91 211v59q0 61 -46 74q-36 0 -77 49q-32 49 -32 98v14q0 52 57 105q58 46 150 46z" />
    <glyph glyph-name="quotedblright" unicode="&#x201d;" horiz-adv-x="756" 
d="M107 1641q140 0 194 -97l14 -66q0 -77 -73 -135q-76 -17 -76 -52l-4 -4h4l-7 -21v-38q0 -128 94 -236v-3q0 -21 -32 -21q-63 23 -163 173q-97 168 -97 365q0 90 94 125zM530 1400h10q160 -4 197 -113l11 -42v-10q0 -64 -53 -124q-35 -22 -81 -35q-14 -15 -21 -46h-3
l3 -42v-14l-3 -4l3 -3v-4l-3 -3q14 -110 63 -176l32 -42v-4q0 -21 -29 -21h-3q-40 0 -162 165q-102 183 -102 367q0 113 95 140z" />
    <glyph glyph-name="quoteleft" unicode="&#x2018;" horiz-adv-x="660" 
d="M493 1443l11 -5q55 -24 97 -107q2 -66 -19 -114q-125 -288 -436 -421q-7 3 -55 -16l-25 3l-4 1q-29 13 -19 35l1 4q150 74 209 210l20 44l2 25q12 29 -59 86q-52 91 -14 177l4 11q21 48 100 87q92 21 187 -20z" />
    <glyph glyph-name="quoteright" unicode="&#x2019;" horiz-adv-x="482" 
d="M113 1476l12 2q180 24 241 -91l20 -46l2 -12q11 -71 -38 -147q-36 -32 -85 -54q-13 -20 -15 -55l8 -80q36 -121 102 -186l43 -42l1 -4q4 -24 -28 -29h-4q-45 -7 -211 157q-147 187 -178 393q-21 127 81 175z" />
    <glyph glyph-name="divide" unicode="&#xf7;" horiz-adv-x="1124" 
 />
    <glyph glyph-name="lozenge" unicode="&#x25ca;" horiz-adv-x="1046" 
d="M833 846q68 -1 92.5 -13.5t51.5 -32.5q44 -53 44 -100l2 -22l295 -79l-57 -133l-286 91q-5 -22 -74 -57q-61 -34 -139 -33q-96 5 -176 57q-32 24 -48 24q-54 0 -118 -48q-40 -100 -98 -270q120 -70 109 -70h769l14 -160h-1384l-1 160h171q41 77 81 212l20 66l-350 -136
v148q31 20 428 198q71 214 87 220l168 -24q45 0 52 -68q17 -20 24 -20l191 65z" />
    <glyph glyph-name="ydieresis" unicode="&#xff;" horiz-adv-x="1046" 
d="M755 846q68 -1 92.5 -13.5t51.5 -32.5q44 -53 44 -100l2 -22l379 -105l-52 -130l-375 114q-5 -22 -74 -57q-61 -34 -139 -33q-96 5 -176 57q-32 24 -48 24q-54 0 -118 -48q-40 -100 -98 -270q120 -70 109 -70h769l14 -160h-1384l-1 160h171q41 77 81 212l20 66l78 210
q71 214 87 220l168 -24q45 0 52 -68q17 -20 24 -20l191 65z" />
    <glyph glyph-name="Ydieresis" unicode="&#x178;" horiz-adv-x="642" 
d="M534 1192h12q35 0 64 -60l12 -68q-16 -84 -40 -84q0 -11 -28 -24l-4 4q0 -14 -52 -20q-78 0 -96 52l-4 20q0 56 24 88h-4q65 92 116 92zM518 880q22 0 36 -20l-180 -560l463 247l37 -117l-534 -271h438v-159h-482l-2 -4q-55 -162 -148 -225q-50 -24 -92 -24
q-181 -12 -226 126l1 51l6 24l40 52h-323v159h504l118 65l196 636q0 12 148 20zM45 0l-70 -51q-15 -62 21 -70q80 0 112 53l28 68h-91z" />
    <glyph glyph-name="fraction" unicode="&#x2044;" horiz-adv-x="342" 
 />
    <glyph glyph-name="fraction" unicode="&#x2215;" horiz-adv-x="342" 
 />
    <glyph glyph-name="Euro" unicode="&#x20ac;" horiz-adv-x="1337" 
d="M868 1584l170 -6q149 -23 272 -78q59 -22 90 -64q-108 -63 -108 -104q-33 -24 -55 -192h-10q0 -12 -9 -12q-69 20 -193 72l-74 8h-40q-299 0 -390 -240l-10 -68h5l573 120v-4q-15 -51 -20 -168l-544 -88q15 -79 30 -112l529 116l5 -4v-20l-25 -148l-450 -76v-4
q113 -188 332 -188h5q118 0 355 92q22 20 40 20v-4l49 -212q-70 -44 -130 -61h694v-159h-2091q133 64 133 136v4l-9 12l-6 7h634q-232 92 -337 301l-158 -24v4l10 52v32l-15 52h5l99 20q-22 108 -30 108l-133 -20v4l15 60v12l-15 60v4l94 16l-5 32q0 232 49 292
q35 86 188 236q74 80 178 124q127 51 303 60z" />
    <glyph glyph-name="guilsinglleft" unicode="&#x2039;" horiz-adv-x="682" 
 />
    <glyph glyph-name="guilsinglright" unicode="&#x203a;" horiz-adv-x="682" 
 />
    <glyph glyph-name="uniF001" unicode="&#xf001;" horiz-adv-x="642" 
d="M534 1192h12q35 0 64 -60l12 -68q-16 -84 -40 -84q0 -11 -28 -24l-4 4q0 -14 -52 -20q-78 0 -96 52l-4 20q0 56 24 88h-4q65 92 116 92zM518 880q22 0 36 -20l-180 -560l222 117l38 -117l-294 -141h438v-159h-482l-2 -4q-55 -162 -148 -225q-50 -24 -92 -24
q-181 -12 -226 126l1 51l6 24l40 52h-323v159h504l118 65l76 219h-16q-11 -14 -559 -218v121q473 188 607 250q28 65 88 264q0 12 148 20zM45 0l-70 -51q-15 -62 21 -70q80 0 112 53l28 68h-91z" />
    <glyph glyph-name="uniF001" unicode="&#xfb01;" horiz-adv-x="642" 
d="M534 1192h12q35 0 64 -60l12 -68q-16 -84 -40 -84q0 -11 -28 -24l-4 4q0 -14 -52 -20q-78 0 -96 52l-4 20q0 56 24 88h-4q65 92 116 92zM518 880q22 0 36 -20l-180 -560l222 117l38 -117l-294 -141h438v-159h-482l-2 -4q-55 -162 -148 -225q-50 -24 -92 -24
q-181 -12 -226 126l1 51l6 24l40 52h-323v159h504l118 65l76 219h-16q-11 -14 -559 -218v121q473 188 607 250q28 65 88 264q0 12 148 20zM45 0l-70 -51q-15 -62 21 -70q80 0 112 53l28 68h-91z" />
    <glyph glyph-name="uniF002" unicode="&#xf002;" horiz-adv-x="1163" 
d="M295 913q23 -13 80 -131l129 -161h8l221 293q16 0 207 -114l-319 -335l259 -307h432l8 -158h-1580v158h366l158 168l127 137l-340 374q62 8 244 76zM500 348l-186 -190h362q-132 151 -176 190z" />
    <glyph glyph-name="uniF002" unicode="&#xfb02;" horiz-adv-x="1163" 
d="M295 913q23 -13 80 -131l129 -161h8l221 293q16 0 207 -114l-319 -335l259 -307h432l8 -158h-1580v158h366l158 168l127 137l-340 374q62 8 244 76zM500 348l-186 -190h362q-132 151 -176 190z" />
    <glyph glyph-name="daggerdbl" unicode="&#x2021;" horiz-adv-x="1096" 
d="M328 913q23 -13 80 -131l129 -161h8l221 293q16 0 207 -114l-319 -335l98 -125l31 -9l25 7l334 155l58 -52l-344 -173l-17 -13l10 -28l51 -68h453v-159h-1580v159h364l29 29l7 12l-5 14l-11 12l-20 12l-464 214l60 84l485 -218l36 1l29 28l126 137l-325 353q62 8 244 76z
M533 348l-189 -189h363q-130 150 -174 189z" />
    <glyph glyph-name="periodcentered" unicode="&#xb7;" horiz-adv-x="569" 
 />
    <glyph glyph-name="periodcentered" unicode="&#x2219;" horiz-adv-x="569" 
 />
    <glyph glyph-name="quotesinglbase" unicode="&#x201a;" horiz-adv-x="553" 
d="M453 927l11 -5q55 -24 97 -107q2 -65 -19 -114q-125 -288 -436 -421q-7 3 -55 -16l-25 3l-4 1q-29 13 -19 35l1 4q150 74 209 210l20 44l2 25q12 29 -59 86q-52 91 -14 177l4 11q21 48 100 88q92 21 187 -21z" />
    <glyph glyph-name="quotedblbase" unicode="&#x201e;" horiz-adv-x="834" 
d="M611 504h8q39 0 92 -40q20 -19 32 -72q4 -86 -48 -234h600v-158h-700q-96 -104 -136 -104h-4q-11 0 -16 24q47 46 64 80h-232q-95 -117 -160 -156h-16q-24 0 -24 24q76 75 88 132h-424v158h431q-5 10 -67 38q-48 50 -46 130q25 81 70 102q43 24 108 24h20
q128 -22 128 -124q0 -57 -34 -170h202v2q0 61 -44 72q-84 34 -84 136q14 66 52 100q49 36 140 36z" />
    <glyph glyph-name="perthousand" unicode="&#x2030;" horiz-adv-x="1337" 
d="M568 1156l119 -4q104 -16 190 -55q41 -15 63 -44q-76 -45 -76 -73q-23 -17 -38 -134h-7q0 -9 -7 -9q-47 14 -135 51l-52 5h-27q-209 0 -273 -168l-7 -47h3l401 84v-3q-10 -36 -14 -118l-380 -61q10 -56 21 -79l370 82l3 -3v-14l-17 -104l-315 -53v-3q79 -131 232 -131h3
q83 0 249 64q16 14 28 14v-3l35 -148q-50 -31 -91 -43h485v-159h-1463q94 45 94 143v3l-7 8l-4 5h443q-162 65 -235 211l-111 -17v3l7 36v23l-11 36h4l69 14q-16 76 -21 76l-93 -14v2l10 42v9l-10 42v3l66 11l-4 22q0 162 35 204q24 61 131 165q52 56 125 87q88 36 212 42z
" />
    <glyph glyph-name="Acircumflex" unicode="&#xc2;" horiz-adv-x="866" 
 />
    <glyph glyph-name="Ecircumflex" unicode="&#xca;" horiz-adv-x="1366" 
 />
    <glyph glyph-name="Aacute" unicode="&#xc1;" horiz-adv-x="1366" 
 />
    <glyph glyph-name="Edieresis" unicode="&#xcb;" horiz-adv-x="1366" 
 />
    <glyph glyph-name="Egrave" unicode="&#xc8;" horiz-adv-x="1366" 
 />
    <glyph glyph-name="Iacute" unicode="&#xcd;" horiz-adv-x="569" 
 />
    <glyph glyph-name="Icircumflex" unicode="&#xce;" horiz-adv-x="569" 
 />
    <glyph glyph-name="Idieresis" unicode="&#xcf;" horiz-adv-x="569" 
 />
    <glyph glyph-name="Igrave" unicode="&#xcc;" horiz-adv-x="569" 
 />
    <glyph glyph-name="Oacute" unicode="&#xd3;" horiz-adv-x="1593" 
 />
    <glyph glyph-name="Ocircumflex" unicode="&#xd4;" horiz-adv-x="1593" 
 />
    <glyph glyph-name="Ograve" unicode="&#xd2;" horiz-adv-x="1593" 
 />
    <glyph glyph-name="Uacute" unicode="&#xda;" horiz-adv-x="1479" 
 />
    <glyph glyph-name="Ucircumflex" unicode="&#xdb;" horiz-adv-x="1479" 
 />
    <glyph glyph-name="Ugrave" unicode="&#xd9;" horiz-adv-x="1479" 
 />
    <glyph glyph-name="dotlessi" unicode="&#x131;" horiz-adv-x="569" 
 />
    <glyph glyph-name="circumflex" unicode="&#x2c6;" horiz-adv-x="682" 
 />
    <glyph glyph-name="tilde" unicode="&#x2dc;" horiz-adv-x="682" 
 />
    <glyph glyph-name="uni02C9" unicode="&#x2c9;" horiz-adv-x="682" 
 />
    <glyph glyph-name="breve" unicode="&#x2d8;" horiz-adv-x="682" 
 />
    <glyph glyph-name="dotaccent" unicode="&#x2d9;" horiz-adv-x="682" 
 />
    <glyph glyph-name="ring" unicode="&#x2da;" horiz-adv-x="682" 
 />
    <glyph glyph-name="cedilla" unicode="&#xb8;" horiz-adv-x="682" 
 />
    <glyph glyph-name="hungarumlaut" unicode="&#x2dd;" horiz-adv-x="682" 
 />
    <glyph glyph-name="ogonek" unicode="&#x2db;" horiz-adv-x="682" 
 />
    <glyph glyph-name="caron" unicode="&#x2c7;" horiz-adv-x="682" 
 />
    <glyph glyph-name="Lslash" unicode="&#x141;" 
 />
    <glyph glyph-name="lslash" unicode="&#x142;" horiz-adv-x="455" 
 />
    <glyph glyph-name="Scaron" unicode="&#x160;" horiz-adv-x="1366" 
 />
    <glyph glyph-name="scaron" unicode="&#x161;" horiz-adv-x="1024" 
 />
    <glyph glyph-name="Zcaron" unicode="&#x17d;" horiz-adv-x="1251" 
 />
    <glyph glyph-name="zcaron" unicode="&#x17e;" horiz-adv-x="1024" 
 />
    <glyph glyph-name="brokenbar" unicode="&#xa6;" horiz-adv-x="532" 
 />
    <glyph glyph-name="Eth" unicode="&#xd0;" horiz-adv-x="1479" 
 />
    <glyph glyph-name="eth" unicode="&#xf0;" 
 />
    <glyph glyph-name="Yacute" unicode="&#xdd;" horiz-adv-x="1366" 
 />
    <glyph glyph-name="yacute" unicode="&#xfd;" horiz-adv-x="1024" 
 />
    <glyph glyph-name="Thorn" unicode="&#xde;" horiz-adv-x="1366" 
 />
    <glyph glyph-name="thorn" unicode="&#xfe;" 
 />
    <glyph glyph-name="minus" unicode="&#x2212;" horiz-adv-x="1196" 
 />
    <glyph glyph-name="multiply" unicode="&#xd7;" horiz-adv-x="1196" 
 />
    <glyph glyph-name="uni00B9" unicode="&#xb9;" horiz-adv-x="682" 
 />
    <glyph glyph-name="uni00B2" unicode="&#xb2;" horiz-adv-x="682" 
 />
    <glyph glyph-name="uni00B3" unicode="&#xb3;" horiz-adv-x="682" 
 />
    <glyph glyph-name="onehalf" unicode="&#xbd;" horiz-adv-x="1708" 
 />
    <glyph glyph-name="onequarter" unicode="&#xbc;" horiz-adv-x="1708" 
 />
    <glyph glyph-name="threequarters" unicode="&#xbe;" horiz-adv-x="1708" 
 />
    <glyph glyph-name="franc" unicode="&#x20a3;" 
 />
    <glyph glyph-name="Gbreve" unicode="&#x11e;" horiz-adv-x="1593" 
 />
    <glyph glyph-name="gbreve" unicode="&#x11f;" 
 />
    <glyph glyph-name="Idotaccent" unicode="&#x130;" horiz-adv-x="569" 
 />
    <glyph glyph-name="Scedilla" unicode="&#x15e;" horiz-adv-x="1366" 
 />
    <glyph glyph-name="scedilla" unicode="&#x15f;" horiz-adv-x="1024" 
 />
    <glyph glyph-name="Cacute" unicode="&#x106;" horiz-adv-x="1479" 
 />
    <glyph glyph-name="cacute" unicode="&#x107;" horiz-adv-x="1024" 
 />
    <glyph glyph-name="Ccaron" unicode="&#x10c;" horiz-adv-x="1479" 
 />
    <glyph glyph-name="ccaron" unicode="&#x10d;" horiz-adv-x="1024" 
 />
    <glyph glyph-name="dcroat" unicode="&#x111;" 
 />
    <glyph glyph-name="currency" unicode="&#xa4;" 
 />
    <glyph glyph-name="macron" unicode="&#xaf;" horiz-adv-x="1131" 
 />
    <glyph glyph-name="Amacron" unicode="&#x100;" horiz-adv-x="1366" 
 />
    <glyph glyph-name="amacron" unicode="&#x101;" 
 />
    <glyph glyph-name="Abreve" unicode="&#x102;" horiz-adv-x="1366" 
 />
    <glyph glyph-name="abreve" unicode="&#x103;" 
 />
    <glyph glyph-name="Aogonek" unicode="&#x104;" horiz-adv-x="1366" 
 />
    <glyph glyph-name="aogonek" unicode="&#x105;" 
 />
    <glyph glyph-name="Ccircumflex" unicode="&#x108;" horiz-adv-x="1479" 
 />
    <glyph glyph-name="ccircumflex" unicode="&#x109;" horiz-adv-x="1024" 
 />
    <glyph glyph-name="Cdotaccent" unicode="&#x10a;" horiz-adv-x="1479" 
 />
    <glyph glyph-name="cdotaccent" unicode="&#x10b;" horiz-adv-x="1024" 
 />
    <glyph glyph-name="Dcaron" unicode="&#x10e;" horiz-adv-x="1479" 
 />
    <glyph glyph-name="dcaron" unicode="&#x10f;" horiz-adv-x="1259" 
 />
    <glyph glyph-name="Dcroat" unicode="&#x110;" horiz-adv-x="1479" 
 />
    <glyph glyph-name="Emacron" unicode="&#x112;" horiz-adv-x="1366" 
 />
    <glyph glyph-name="emacron" unicode="&#x113;" 
 />
    <glyph glyph-name="Ebreve" unicode="&#x114;" horiz-adv-x="1366" 
 />
    <glyph glyph-name="ebreve" unicode="&#x115;" 
 />
    <glyph glyph-name="Edotaccent" unicode="&#x116;" horiz-adv-x="1366" 
 />
    <glyph glyph-name="edotaccent" unicode="&#x117;" 
 />
    <glyph glyph-name="Eogonek" unicode="&#x118;" horiz-adv-x="1366" 
 />
    <glyph glyph-name="eogonek" unicode="&#x119;" 
 />
    <glyph glyph-name="Ecaron" unicode="&#x11a;" horiz-adv-x="1366" 
 />
    <glyph glyph-name="ecaron" unicode="&#x11b;" 
 />
    <glyph glyph-name="Gcircumflex" unicode="&#x11c;" horiz-adv-x="1593" 
 />
    <glyph glyph-name="gcircumflex" unicode="&#x11d;" 
 />
    <glyph glyph-name="Gdotaccent" unicode="&#x120;" horiz-adv-x="1593" 
 />
    <glyph glyph-name="gdotaccent" unicode="&#x121;" 
 />
    <glyph glyph-name="Gcommaaccent" unicode="&#x122;" horiz-adv-x="1593" 
 />
    <glyph glyph-name="gcommaaccent" unicode="&#x123;" 
 />
    <glyph glyph-name="Hcircumflex" unicode="&#x124;" horiz-adv-x="1479" 
 />
    <glyph glyph-name="hcircumflex" unicode="&#x125;" 
 />
    <glyph glyph-name="Hbar" unicode="&#x126;" horiz-adv-x="1479" 
 />
    <glyph glyph-name="hbar" unicode="&#x127;" 
 />
    <glyph glyph-name="Itilde" unicode="&#x128;" horiz-adv-x="569" 
 />
    <glyph glyph-name="itilde" unicode="&#x129;" horiz-adv-x="569" 
 />
    <glyph glyph-name="Imacron" unicode="&#x12a;" horiz-adv-x="569" 
 />
    <glyph glyph-name="imacron" unicode="&#x12b;" horiz-adv-x="569" 
 />
    <glyph glyph-name="Ibreve" unicode="&#x12c;" horiz-adv-x="569" 
 />
    <glyph glyph-name="ibreve" unicode="&#x12d;" horiz-adv-x="569" 
 />
    <glyph glyph-name="Iogonek" unicode="&#x12e;" horiz-adv-x="569" 
 />
    <glyph glyph-name="iogonek" unicode="&#x12f;" horiz-adv-x="455" 
 />
    <glyph glyph-name="IJ" unicode="&#x132;" horiz-adv-x="1505" 
 />
    <glyph glyph-name="ij" unicode="&#x133;" horiz-adv-x="909" 
 />
    <glyph glyph-name="Jcircumflex" unicode="&#x134;" horiz-adv-x="1024" 
 />
    <glyph glyph-name="jcircumflex" unicode="&#x135;" horiz-adv-x="455" 
 />
    <glyph glyph-name="Kcommaaccent" unicode="&#x136;" horiz-adv-x="1366" 
 />
    <glyph glyph-name="kcommaaccent" unicode="&#x137;" horiz-adv-x="1024" 
 />
    <glyph glyph-name="kgreenlandic" unicode="&#x138;" horiz-adv-x="1024" 
 />
    <glyph glyph-name="Lacute" unicode="&#x139;" 
 />
    <glyph glyph-name="lacute" unicode="&#x13a;" horiz-adv-x="455" 
 />
    <glyph glyph-name="Lcommaaccent" unicode="&#x13b;" 
 />
    <glyph glyph-name="lcommaaccent" unicode="&#x13c;" horiz-adv-x="455" 
 />
    <glyph glyph-name="Lcaron" unicode="&#x13d;" 
 />
    <glyph glyph-name="lcaron" unicode="&#x13e;" horiz-adv-x="597" 
 />
    <glyph glyph-name="Ldot" unicode="&#x13f;" 
 />
    <glyph glyph-name="ldot" unicode="&#x140;" horiz-adv-x="684" 
 />
    <glyph glyph-name="Nacute" unicode="&#x143;" horiz-adv-x="1479" 
 />
    <glyph glyph-name="nacute" unicode="&#x144;" 
 />
    <glyph glyph-name="Ncommaaccent" unicode="&#x145;" horiz-adv-x="1479" 
 />
    <glyph glyph-name="ncommaaccent" unicode="&#x146;" 
 />
    <glyph glyph-name="Ncaron" unicode="&#x147;" horiz-adv-x="1479" 
 />
    <glyph glyph-name="ncaron" unicode="&#x148;" 
 />
    <glyph glyph-name="napostrophe" unicode="&#x149;" horiz-adv-x="1237" 
 />
    <glyph glyph-name="Eng" unicode="&#x14a;" horiz-adv-x="1481" 
 />
    <glyph glyph-name="eng" unicode="&#x14b;" 
 />
    <glyph glyph-name="Omacron" unicode="&#x14c;" horiz-adv-x="1593" 
 />
    <glyph glyph-name="omacron" unicode="&#x14d;" 
 />
    <glyph glyph-name="Obreve" unicode="&#x14e;" horiz-adv-x="1593" 
 />
    <glyph glyph-name="obreve" unicode="&#x14f;" 
 />
    <glyph glyph-name="Ohungarumlaut" unicode="&#x150;" horiz-adv-x="1593" 
 />
    <glyph glyph-name="ohungarumlaut" unicode="&#x151;" 
 />
    <glyph glyph-name="Racute" unicode="&#x154;" horiz-adv-x="1479" 
 />
    <glyph glyph-name="racute" unicode="&#x155;" horiz-adv-x="682" 
 />
    <glyph glyph-name="Rcommaaccent" unicode="&#x156;" horiz-adv-x="1479" 
 />
    <glyph glyph-name="rcommaaccent" unicode="&#x157;" horiz-adv-x="682" 
 />
    <glyph glyph-name="Rcaron" unicode="&#x158;" horiz-adv-x="1479" 
 />
    <glyph glyph-name="rcaron" unicode="&#x159;" horiz-adv-x="682" 
 />
    <glyph glyph-name="Sacute" unicode="&#x15a;" horiz-adv-x="1366" 
 />
    <glyph glyph-name="sacute" unicode="&#x15b;" horiz-adv-x="1024" 
 />
    <glyph glyph-name="Scircumflex" unicode="&#x15c;" horiz-adv-x="1366" 
 />
    <glyph glyph-name="scircumflex" unicode="&#x15d;" horiz-adv-x="1024" 
 />
    <glyph glyph-name="Tcommaaccent" unicode="&#x162;" horiz-adv-x="1251" 
 />
    <glyph glyph-name="tcommaaccent" unicode="&#x163;" horiz-adv-x="569" 
 />
    <glyph glyph-name="Tcaron" unicode="&#x164;" horiz-adv-x="1251" 
 />
    <glyph glyph-name="tcaron" unicode="&#x165;" horiz-adv-x="768" 
 />
    <glyph glyph-name="Tbar" unicode="&#x166;" horiz-adv-x="1251" 
 />
    <glyph glyph-name="tbar" unicode="&#x167;" horiz-adv-x="569" 
 />
    <glyph glyph-name="Utilde" unicode="&#x168;" horiz-adv-x="1479" 
 />
    <glyph glyph-name="utilde" unicode="&#x169;" 
 />
    <glyph glyph-name="Umacron" unicode="&#x16a;" horiz-adv-x="1479" 
 />
    <glyph glyph-name="umacron" unicode="&#x16b;" 
 />
    <glyph glyph-name="Ubreve" unicode="&#x16c;" horiz-adv-x="1479" 
 />
    <glyph glyph-name="ubreve" unicode="&#x16d;" 
 />
    <glyph glyph-name="Uring" unicode="&#x16e;" horiz-adv-x="1479" 
 />
    <glyph glyph-name="uring" unicode="&#x16f;" 
 />
    <glyph glyph-name="Uhungarumlaut" unicode="&#x170;" horiz-adv-x="1479" 
 />
    <glyph glyph-name="uhungarumlaut" unicode="&#x171;" 
 />
    <glyph glyph-name="Uogonek" unicode="&#x172;" horiz-adv-x="1479" 
 />
    <glyph glyph-name="uogonek" unicode="&#x173;" 
 />
    <glyph glyph-name="Wcircumflex" unicode="&#x174;" horiz-adv-x="1933" 
 />
    <glyph glyph-name="wcircumflex" unicode="&#x175;" horiz-adv-x="1479" 
 />
    <glyph glyph-name="Ycircumflex" unicode="&#x176;" horiz-adv-x="1366" 
 />
    <glyph glyph-name="ycircumflex" unicode="&#x177;" horiz-adv-x="1024" 
 />
    <glyph glyph-name="Zacute" unicode="&#x179;" horiz-adv-x="1251" 
 />
    <glyph glyph-name="zacute" unicode="&#x17a;" horiz-adv-x="1024" 
 />
    <glyph glyph-name="Zdotaccent" unicode="&#x17b;" horiz-adv-x="1251" 
 />
    <glyph glyph-name="zdotaccent" unicode="&#x17c;" horiz-adv-x="1024" 
 />
    <glyph glyph-name="longs" unicode="&#x17f;" horiz-adv-x="455" 
 />
    <glyph glyph-name="Aringacute" unicode="&#x1fa;" horiz-adv-x="1366" 
 />
    <glyph glyph-name="aringacute" unicode="&#x1fb;" 
 />
    <glyph glyph-name="AEacute" unicode="&#x1fc;" horiz-adv-x="2048" 
 />
    <glyph glyph-name="aeacute" unicode="&#x1fd;" horiz-adv-x="1821" 
 />
    <glyph glyph-name="Oslashacute" unicode="&#x1fe;" horiz-adv-x="1593" 
 />
    <glyph glyph-name="oslashacute" unicode="&#x1ff;" horiz-adv-x="1251" 
 />
    <glyph glyph-name="tonos" unicode="&#x384;" horiz-adv-x="682" 
 />
    <glyph glyph-name="dieresistonos" unicode="&#x385;" horiz-adv-x="682" 
 />
    <glyph glyph-name="Alphatonos" unicode="&#x386;" horiz-adv-x="1367" 
 />
    <glyph glyph-name="anoteleia" unicode="&#x387;" horiz-adv-x="569" 
 />
    <glyph glyph-name="Epsilontonos" unicode="&#x388;" horiz-adv-x="1606" 
 />
    <glyph glyph-name="Etatonos" unicode="&#x389;" horiz-adv-x="1716" 
 />
    <glyph glyph-name="Iotatonos" unicode="&#x38a;" horiz-adv-x="786" 
 />
    <glyph glyph-name="Omicrontonos" unicode="&#x38c;" horiz-adv-x="1586" 
 />
    <glyph glyph-name="Upsilontonos" unicode="&#x38e;" horiz-adv-x="1752" 
 />
    <glyph glyph-name="Omegatonos" unicode="&#x38f;" horiz-adv-x="1541" 
 />
    <glyph glyph-name="iotadieresistonos" unicode="&#x390;" horiz-adv-x="455" 
 />
    <glyph glyph-name="Alpha" unicode="&#x391;" horiz-adv-x="1366" 
 />
    <glyph glyph-name="Beta" unicode="&#x392;" horiz-adv-x="1366" 
 />
    <glyph glyph-name="Gamma" unicode="&#x393;" horiz-adv-x="1128" 
 />
    <glyph glyph-name="uni0394" unicode="&#x394;" horiz-adv-x="1368" 
 />
    <glyph glyph-name="Epsilon" unicode="&#x395;" horiz-adv-x="1366" 
 />
    <glyph glyph-name="Zeta" unicode="&#x396;" horiz-adv-x="1251" 
 />
    <glyph glyph-name="Eta" unicode="&#x397;" horiz-adv-x="1479" 
 />
    <glyph glyph-name="Theta" unicode="&#x398;" horiz-adv-x="1593" 
 />
    <glyph glyph-name="Iota" unicode="&#x399;" horiz-adv-x="569" 
 />
    <glyph glyph-name="Kappa" unicode="&#x39a;" horiz-adv-x="1366" 
 />
    <glyph glyph-name="Lambda" unicode="&#x39b;" horiz-adv-x="1368" 
 />
    <glyph glyph-name="Mu" unicode="&#x39c;" horiz-adv-x="1706" 
 />
    <glyph glyph-name="Nu" unicode="&#x39d;" horiz-adv-x="1479" 
 />
    <glyph glyph-name="Xi" unicode="&#x39e;" horiz-adv-x="1331" 
 />
    <glyph glyph-name="Omicron" unicode="&#x39f;" horiz-adv-x="1593" 
 />
    <glyph glyph-name="Pi" unicode="&#x3a0;" horiz-adv-x="1479" 
 />
    <glyph glyph-name="Rho" unicode="&#x3a1;" horiz-adv-x="1366" 
 />
    <glyph glyph-name="Sigma" unicode="&#x3a3;" horiz-adv-x="1266" 
 />
    <glyph glyph-name="Tau" unicode="&#x3a4;" horiz-adv-x="1251" 
 />
    <glyph glyph-name="Upsilon" unicode="&#x3a5;" horiz-adv-x="1366" 
 />
    <glyph glyph-name="Phi" unicode="&#x3a6;" horiz-adv-x="1634" 
 />
    <glyph glyph-name="Chi" unicode="&#x3a7;" horiz-adv-x="1366" 
 />
    <glyph glyph-name="Psi" unicode="&#x3a8;" horiz-adv-x="1711" 
 />
    <glyph glyph-name="uni03A9" unicode="&#x3a9;" horiz-adv-x="1531" 
 />
    <glyph glyph-name="Iotadieresis" unicode="&#x3aa;" horiz-adv-x="569" 
 />
    <glyph glyph-name="Upsilondieresis" unicode="&#x3ab;" horiz-adv-x="1366" 
 />
    <glyph glyph-name="alphatonos" unicode="&#x3ac;" horiz-adv-x="1184" 
 />
    <glyph glyph-name="epsilontonos" unicode="&#x3ad;" horiz-adv-x="913" 
 />
    <glyph glyph-name="etatonos" unicode="&#x3ae;" 
 />
    <glyph glyph-name="iotatonos" unicode="&#x3af;" horiz-adv-x="455" 
 />
    <glyph glyph-name="upsilondieresistonos" unicode="&#x3b0;" horiz-adv-x="1120" 
 />
    <glyph glyph-name="alpha" unicode="&#x3b1;" horiz-adv-x="1184" 
 />
    <glyph glyph-name="beta" unicode="&#x3b2;" horiz-adv-x="1178" 
 />
    <glyph glyph-name="gamma" unicode="&#x3b3;" horiz-adv-x="1024" 
 />
    <glyph glyph-name="delta" unicode="&#x3b4;" horiz-adv-x="1140" 
 />
    <glyph glyph-name="epsilon" unicode="&#x3b5;" horiz-adv-x="913" 
 />
    <glyph glyph-name="zeta" unicode="&#x3b6;" horiz-adv-x="903" 
 />
    <glyph glyph-name="eta" unicode="&#x3b7;" 
 />
    <glyph glyph-name="theta" unicode="&#x3b8;" 
 />
    <glyph glyph-name="iota" unicode="&#x3b9;" horiz-adv-x="455" 
 />
    <glyph glyph-name="kappa" unicode="&#x3ba;" horiz-adv-x="1024" 
 />
    <glyph glyph-name="lambda" unicode="&#x3bb;" horiz-adv-x="1024" 
 />
    <glyph glyph-name="uni03BC" unicode="&#x3bc;" horiz-adv-x="1180" 
 />
    <glyph glyph-name="nu" unicode="&#x3bd;" horiz-adv-x="1024" 
 />
    <glyph glyph-name="xi" unicode="&#x3be;" horiz-adv-x="917" 
 />
    <glyph glyph-name="omicron" unicode="&#x3bf;" 
 />
    <glyph glyph-name="pi" unicode="&#x3c0;" horiz-adv-x="1413" 
 />
    <glyph glyph-name="rho" unicode="&#x3c1;" horiz-adv-x="1165" 
 />
    <glyph glyph-name="sigma1" unicode="&#x3c2;" horiz-adv-x="987" 
 />
    <glyph glyph-name="sigma" unicode="&#x3c3;" horiz-adv-x="1264" 
 />
    <glyph glyph-name="tau" unicode="&#x3c4;" horiz-adv-x="809" 
 />
    <glyph glyph-name="upsilon" unicode="&#x3c5;" horiz-adv-x="1120" 
 />
    <glyph glyph-name="phi" unicode="&#x3c6;" horiz-adv-x="1328" 
 />
    <glyph glyph-name="chi" unicode="&#x3c7;" horiz-adv-x="1075" 
 />
    <glyph glyph-name="psi" unicode="&#x3c8;" horiz-adv-x="1460" 
 />
    <glyph glyph-name="omega" unicode="&#x3c9;" horiz-adv-x="1599" 
 />
    <glyph glyph-name="iotadieresis" unicode="&#x3ca;" horiz-adv-x="455" 
 />
    <glyph glyph-name="upsilondieresis" unicode="&#x3cb;" horiz-adv-x="1120" 
 />
    <glyph glyph-name="omicrontonos" unicode="&#x3cc;" 
 />
    <glyph glyph-name="upsilontonos" unicode="&#x3cd;" horiz-adv-x="1120" 
 />
    <glyph glyph-name="omegatonos" unicode="&#x3ce;" horiz-adv-x="1599" 
 />
    <glyph glyph-name="afii10023" unicode="&#x401;" horiz-adv-x="1367" 
 />
    <glyph glyph-name="afii10051" unicode="&#x402;" horiz-adv-x="1771" 
 />
    <glyph glyph-name="afii10052" unicode="&#x403;" horiz-adv-x="1109" 
 />
    <glyph glyph-name="afii10053" unicode="&#x404;" horiz-adv-x="1472" 
 />
    <glyph glyph-name="afii10054" unicode="&#x405;" horiz-adv-x="1366" 
 />
    <glyph glyph-name="afii10055" unicode="&#x406;" horiz-adv-x="569" 
 />
    <glyph glyph-name="afii10056" unicode="&#x407;" horiz-adv-x="569" 
 />
    <glyph glyph-name="afii10057" unicode="&#x408;" horiz-adv-x="1024" 
 />
    <glyph glyph-name="afii10058" unicode="&#x409;" horiz-adv-x="2165" 
 />
    <glyph glyph-name="afii10059" unicode="&#x40a;" horiz-adv-x="2069" 
 />
    <glyph glyph-name="afii10060" unicode="&#x40b;" horiz-adv-x="1749" 
 />
    <glyph glyph-name="afii10061" unicode="&#x40c;" horiz-adv-x="1193" 
 />
    <glyph glyph-name="afii10062" unicode="&#x40e;" horiz-adv-x="1301" 
 />
    <glyph glyph-name="afii10145" unicode="&#x40f;" horiz-adv-x="1472" 
 />
    <glyph glyph-name="afii10017" unicode="&#x410;" horiz-adv-x="1366" 
 />
    <glyph glyph-name="afii10018" unicode="&#x411;" horiz-adv-x="1344" 
 />
    <glyph glyph-name="afii10019" unicode="&#x412;" horiz-adv-x="1366" 
 />
    <glyph glyph-name="afii10020" unicode="&#x413;" horiz-adv-x="1109" 
 />
    <glyph glyph-name="afii10021" unicode="&#x414;" horiz-adv-x="1387" 
 />
    <glyph glyph-name="afii10022" unicode="&#x415;" horiz-adv-x="1366" 
 />
    <glyph glyph-name="afii10024" unicode="&#x416;" horiz-adv-x="1891" 
 />
    <glyph glyph-name="afii10025" unicode="&#x417;" horiz-adv-x="1237" 
 />
    <glyph glyph-name="afii10026" unicode="&#x418;" horiz-adv-x="1472" 
 />
    <glyph glyph-name="afii10027" unicode="&#x419;" horiz-adv-x="1472" 
 />
    <glyph glyph-name="afii10028" unicode="&#x41a;" horiz-adv-x="1193" 
 />
    <glyph glyph-name="afii10029" unicode="&#x41b;" horiz-adv-x="1344" 
 />
    <glyph glyph-name="afii10030" unicode="&#x41c;" horiz-adv-x="1706" 
 />
    <glyph glyph-name="afii10031" unicode="&#x41d;" horiz-adv-x="1479" 
 />
    <glyph glyph-name="afii10032" unicode="&#x41e;" horiz-adv-x="1593" 
 />
    <glyph glyph-name="afii10033" unicode="&#x41f;" horiz-adv-x="1472" 
 />
    <glyph glyph-name="afii10034" unicode="&#x420;" horiz-adv-x="1366" 
 />
    <glyph glyph-name="afii10035" unicode="&#x421;" horiz-adv-x="1479" 
 />
    <glyph glyph-name="afii10036" unicode="&#x422;" horiz-adv-x="1251" 
 />
    <glyph glyph-name="afii10037" unicode="&#x423;" horiz-adv-x="1301" 
 />
    <glyph glyph-name="afii10038" unicode="&#x424;" horiz-adv-x="1557" 
 />
    <glyph glyph-name="afii10039" unicode="&#x425;" horiz-adv-x="1366" 
 />
    <glyph glyph-name="afii10040" unicode="&#x426;" horiz-adv-x="1515" 
 />
    <glyph glyph-name="afii10041" unicode="&#x427;" horiz-adv-x="1365" 
 />
    <glyph glyph-name="afii10042" unicode="&#x428;" horiz-adv-x="1877" 
 />
    <glyph glyph-name="afii10043" unicode="&#x429;" horiz-adv-x="1920" 
 />
    <glyph glyph-name="afii10044" unicode="&#x42a;" horiz-adv-x="1621" 
 />
    <glyph glyph-name="afii10045" unicode="&#x42b;" horiz-adv-x="1813" 
 />
    <glyph glyph-name="afii10046" unicode="&#x42c;" horiz-adv-x="1344" 
 />
    <glyph glyph-name="afii10047" unicode="&#x42d;" horiz-adv-x="1472" 
 />
    <glyph glyph-name="afii10048" unicode="&#x42e;" horiz-adv-x="2069" 
 />
    <glyph glyph-name="afii10049" unicode="&#x42f;" horiz-adv-x="1479" 
 />
    <glyph glyph-name="afii10065" unicode="&#x430;" 
 />
    <glyph glyph-name="afii10066" unicode="&#x431;" horiz-adv-x="1173" 
 />
    <glyph glyph-name="afii10067" unicode="&#x432;" horiz-adv-x="1088" 
 />
    <glyph glyph-name="afii10068" unicode="&#x433;" horiz-adv-x="747" 
 />
    <glyph glyph-name="afii10069" unicode="&#x434;" horiz-adv-x="1195" 
 />
    <glyph glyph-name="afii10070" unicode="&#x435;" 
 />
    <glyph glyph-name="afii10072" unicode="&#x436;" horiz-adv-x="1370" 
 />
    <glyph glyph-name="afii10073" unicode="&#x437;" horiz-adv-x="939" 
 />
    <glyph glyph-name="afii10074" unicode="&#x438;" horiz-adv-x="1144" 
 />
    <glyph glyph-name="afii10075" unicode="&#x439;" horiz-adv-x="1144" 
 />
    <glyph glyph-name="afii10076" unicode="&#x43a;" horiz-adv-x="896" 
 />
    <glyph glyph-name="afii10077" unicode="&#x43b;" horiz-adv-x="1195" 
 />
    <glyph glyph-name="afii10078" unicode="&#x43c;" horiz-adv-x="1408" 
 />
    <glyph glyph-name="afii10079" unicode="&#x43d;" horiz-adv-x="1131" 
 />
    <glyph glyph-name="afii10080" unicode="&#x43e;" 
 />
    <glyph glyph-name="afii10081" unicode="&#x43f;" horiz-adv-x="1109" 
 />
    <glyph glyph-name="afii10082" unicode="&#x440;" 
 />
    <glyph glyph-name="afii10083" unicode="&#x441;" horiz-adv-x="1024" 
 />
    <glyph glyph-name="afii10084" unicode="&#x442;" horiz-adv-x="938" 
 />
    <glyph glyph-name="afii10085" unicode="&#x443;" horiz-adv-x="1024" 
 />
    <glyph glyph-name="afii10086" unicode="&#x444;" horiz-adv-x="1685" 
 />
    <glyph glyph-name="afii10087" unicode="&#x445;" horiz-adv-x="1024" 
 />
    <glyph glyph-name="afii10088" unicode="&#x446;" horiz-adv-x="1173" 
 />
    <glyph glyph-name="afii10089" unicode="&#x447;" horiz-adv-x="1067" 
 />
    <glyph glyph-name="afii10090" unicode="&#x448;" horiz-adv-x="1643" 
 />
    <glyph glyph-name="afii10091" unicode="&#x449;" horiz-adv-x="1685" 
 />
    <glyph glyph-name="afii10092" unicode="&#x44a;" horiz-adv-x="1280" 
 />
    <glyph glyph-name="afii10093" unicode="&#x44b;" horiz-adv-x="1472" 
 />
    <glyph glyph-name="afii10094" unicode="&#x44c;" horiz-adv-x="1067" 
 />
    <glyph glyph-name="afii10095" unicode="&#x44d;" horiz-adv-x="1045" 
 />
    <glyph glyph-name="afii10096" unicode="&#x44e;" horiz-adv-x="1536" 
 />
    <glyph glyph-name="afii10097" unicode="&#x44f;" horiz-adv-x="1109" 
 />
    <glyph glyph-name="afii10071" unicode="&#x451;" 
 />
    <glyph glyph-name="afii10099" unicode="&#x452;" 
 />
    <glyph glyph-name="afii10100" unicode="&#x453;" horiz-adv-x="747" 
 />
    <glyph glyph-name="afii10101" unicode="&#x454;" horiz-adv-x="1045" 
 />
    <glyph glyph-name="afii10102" unicode="&#x455;" horiz-adv-x="1024" 
 />
    <glyph glyph-name="afii10103" unicode="&#x456;" horiz-adv-x="455" 
 />
    <glyph glyph-name="afii10104" unicode="&#x457;" horiz-adv-x="569" 
 />
    <glyph glyph-name="afii10105" unicode="&#x458;" horiz-adv-x="455" 
 />
    <glyph glyph-name="afii10106" unicode="&#x459;" horiz-adv-x="1856" 
 />
    <glyph glyph-name="afii10107" unicode="&#x45a;" horiz-adv-x="1664" 
 />
    <glyph glyph-name="afii10108" unicode="&#x45b;" 
 />
    <glyph glyph-name="afii10109" unicode="&#x45c;" horiz-adv-x="896" 
 />
    <glyph glyph-name="afii10110" unicode="&#x45e;" horiz-adv-x="1024" 
 />
    <glyph glyph-name="afii10193" unicode="&#x45f;" horiz-adv-x="1131" 
 />
    <glyph glyph-name="afii10050" unicode="&#x490;" horiz-adv-x="1001" 
 />
    <glyph glyph-name="afii10098" unicode="&#x491;" horiz-adv-x="842" 
 />
    <glyph glyph-name="Wgrave" unicode="&#x1e80;" horiz-adv-x="1933" 
 />
    <glyph glyph-name="wgrave" unicode="&#x1e81;" horiz-adv-x="1479" 
 />
    <glyph glyph-name="Wacute" unicode="&#x1e82;" horiz-adv-x="1933" 
 />
    <glyph glyph-name="wacute" unicode="&#x1e83;" horiz-adv-x="1479" 
 />
    <glyph glyph-name="Wdieresis" unicode="&#x1e84;" horiz-adv-x="1933" 
 />
    <glyph glyph-name="wdieresis" unicode="&#x1e85;" horiz-adv-x="1479" 
 />
    <glyph glyph-name="Ygrave" unicode="&#x1ef2;" horiz-adv-x="1366" 
 />
    <glyph glyph-name="ygrave" unicode="&#x1ef3;" horiz-adv-x="1024" 
 />
    <glyph glyph-name="afii00208" unicode="&#x2015;" horiz-adv-x="2048" 
 />
    <glyph glyph-name="underscoredbl" unicode="&#x2017;" horiz-adv-x="1131" 
 />
    <glyph glyph-name="quotereversed" unicode="&#x201b;" horiz-adv-x="455" 
 />
    <glyph glyph-name="minute" unicode="&#x2032;" horiz-adv-x="384" 
 />
    <glyph glyph-name="second" unicode="&#x2033;" horiz-adv-x="725" 
 />
    <glyph glyph-name="exclamdbl" unicode="&#x203c;" horiz-adv-x="1024" 
 />
    <glyph glyph-name="uni203E" unicode="&#x203e;" horiz-adv-x="682" 
 />
    <glyph glyph-name="uni207F" unicode="&#x207f;" horiz-adv-x="747" 
 />
    <glyph glyph-name="lira" unicode="&#x20a4;" 
 />
    <glyph glyph-name="peseta" unicode="&#x20a7;" horiz-adv-x="2240" 
 />
    <glyph glyph-name="afii61248" unicode="&#x2105;" horiz-adv-x="1813" 
 />
    <glyph glyph-name="afii61289" unicode="&#x2113;" horiz-adv-x="662" 
 />
    <glyph glyph-name="afii61352" unicode="&#x2116;" horiz-adv-x="2197" 
 />
    <glyph glyph-name="estimated" unicode="&#x212e;" horiz-adv-x="1229" 
 />
    <glyph glyph-name="oneeighth" unicode="&#x215b;" horiz-adv-x="1708" 
 />
    <glyph glyph-name="threeeighths" unicode="&#x215c;" horiz-adv-x="1708" 
 />
    <glyph glyph-name="fiveeighths" unicode="&#x215d;" horiz-adv-x="1708" 
 />
    <glyph glyph-name="seveneighths" unicode="&#x215e;" horiz-adv-x="1708" 
 />
    <glyph glyph-name="arrowleft" unicode="&#x2190;" horiz-adv-x="2048" 
 />
    <glyph glyph-name="arrowup" unicode="&#x2191;" horiz-adv-x="1024" 
 />
    <glyph glyph-name="arrowright" unicode="&#x2192;" horiz-adv-x="2048" 
 />
    <glyph glyph-name="arrowdown" unicode="&#x2193;" horiz-adv-x="1024" 
 />
    <glyph glyph-name="arrowboth" unicode="&#x2194;" horiz-adv-x="2048" 
 />
    <glyph glyph-name="arrowupdn" unicode="&#x2195;" horiz-adv-x="1024" 
 />
    <glyph glyph-name="arrowupdnbse" unicode="&#x21a8;" horiz-adv-x="1024" 
 />
    <glyph glyph-name="orthogonal" unicode="&#x221f;" horiz-adv-x="2005" 
 />
    <glyph glyph-name="intersection" unicode="&#x2229;" horiz-adv-x="1472" 
 />
    <glyph glyph-name="equivalence" unicode="&#x2261;" horiz-adv-x="1195" 
 />
    <glyph glyph-name="house" unicode="&#x2302;" horiz-adv-x="1237" 
 />
    <glyph glyph-name="revlogicalnot" unicode="&#x2310;" horiz-adv-x="1196" 
 />
    <glyph glyph-name="integraltp" unicode="&#x2320;" horiz-adv-x="1237" 
 />
    <glyph glyph-name="integralbt" unicode="&#x2321;" horiz-adv-x="1237" 
 />
    <glyph glyph-name="SF100000" unicode="&#x2500;" horiz-adv-x="1451" 
 />
    <glyph glyph-name="SF110000" unicode="&#x2502;" horiz-adv-x="1280" 
 />
    <glyph glyph-name="SF010000" unicode="&#x250c;" horiz-adv-x="1451" 
 />
    <glyph glyph-name="SF030000" unicode="&#x2510;" horiz-adv-x="1451" 
 />
    <glyph glyph-name="SF020000" unicode="&#x2514;" horiz-adv-x="1451" 
 />
    <glyph glyph-name="SF040000" unicode="&#x2518;" horiz-adv-x="1451" 
 />
    <glyph glyph-name="SF080000" unicode="&#x251c;" horiz-adv-x="1451" 
 />
    <glyph glyph-name="SF090000" unicode="&#x2524;" horiz-adv-x="1451" 
 />
    <glyph glyph-name="SF060000" unicode="&#x252c;" horiz-adv-x="1451" 
 />
    <glyph glyph-name="SF070000" unicode="&#x2534;" horiz-adv-x="1451" 
 />
    <glyph glyph-name="SF050000" unicode="&#x253c;" horiz-adv-x="1451" 
 />
    <glyph glyph-name="SF430000" unicode="&#x2550;" horiz-adv-x="1451" 
 />
    <glyph glyph-name="SF240000" unicode="&#x2551;" horiz-adv-x="1451" 
 />
    <glyph glyph-name="SF510000" unicode="&#x2552;" horiz-adv-x="1451" 
 />
    <glyph glyph-name="SF520000" unicode="&#x2553;" horiz-adv-x="1451" 
 />
    <glyph glyph-name="SF390000" unicode="&#x2554;" horiz-adv-x="1451" 
 />
    <glyph glyph-name="SF220000" unicode="&#x2555;" horiz-adv-x="1451" 
 />
    <glyph glyph-name="SF210000" unicode="&#x2556;" horiz-adv-x="1451" 
 />
    <glyph glyph-name="SF250000" unicode="&#x2557;" horiz-adv-x="1451" 
 />
    <glyph glyph-name="SF500000" unicode="&#x2558;" horiz-adv-x="1451" 
 />
    <glyph glyph-name="SF490000" unicode="&#x2559;" horiz-adv-x="1451" 
 />
    <glyph glyph-name="SF380000" unicode="&#x255a;" horiz-adv-x="1451" 
 />
    <glyph glyph-name="SF280000" unicode="&#x255b;" horiz-adv-x="1451" 
 />
    <glyph glyph-name="SF270000" unicode="&#x255c;" horiz-adv-x="1451" 
 />
    <glyph glyph-name="SF260000" unicode="&#x255d;" horiz-adv-x="1451" 
 />
    <glyph glyph-name="SF360000" unicode="&#x255e;" horiz-adv-x="1451" 
 />
    <glyph glyph-name="SF370000" unicode="&#x255f;" horiz-adv-x="1451" 
 />
    <glyph glyph-name="SF420000" unicode="&#x2560;" horiz-adv-x="1451" 
 />
    <glyph glyph-name="SF190000" unicode="&#x2561;" horiz-adv-x="1451" 
 />
    <glyph glyph-name="SF200000" unicode="&#x2562;" horiz-adv-x="1451" 
 />
    <glyph glyph-name="SF230000" unicode="&#x2563;" horiz-adv-x="1451" 
 />
    <glyph glyph-name="SF470000" unicode="&#x2564;" horiz-adv-x="1451" 
 />
    <glyph glyph-name="SF480000" unicode="&#x2565;" horiz-adv-x="1451" 
 />
    <glyph glyph-name="SF410000" unicode="&#x2566;" horiz-adv-x="1451" 
 />
    <glyph glyph-name="SF450000" unicode="&#x2567;" horiz-adv-x="1451" 
 />
    <glyph glyph-name="SF460000" unicode="&#x2568;" horiz-adv-x="1451" 
 />
    <glyph glyph-name="SF400000" unicode="&#x2569;" horiz-adv-x="1451" 
 />
    <glyph glyph-name="SF540000" unicode="&#x256a;" horiz-adv-x="1451" 
 />
    <glyph glyph-name="SF530000" unicode="&#x256b;" horiz-adv-x="1451" 
 />
    <glyph glyph-name="SF440000" unicode="&#x256c;" horiz-adv-x="1451" 
 />
    <glyph glyph-name="upblock" unicode="&#x2580;" horiz-adv-x="1451" 
 />
    <glyph glyph-name="dnblock" unicode="&#x2584;" horiz-adv-x="1451" 
 />
    <glyph glyph-name="block" unicode="&#x2588;" horiz-adv-x="1451" 
 />
    <glyph glyph-name="lfblock" unicode="&#x258c;" horiz-adv-x="1451" 
 />
    <glyph glyph-name="rtblock" unicode="&#x2590;" horiz-adv-x="1451" 
 />
    <glyph glyph-name="ltshade" unicode="&#x2591;" horiz-adv-x="1451" 
 />
    <glyph glyph-name="shade" unicode="&#x2592;" horiz-adv-x="1451" 
 />
    <glyph glyph-name="dkshade" unicode="&#x2593;" horiz-adv-x="1493" 
 />
    <glyph glyph-name="filledbox" unicode="&#x25a0;" horiz-adv-x="1237" 
 />
    <glyph glyph-name="H22073" unicode="&#x25a1;" horiz-adv-x="1237" 
 />
    <glyph glyph-name="H18543" unicode="&#x25aa;" horiz-adv-x="726" 
 />
    <glyph glyph-name="H18551" unicode="&#x25ab;" horiz-adv-x="726" 
 />
    <glyph glyph-name="filledrect" unicode="&#x25ac;" horiz-adv-x="2048" 
 />
    <glyph glyph-name="triagup" unicode="&#x25b2;" horiz-adv-x="2027" 
 />
    <glyph glyph-name="triagrt" unicode="&#x25ba;" horiz-adv-x="2027" 
 />
    <glyph glyph-name="triagdn" unicode="&#x25bc;" horiz-adv-x="2027" 
 />
    <glyph glyph-name="triaglf" unicode="&#x25c4;" horiz-adv-x="2027" 
 />
    <glyph glyph-name="circle" unicode="&#x25cb;" horiz-adv-x="1237" 
 />
    <glyph glyph-name="H18533" unicode="&#x25cf;" horiz-adv-x="1237" 
 />
    <glyph glyph-name="invbullet" unicode="&#x25d8;" horiz-adv-x="1237" 
 />
    <glyph glyph-name="invcircle" unicode="&#x25d9;" horiz-adv-x="1237" 
 />
    <glyph glyph-name="openbullet" unicode="&#x25e6;" horiz-adv-x="726" 
 />
    <glyph glyph-name="smileface" unicode="&#x263a;" horiz-adv-x="2091" 
 />
    <glyph glyph-name="invsmileface" unicode="&#x263b;" horiz-adv-x="2155" 
 />
    <glyph glyph-name="sun" unicode="&#x263c;" horiz-adv-x="1877" 
 />
    <glyph glyph-name="female" unicode="&#x2640;" horiz-adv-x="1536" 
 />
    <glyph glyph-name="male" unicode="&#x2642;" horiz-adv-x="1536" 
 />
    <glyph glyph-name="spade" unicode="&#x2660;" horiz-adv-x="1088" 
 />
    <glyph glyph-name="club" unicode="&#x2663;" horiz-adv-x="1344" 
 />
    <glyph glyph-name="heart" unicode="&#x2665;" horiz-adv-x="1216" 
 />
    <glyph glyph-name="diamond" unicode="&#x2666;" horiz-adv-x="1045" 
 />
    <glyph glyph-name="musicalnote" unicode="&#x266a;" horiz-adv-x="1024" 
 />
    <glyph glyph-name="musicalnotedbl" unicode="&#x266b;" horiz-adv-x="1536" 
 />
    <glyph glyph-name="uniF004" unicode="&#xf004;" horiz-adv-x="682" 
 />
    <glyph glyph-name="uniF005" unicode="&#xf005;" horiz-adv-x="682" 
 />
    <glyph glyph-name="glyph652" horiz-adv-x="840" 
 />
    </font>
</defs>
</svg>
